<svg width="13" height="26" viewBox="0 0 13 26" fill="none" xmlns="http://www.w3.org/2000/svg">
<path d="M10.7937 24.9996C11.0481 25.0074 11.298 24.9046 11.5086 24.7052C11.7192 24.5059 11.88 24.22 11.9686 23.8874C12.0573 23.5548 12.0694 23.192 12.0033 22.8494C11.9372 22.5068 11.7961 22.2015 11.5997 21.9758L4.10621 13.0276L11.5997 4.08258C11.7356 3.9434 11.8493 3.76671 11.9339 3.5634C12.0185 3.36009 12.072 3.13457 12.0912 2.90108C12.1104 2.66759 12.0947 2.43115 12.0453 2.20647C11.9958 1.98179 11.9137 1.77369 11.8039 1.59534C11.6941 1.41699 11.559 1.27231 11.4072 1.17007C11.2554 1.06783 11.0901 1.0104 10.9216 1.00134C10.7531 0.992281 10.5851 1.03167 10.4281 1.11731C10.2711 1.20294 10.1285 1.33284 10.0092 1.49887L1.42979 11.7308C1.29506 11.891 1.18688 12.0899 1.11269 12.3141C1.0385 12.5383 1.00009 12.7823 1.00009 13.0292C1.00009 13.2761 1.0385 13.5201 1.11269 13.7443C1.18688 13.9685 1.29506 14.1676 1.42979 14.3279L10.0092 24.5696C10.2259 24.8379 10.5039 24.9901 10.7937 24.9996Z" fill="#99C0FF" stroke="#99C0FF" stroke-width="0.2"/>
</svg>
