<svg width="13" height="26" viewBox="0 0 13 26" fill="none" xmlns="http://www.w3.org/2000/svg">
<path d="M2.30545 1.00041C2.05098 0.992612 1.80108 1.09544 1.5905 1.29476C1.37992 1.49407 1.21913 1.78003 1.13048 2.11261C1.04183 2.4452 1.02972 2.80797 1.09584 3.15059C1.16196 3.49321 1.30302 3.79846 1.49941 4.02416L8.99291 12.9724L1.49941 21.9174C1.36356 22.0566 1.24978 22.2333 1.16521 22.4366C1.08064 22.6399 1.0271 22.8654 1.00793 23.0989C0.988768 23.3324 1.0044 23.5688 1.05384 23.7935C1.10328 24.0182 1.18547 24.2263 1.29526 24.4047C1.40506 24.583 1.54008 24.7277 1.69189 24.8299C1.8437 24.9322 2.00902 24.9896 2.1775 24.9987C2.34597 25.0077 2.51398 24.9683 2.67099 24.8827C2.828 24.7971 2.97063 24.6672 3.08995 24.5011L11.6693 14.2692C11.8041 14.109 11.9122 13.9101 11.9864 13.6859C12.0606 13.4617 12.099 13.2177 12.099 12.9708C12.099 12.7239 12.0606 12.4799 11.9864 12.2557C11.9122 12.0315 11.8041 11.8324 11.6693 11.6721L3.08996 1.43041C2.87323 1.16208 2.59525 1.00992 2.30545 1.00041Z" fill="#99C0FF" stroke="#99C0FF" stroke-width="0.2"/>
</svg>
