<svg width="728" height="317" viewBox="0 0 728 317" fill="none" xmlns="http://www.w3.org/2000/svg">
<g clip-path="url(#clip0_447_794)">
<path d="M728.001 312.001H0.86344C0.86344 312.001 0.236894 305.992 0.0512508 296.28C-0.0531735 290.623 -0.0144978 283.712 0.391597 276.002C0.426405 275.375 0.461213 274.736 0.499889 274.093C0.712605 270.558 0.998805 266.868 1.38169 263.062C1.4165 262.725 1.45131 262.384 1.48999 262.047C1.91155 258.071 2.43367 253.935 3.08342 249.688C3.61328 246.238 4.22436 242.706 4.93986 239.121C4.98627 238.869 5.04041 238.617 5.09069 238.362C5.45811 236.538 5.85647 234.703 6.27804 232.848C6.44434 232.124 6.61065 231.396 6.78469 230.664C7.12503 229.239 7.48085 227.81 7.85214 226.378C8.75715 222.866 9.76658 219.33 10.8882 215.784C11.0003 215.423 11.1164 215.059 11.2285 214.692C11.739 213.112 12.2689 211.528 12.822 209.941C13.669 207.528 14.5624 205.112 15.5215 202.704C16.1171 201.19 16.7398 199.683 17.3857 198.177C23.4848 183.901 31.6531 169.923 42.5597 157.408C67.5403 128.743 106.893 107.748 168.639 108.364C181.05 108.484 192.586 108.163 203.354 107.446H203.369C206.641 107.23 209.844 106.978 212.976 106.688H213.007C284.329 100.12 320.069 75.6334 352.557 51.7542C353.721 50.8985 354.885 50.0389 356.045 49.187C367.408 40.8078 378.516 32.5874 390.768 25.3272C393.905 23.4686 397.119 21.672 400.43 19.9528C420.746 9.41295 444.783 1.75396 478.005 0.104452C481.242 -0.0581754 484.402 -0.0349429 487.481 0.166406C488.657 0.239975 489.821 0.344522 490.973 0.472301C503.891 1.89336 515.316 6.4934 524.888 13.7729C549.799 32.7152 562.175 69.7788 555.697 116.042C551.311 147.375 561.22 164.366 578.187 175.471C625.155 206.22 726.222 191.904 728.001 311.997V312.001Z" fill="#D9E9FC"/>
<path d="M376.454 192.098V177.795H373.104V153.195H355.144V177.795H338.351V137.711H319.817V163.731H315.594V132.666H297.06V190.909H273.627V224.872H264.871V209.755H244.755V218.696H233.207V178.662H218.939V208.295H204.676V316.876H218.939H231.169H233.207H244.755H251.284H261.738H264.871H273.627H281.853H297.06H301.721H310.987H315.594H319.817H329.517H336.123H338.351H355.144H372.807H373.104H376.454H390.768V192.098H376.454Z" fill="#739AF0"/>
<path d="M577.584 241.27V316.876H397.758V251.082H411.542V233.131H425.326V257.385H436.488V251.968H455.922V261.13H464.384V240.549H487.033V205.259H504.94V224.082H509.024V208.314H526.935V232.604H543.159V217.696H560.517V232.604H563.754V241.27H577.584Z" fill="#487AE7"/>
<path d="M206.503 211.633V316.493H42.5527V225.243H55.1223V200.342H67.6881V233.986H77.8636V226.467H95.5848V239.179H103.301V210.634H123.946V161.69H140.271V187.796H143.995V165.926H160.32V199.61H175.117V178.941H190.944V199.61H193.895V211.633H206.503Z" fill="#487AE7"/>
<path d="M356.039 49.1909V72.2221C356.039 75.1184 355.308 77.4843 354.411 77.4843H354.179C353.282 77.4843 352.551 75.1184 352.551 72.2221V51.762C353.715 50.9062 354.879 50.0467 356.039 49.1948V49.1909Z" fill="#264272"/>
<path d="M353.387 68.1875C340.674 68.1875 330.367 79.099 330.367 92.5584H376.407C376.407 79.099 366.1 68.1875 353.387 68.1875Z" fill="#264272"/>
<path d="M355.22 68.4854C354.559 68.3421 353.882 68.2646 353.198 68.2646C344.913 68.2646 338.199 79.1413 338.199 92.5581H342.241C342.241 80.2526 347.891 70.0845 355.217 68.4854H355.22Z" fill="#2D5796"/>
<path d="M490.971 0.472433V66.6503C490.971 67.2311 490.963 67.7964 490.948 68.3501C490.824 73.5116 490.147 77.4805 489.339 77.4805H489.107C488.356 77.4805 487.718 74.0653 487.533 69.4537C487.517 69.0742 487.502 68.687 487.494 68.2882C487.494 68.261 487.494 68.2339 487.494 68.203C487.482 67.6957 487.479 67.1769 487.479 66.6464V0.17041C488.654 0.24398 489.818 0.348526 490.971 0.476305V0.472433Z" fill="#264272"/>
<path d="M488.319 68.1875C475.606 68.1875 465.299 79.099 465.299 92.5584H511.338C511.338 79.099 501.031 68.1875 488.319 68.1875Z" fill="#264272"/>
<path d="M490.152 68.4858C489.491 68.3426 488.814 68.2651 488.129 68.2651C479.845 68.2651 473.131 79.1418 473.131 92.5586H477.176C477.176 80.2531 482.827 70.085 490.152 68.4858Z" fill="#2D5796"/>
<path d="M729 316.957H577.926V317H525V12C550.02 31.3711 562.45 69.267 555.944 116.581C551.539 148.623 561.491 165.994 578.532 177.35C625.705 208.792 727.213 194.155 729 316.957Z" fill="#CBE3FF"/>
<path d="M553.061 271.216C553.061 271.216 545.724 262.647 552.609 257.203C552.609 257.203 557.637 254.156 561.74 254.404C561.74 254.404 555.931 264.158 557.811 265.129C559.69 266.101 563.504 253.792 563.504 253.792C563.504 253.792 574.948 252.681 578.63 254.454C578.63 254.454 568.845 262.469 570.906 262.946C572.968 263.422 583.534 255.554 583.534 255.554C583.534 255.554 594.185 257.37 593.617 263.875C593.048 270.38 589.378 272.39 587.765 272.215C586.152 272.041 576.715 268.436 576.51 269.761C576.305 271.085 581.987 275.41 585.963 275.611C585.963 275.611 578.452 283.901 573.463 281.508C568.47 279.115 568.044 275.321 564.935 273.9C561.825 272.479 559.168 272.483 560.452 273.931C561.736 275.383 567.367 276.792 569.146 279.944C570.926 283.096 572.523 285.218 567.36 284.443C562.196 283.665 553.804 279.882 553.433 275.553L553.065 271.22L553.061 271.216Z" fill="#82B378"/>
<path d="M588.383 264.049C588.383 264.049 559.454 262.934 553.065 271.216C553.065 271.216 551.653 275.453 547.302 279.309L546.625 281.16C546.625 281.16 551.637 275.867 553.432 275.549C553.432 275.549 550.628 265.288 588.383 264.049Z" fill="#82B378"/>
<path d="M547.303 279.309C547.303 279.309 541.091 283.906 540.662 292.122L541.788 292.223C541.788 292.223 543.772 283.727 547.357 280.405C550.942 277.083 547.303 279.309 547.303 279.309Z" fill="#82B378"/>
<path d="M527.408 260.436C527.408 260.436 539.08 253.892 533.634 245.01C533.634 245.01 529.276 239.558 524.608 238.152C524.608 238.152 527.098 251.395 524.608 251.709C522.117 252.018 522.894 236.751 522.894 236.751C522.894 236.751 510.599 230.83 505.776 231.299C505.776 231.299 513.403 244.232 510.912 243.918C508.422 243.608 499.863 230.52 499.863 230.52C499.863 230.52 487.255 228.182 485.232 235.663C483.209 243.143 486.477 246.88 488.345 247.349C490.213 247.817 502.195 247.658 501.886 249.219C501.572 250.775 493.481 253.269 488.968 251.867C488.968 251.867 493.949 264.177 500.486 263.553C507.022 262.93 509.044 258.88 513.09 258.566C517.135 258.256 520.094 259.344 518.071 260.436C516.049 261.528 509.199 260.792 505.931 263.576C502.663 266.357 500.018 268.072 506.086 269.319C512.154 270.566 523.049 269.787 525.226 265.114L527.404 260.44L527.408 260.436Z" fill="#AFD295"/>
<path d="M490.99 238.001C490.99 238.001 523.671 248.595 527.407 260.436C527.407 260.436 527.253 265.733 530.521 271.809V274.147C530.521 274.147 527.098 266.202 525.23 265.11C525.23 265.11 532.543 254.826 490.99 237.998V238.001Z" fill="#82B378"/>
<path d="M530.522 271.812C530.522 271.812 535.561 279.475 532.687 288.803L531.392 288.455C531.392 288.455 532.649 278.182 530.015 273.013C527.377 267.847 530.522 271.812 530.522 271.812Z" fill="#82B378"/>
<path d="M545.977 251.41C545.977 251.41 530.591 242.784 537.77 231.078C537.77 231.078 543.513 223.888 549.67 222.041C549.67 222.041 546.387 239.5 549.67 239.91C552.954 240.321 551.925 220.194 551.925 220.194C551.925 220.194 568.13 212.388 574.492 213.003C574.492 213.003 564.44 230.052 567.724 229.638C571.008 229.227 582.289 211.973 582.289 211.973C582.289 211.973 598.904 208.891 601.573 218.749C604.242 228.608 599.933 233.537 597.469 234.153C595.01 234.768 579.211 234.563 579.621 236.615C580.031 238.667 590.697 241.955 596.649 240.108C596.649 240.108 590.086 256.332 581.469 255.511C572.852 254.69 570.188 249.351 564.85 248.94C559.517 248.53 555.618 249.966 558.287 251.403C560.956 252.839 569.979 251.875 574.287 255.542C578.596 259.209 582.084 261.466 574.082 263.112C566.08 264.754 551.72 263.728 548.85 257.567L545.977 251.407V251.41Z" fill="#AFD295"/>
<path d="M593.981 221.835C593.981 221.835 550.9 235.802 545.977 251.41C545.977 251.41 546.182 258.392 541.873 266.403V269.485C541.873 269.485 546.387 259.011 548.846 257.571C548.846 257.571 539.204 244.015 593.977 221.835H593.981Z" fill="#82B378"/>
<path d="M541.876 266.407C541.876 266.407 535.232 276.509 539.022 288.803L540.731 288.342C540.731 288.342 539.072 274.801 542.549 267.987C546.026 261.176 541.88 266.403 541.88 266.403L541.876 266.407Z" fill="#82B378"/>
<path d="M545.458 315.463C562.104 315.463 575.594 301.953 575.594 285.288H515.318C515.318 301.953 528.812 315.463 545.458 315.463Z" fill="#325590"/>
<path d="M552.876 315.234C551.65 315.389 550.401 315.467 549.132 315.467C532.486 315.467 518.996 301.957 518.996 285.292H526.484C526.484 300.687 538.001 313.387 552.876 315.234Z" fill="#233862"/>
<path d="M576.016 317H514.904C514.904 314.944 516.567 313.279 518.621 313.279H572.295C574.349 313.279 576.012 314.944 576.012 317H576.016Z" fill="#325590"/>
<path d="M576.287 285.292H514.332V286.217H576.287V285.292Z" fill="#2B478B"/>
<path d="M306.792 241.18C307.225 230.517 308.157 221.239 309.275 214.773C311.058 204.461 312.659 198.526 312.679 198.464C312.914 197.558 316.302 193.887 323.84 193.999C331.378 194.111 330.663 198.924 330.663 198.924C330.663 199.087 330.643 199.238 330.609 199.354C330.535 199.602 323.616 224.716 323.918 257.141C323.922 257.598 323.972 258.384 323.941 258.907C323.941 258.907 306.475 259.36 306.471 258.907C305.86 256.073 306.158 248.22 306.792 241.18Z" fill="#264272"/>
<path d="M304.598 256.979C304.602 257.432 304.842 257.792 305.132 257.792H305.14C305.43 257.784 305.662 257.424 305.666 256.979H320.633C320.637 257.432 320.877 257.792 321.167 257.792H321.175C321.472 257.784 321.704 257.412 321.701 256.955C321.616 247.674 322.142 239.004 322.942 231.357C324.93 212.279 328.612 199.528 328.662 199.354C328.693 199.242 328.716 199.091 328.716 198.924C328.716 198.924 329.432 194.111 321.894 193.999C314.356 193.887 310.968 197.554 310.732 198.464C310.717 198.51 309.812 201.871 308.605 207.912C308.203 209.913 307.774 212.206 307.329 214.773C306.211 221.243 305.279 230.521 304.846 241.184C304.211 248.224 303.991 254.152 304.598 256.986V256.979Z" fill="#2C3A64"/>
<path d="M304.598 256.979C304.602 257.432 304.842 257.792 305.132 257.792H305.14C305.43 257.784 305.662 257.424 305.666 256.979H320.633C320.637 257.432 320.877 257.792 321.167 257.792H321.175C321.472 257.784 321.704 257.412 321.701 256.955C321.616 247.674 322.142 239.004 322.942 231.357C320.467 219.249 310.902 209.991 308.605 207.912C308.203 209.913 307.774 212.206 307.329 214.773C306.211 221.243 305.279 230.521 304.846 241.184C304.211 248.224 303.991 254.152 304.598 256.986V256.979Z" fill="#264272"/>
<path d="M319.682 256.828L319.639 256.797C319.639 256.797 319.616 256.781 319.612 256.723H319.605C319.605 256.595 319.57 256.491 319.485 256.405C319.009 255.921 317.199 255.941 314.905 255.968C312.399 255.995 309.282 256.034 306.172 255.488C304.567 255.205 305.65 242.818 306.791 231.233C306.985 229.262 307.139 227.706 307.209 226.792C307.948 216.984 312.252 199.435 312.291 199.296C312.48 198.56 315.068 195.827 320.672 195.916C322.78 195.947 324.277 196.469 325.124 197.465C325.994 198.491 325.835 199.625 325.827 199.675C325.827 199.784 325.812 199.908 325.785 200.005C325.762 200.101 321.89 222.73 321.256 228.166C320.212 237.111 319.798 255.654 319.779 256.688C319.779 256.7 319.779 256.715 319.779 256.727V256.777L319.686 256.835L319.682 256.828ZM316.34 255.782C318.011 255.782 319.191 255.859 319.608 256.285C319.616 255.859 319.639 255.058 319.678 253.552C319.728 251.778 319.813 249.01 319.933 245.889C320.15 240.425 320.521 232.913 321.078 228.135C321.724 222.583 325.591 200.016 325.615 199.947C325.638 199.865 325.653 199.757 325.653 199.652C325.653 199.629 325.804 198.529 324.984 197.565C324.172 196.609 322.718 196.109 320.664 196.078C320.579 196.078 320.494 196.078 320.409 196.078C315.079 196.078 312.631 198.634 312.45 199.335C312.407 199.497 308.118 216.93 307.375 226.799C307.306 227.717 307.151 229.274 306.958 231.245C306.196 238.966 304.614 255.035 306.2 255.314C309.294 255.856 312.403 255.821 314.902 255.794C315.412 255.79 315.892 255.782 316.336 255.782H316.34Z" fill="#264272"/>
<path d="M322.804 257.796H264.121C264.121 257.796 265.486 252.259 299.471 253.083C323.519 253.668 322.8 257.796 322.8 257.796H322.804Z" fill="#2C3A64"/>
<path d="M327.581 315.625C320.777 281.14 322.526 259.979 322.533 259.712C322.549 259.182 321.574 258.698 321.048 258.682C320.514 258.674 318.167 258.527 317.896 258.98C317.54 259.577 316.171 285.647 326.312 315.625H327.581Z" fill="#264272"/>
<path d="M272.791 315.625C279.594 281.14 277.846 259.979 277.838 259.712C277.823 259.182 278.797 258.698 279.323 258.682C279.857 258.674 282.205 258.527 282.475 258.98C282.831 259.577 284.2 285.647 274.06 315.625H272.791Z" fill="#264272"/>
<path d="M261.932 315.625C268.735 281.14 266.987 259.979 266.975 259.712C266.959 259.182 267.934 258.698 268.46 258.682C268.994 258.674 271.341 258.527 271.612 258.98C271.968 259.577 273.337 285.647 263.196 315.625H261.928H261.932Z" fill="#222B4A"/>
<path d="M316.651 315.625C309.848 281.14 311.596 259.979 311.604 259.712C311.619 259.182 310.645 258.698 310.119 258.682C309.585 258.674 307.237 258.527 306.966 258.98C306.611 259.577 305.242 285.647 315.382 315.625H316.651Z" fill="#222B4A"/>
<path d="M322.865 259.561H263.992C263.381 259.561 262.886 259.065 262.886 258.454V257.47C262.886 256.858 263.381 256.363 263.992 256.363H322.865C323.476 256.363 323.971 256.858 323.971 257.47V258.454C323.971 259.065 323.476 259.561 322.865 259.561Z" fill="#264272"/>
<path d="M404.123 125.359L404.13 126.811C404.13 126.811 403.736 131.349 409.317 132.011C414.898 132.677 419.473 132.588 419.322 129.088C418.819 126.377 417.918 122.168 417.883 119.926C417.868 119.094 417.926 118.207 418.081 117.208L407.267 116.991L404.08 117.514L404.123 125.363V125.359Z" fill="#FFB27D"/>
<path d="M404.08 117.51L404.123 125.359C405.271 125.893 406.567 126.218 408.021 126.218C412.991 126.218 416.205 122.571 417.883 119.922C417.868 119.09 417.926 118.203 418.081 117.204L407.267 116.987L404.08 117.51Z" fill="#E2915A"/>
<path d="M418.908 115.462C417.655 122.222 408.941 122.002 405.174 121.576C404.115 121.46 403.449 121.32 403.449 121.32C402.254 120.999 401.589 119.117 401.28 116.647C400.665 111.76 401.442 104.593 402.266 102.757C403.507 99.9967 405.844 97.0152 414.619 99.168C423.395 101.325 420.521 106.796 418.912 115.458L418.908 115.462Z" fill="#FFB27D"/>
<path d="M426.041 315.629H413.691C413.784 314.982 414.097 313.008 414.678 311.192C414.879 310.561 415.111 309.945 415.378 309.411C416.577 307.01 424.207 308.535 424.207 308.535C424.207 308.535 424.915 309.143 425.468 311.463C425.712 312.485 425.928 313.844 426.041 315.625V315.629Z" fill="#6F8698"/>
<path d="M388.73 311.726C388.695 313.407 388.486 314.998 387.875 315.629H363.451C363.761 314.743 364.642 313.414 367.149 313.008C369.999 312.547 374.439 311.172 377.03 308.427C377.955 307.451 378.643 306.301 378.945 304.958C380.093 299.835 388.443 306.526 388.443 306.526C388.443 306.526 388.78 309.221 388.726 311.726H388.73Z" fill="#6F8698"/>
<path d="M404.973 256.363C404.632 258.237 404.416 259.778 404.362 260.878C403.584 276.041 391.614 310.708 389.472 311.513C386.157 312.764 380.94 310.104 378.209 309.232C377.08 308.872 376.314 307.73 376.565 306.568C382.494 279.282 384.672 239.992 385.465 216.728C385.867 205.011 387.874 196.919 387.874 196.919C387.874 196.919 417.07 189.12 417.245 198.986C417.399 207.718 407.572 241.955 404.969 256.359L404.973 256.363Z" fill="#2B478B"/>
<path d="M404.973 256.363L385.469 216.736C385.871 205.019 387.878 196.926 387.878 196.926C387.878 196.926 417.075 189.128 417.249 198.994C417.403 207.726 407.576 241.963 404.973 256.367V256.363Z" fill="#223D7E"/>
<path d="M398.477 199.025L413.912 311.025C413.912 311.025 420.692 312.663 425.963 311.35C425.963 311.35 430.481 251.782 430.105 237.382C429.73 222.981 433.35 198.847 429.278 196.187C425.209 193.526 398.477 199.021 398.477 199.021V199.025Z" fill="#2B478B"/>
<path d="M399.57 96.3257C399.57 96.3257 403.433 96.0276 407.989 94.0451C411.687 92.4343 416.351 94.2077 417.867 95.0054C417.824 94.7614 417.728 94.4284 417.496 94.0915C417.496 94.0915 418.176 94.5756 418.277 95.2493C418.347 95.2996 418.378 95.3384 418.358 95.35C418.358 95.35 419.128 95.2106 419.623 95.4313C419.623 95.4313 419.279 95.3809 419.151 95.6055C419.139 95.6288 419.12 95.6481 419.097 95.6675C424.863 98.4593 425.397 107.586 423.541 109.696C421.309 112.236 418.629 117.959 418.629 117.959C418.629 117.959 417.65 116.608 418.06 114.374C418.467 112.139 416.537 112.139 414.1 111.121C411.663 110.106 413.694 107.261 411.563 105.53C409.432 103.803 401.616 104.817 401.716 103.497C398.815 102.44 399.566 96.6239 399.566 96.3257H399.57Z" fill="#444444"/>
<path d="M420.641 131.031L417.087 207.369C417.087 207.369 387.427 207.853 388.274 201.135C389.121 194.417 398.964 133.37 398.964 133.37L420.637 131.031H420.641Z" fill="#E1E7F5"/>
<path d="M431.23 174.302C429.466 179.603 432.792 197.387 433.98 203.408C434.239 204.682 434.413 205.433 434.413 205.433C430.306 212.124 415.261 212.035 415.261 212.035C412.368 199.234 410.863 178.844 410.863 178.844L422.404 128.185L436.927 141.625C436.927 141.625 435.828 149.822 434.467 158.163C433.396 164.769 432.181 171.487 431.226 174.294L431.23 174.302Z" fill="#2B478B"/>
<path d="M406.543 116.573C406.543 116.573 406.261 117.444 404.064 117.127C404.064 117.127 402.219 116.86 402.355 115.888C402.355 115.888 404.211 115.342 406.543 116.573Z" fill="white"/>
<path d="M389.874 132.119C389.874 132.119 389.874 132.131 389.867 132.15C389.167 132.832 369.365 152.076 365.528 159.615C361.622 167.263 383.377 182.495 383.377 182.495C383.377 182.495 384.777 183.049 385.748 182.832C384.723 191.289 383.57 199.087 384.251 202.417C385.485 208.434 391.046 210.456 391.046 209.995C391.046 209.848 393.081 188.125 394.183 176.788C396.55 152.483 402.483 128.34 402.483 128.34C396.008 129.014 389.871 132.112 389.871 132.112L389.874 132.119ZM378.086 162.918C378.059 162.887 378.059 162.829 378.059 162.802C378.059 161.702 382.255 159.267 386.796 156.401C386.854 156.343 386.881 156.312 386.881 156.312C386.881 156.312 386.889 156.312 386.889 156.308C386.807 158.651 386.815 160.951 386.954 163.088C387.214 167.057 386.923 171.801 386.444 176.629C384.282 173.249 378.504 164.165 378.082 162.918H378.086Z" fill="#2B478B"/>
<path d="M421.479 128.1C421.513 127.372 418.067 126.365 418.067 126.365C418.067 126.365 414.122 131.84 407.621 131.937C407.621 131.937 409.474 135.546 411.655 136.479C411.655 136.479 421.262 132.425 421.475 128.1H421.479Z" fill="white"/>
<path d="M407.625 131.806C407.625 131.806 404.183 129.761 404.171 127.546C404.171 127.546 401.947 127.268 400.977 128.348C400.977 128.348 400.16 132.147 401.243 134.35C401.243 134.35 406.202 133.595 407.629 131.806H407.625Z" fill="white"/>
<path d="M409.962 131.48L405.293 130.361C405.293 130.361 404.682 130.416 404.702 131.174C404.717 131.937 406.017 134.16 406.593 134.338C407.169 134.516 411.068 133.021 409.965 131.48H409.962Z" fill="#35488B"/>
<path d="M420.933 127.724C420.968 126.997 418.636 125.494 418.636 125.494C418.636 125.494 414.122 130.78 407.621 130.872C407.621 130.872 409.474 134.481 411.655 135.414C411.655 135.414 420.717 132.05 420.929 127.721L420.933 127.724Z" fill="#E1E7F5"/>
<path d="M407.626 130.872C407.626 130.872 404.145 129.025 404.13 126.807C404.13 126.807 402.029 127.732 401.055 128.812C401.055 128.812 400.154 131.209 401.237 133.412C401.237 133.412 406.195 132.657 407.622 130.868L407.626 130.872Z" fill="#E1E7F5"/>
<path d="M398.494 183.529C398.653 185.31 399.469 186.971 400.788 188.187L402.857 190.096C403.375 190.576 404.191 190.51 404.628 189.953L407.189 186.696C407.877 185.821 408.198 184.717 408.094 183.61C407.854 181.144 407.409 176.396 407.049 171.812C406.759 168.098 406.523 164.49 406.508 162.294C406.454 155.286 407.842 132.94 407.842 132.94L406.164 133.029C406.164 133.029 401.995 141.702 399.813 153.505C399.276 156.409 398.858 159.502 398.653 162.705C398.653 162.705 397.779 175.467 398.494 183.529Z" fill="#394F9B"/>
<path d="M398.494 183.529C398.653 185.31 399.469 186.971 400.788 188.187L402.857 190.096C403.375 190.576 404.191 190.51 404.628 189.952L407.189 186.696C407.877 185.821 408.198 184.717 408.094 183.61C407.854 181.143 407.409 176.396 407.049 171.812C402.412 166.596 400.533 159.386 399.813 153.504C399.276 156.408 398.858 159.502 398.653 162.704C398.653 162.704 397.779 175.467 398.494 183.529Z" fill="#35488B"/>
<path d="M381.992 183.738C381.992 181.79 383.702 180.23 385.624 180.52C386.158 180.602 386.637 180.822 386.974 181.264C388.296 183.026 389.553 188.152 387.21 188.392C386.254 188.489 385.032 187.819 384.088 187.103C383.129 186.375 381.996 185.233 381.996 184.025V183.734L381.992 183.738Z" fill="#FFB27D"/>
<path d="M433.977 203.408C429.727 198.975 422.378 190.259 422.638 183.103C422.986 173.082 434.468 158.167 434.468 158.167C433.397 164.773 432.183 171.491 431.227 174.298C429.464 179.599 432.79 197.383 433.977 203.405V203.408Z" fill="#223D7E"/>
<path d="M433.845 185.976C433.845 185.976 430.789 187.506 428.933 186.743C427.077 185.976 424.895 185.403 422.818 187.769C420.745 190.135 420.308 191.773 420.745 192.648C421.182 193.523 426.017 193.194 426.821 192.648C427.626 192.102 428.894 190.754 429.699 190.99C431.919 191.637 433.791 189.941 434.839 188.59C435.469 187.773 433.767 187.378 433.849 185.98L433.845 185.976Z" fill="#FFB27D"/>
<path d="M422.404 128.189C422.404 128.189 434.579 129.54 437.453 134.849C440.323 140.158 455.255 161.675 454.768 170.615C454.281 179.556 434.398 189.581 434.398 189.581C434.398 189.581 429.996 187.718 429.931 185.713C429.865 183.707 443.676 171.731 442.837 169.496C442.001 167.262 426.794 149.582 425.324 143.751C423.858 137.92 422.404 128.189 422.404 128.189Z" fill="#2B478B"/>
<path d="M386.881 156.312C386.881 156.312 386.85 156.343 386.796 156.401C382.256 159.267 378.059 161.702 378.059 162.802C377.452 160.862 383.354 152.75 385.261 151.1C387.198 149.42 386.881 156.312 386.881 156.312Z" fill="#2B4890"/>
<path d="M418.641 125.494C418.641 125.494 409.398 164.258 410.867 178.859C410.867 178.859 414.267 163.255 422.447 150.473C422.447 150.473 419.461 147.844 419.624 146.876C419.624 146.876 421.84 146.218 423.99 146.663C423.99 146.663 423.754 129.955 422.412 128.189C421.07 126.423 418.641 125.494 418.641 125.494Z" fill="#223D7E"/>
<path d="M404.131 126.807C404.321 126.695 394.969 164.684 394.188 176.792C394.188 176.792 395.116 155.189 395.023 148.963C395.023 148.963 398.863 146.926 398.863 146.214C398.863 145.501 394.768 143.569 394.768 143.569C394.768 143.569 397.363 130.265 398.778 128.801C400.194 127.334 404.131 126.807 404.131 126.807Z" fill="#223D7E"/>
<path d="M283.885 294.712C284.372 295.274 284.434 295.897 284.194 296.567C284.194 296.567 284.194 296.575 284.19 296.575C283.742 297.814 282.264 299.192 280.551 300.575C280.33 300.753 280.137 300.911 279.967 301.062C279.92 301.101 279.878 301.14 279.835 301.179C279.801 301.21 279.766 301.241 279.735 301.272C278.134 302.747 278.737 303.088 275.863 306.085C272.584 309.5 270.329 309.562 269.687 309.248C269.145 308.981 270.248 307.173 271.47 305.136C271.528 305.039 271.586 304.938 271.648 304.838C271.81 304.567 271.973 304.292 272.135 304.021C273.57 301.57 273.199 300.424 272.862 296.776C272.588 293.814 268.26 280.227 268.26 280.227L274.541 279.143C274.541 279.143 276.432 289.961 278.517 291.63C279.63 292.517 280.88 292.528 281.951 293.187C282.028 293.233 282.102 293.28 282.175 293.326C282.782 293.729 283.405 294.147 283.892 294.708L283.885 294.712Z" fill="#FFB27D"/>
<path d="M283.884 294.712C284.372 295.274 284.433 295.897 284.194 296.567C284.194 296.567 284.194 296.575 284.19 296.575C283.641 297.81 282.202 299.184 280.543 300.559C280.326 300.737 280.137 300.904 279.963 301.058C279.916 301.097 279.874 301.136 279.831 301.175C279.796 301.206 279.761 301.237 279.73 301.268C278.129 302.743 278.733 303.084 275.859 306.081C272.579 309.496 270.325 309.558 269.683 309.244C269.141 308.977 270.243 307.169 271.465 305.132C272.104 304.9 275.066 303.691 277.309 300.822C279.282 298.302 280.601 295.061 281.943 293.183C282.02 293.229 282.094 293.276 282.167 293.322C282.774 293.725 283.397 294.143 283.884 294.704V294.712Z" fill="#101D2A"/>
<path d="M233.234 290.786C232.847 292.726 230.082 292.404 226.996 291.649C223.91 290.894 224.64 291.792 220.247 291.305C215.853 290.817 214.519 289.179 214.388 288.524C214.268 287.944 216.437 287.738 218.77 287.471C219.063 287.436 219.357 287.402 219.651 287.367C222.281 287.038 224.207 285.338 226.597 283.944C228.86 282.623 232.236 277.237 232.236 277.237L238.262 277.714C238.262 277.714 235.098 282.523 233.876 284.614C233.157 285.845 233.196 287.471 233.284 288.726C233.331 289.407 233.377 290.108 233.238 290.79L233.234 290.786Z" fill="#FFB27D"/>
<path d="M226.996 291.645C223.91 290.89 224.64 291.789 220.247 291.301C215.853 290.813 214.519 289.175 214.388 288.521C214.268 287.94 216.437 287.734 218.77 287.467L218.793 287.514C218.793 287.514 221.427 289.384 225.085 289.473C228.067 289.547 231.227 288.691 233.284 288.722C233.331 289.403 233.377 290.104 233.238 290.786C232.851 292.726 230.086 292.404 227 291.649L226.996 291.645Z" fill="#101D2A"/>
<path d="M246.642 202.161C246.642 202.161 245.208 198.638 243.626 198.494C242.048 198.351 237.02 197.561 236.66 198.278C236.301 198.998 236.66 201.584 237.739 202.518C238.818 203.451 245.494 204.961 245.494 204.961L246.642 202.157V202.161Z" fill="#FFB27D"/>
<path d="M256.332 252.2L269.319 287.196C269.319 287.196 271.315 287.39 273.229 286.836C274.989 286.329 277.008 284.993 277.008 284.993C277.008 284.993 273.786 251.391 267.881 244.402C261.975 237.413 256.336 252.197 256.336 252.197L256.332 252.2Z" fill="#1D3B58"/>
<path d="M307.704 238.044C307.704 238.044 270.382 225.409 262.055 228.097C253.732 230.784 228.74 280.567 228.74 280.567C228.74 280.567 229.305 281.319 230.844 281.895C232.275 282.434 235.744 282.399 235.744 282.399C235.744 282.399 258.3 263.042 260.984 257.397C263.668 251.751 264.743 246.373 267.428 246.911C270.112 247.449 302.065 260.084 309.317 252.557C316.565 245.029 314.67 235.248 314.67 235.248L307.704 238.04V238.044Z" fill="#284663"/>
<path d="M284.897 179.266C284.302 178.035 283.637 175.847 283.308 171.944C283.358 172.331 284.031 177.252 285.919 180.036C293.681 185.14 308.559 202.173 308.265 205.402C308.265 205.402 313.506 196.504 313.595 196.45C313.595 196.45 323.264 184.145 311.804 177.094C305.98 173.512 306.011 168.912 306.254 164.916C306.498 160.92 304.665 143.724 293 148.227C293 148.227 291.128 147.395 290.289 147.519C290.289 147.519 290.973 147.65 291.322 148.01C289.968 147.929 288.034 148.03 286.421 148.947C282.144 151.379 278.319 173.206 284.89 179.262L284.897 179.266Z" fill="#444444"/>
<path d="M286.379 180.288C286.34 180.304 290.127 182.274 292.973 181.492C295.653 180.761 297.401 177.283 297.367 177.276C296.233 177.051 295.905 175.491 295.928 168.78L295.414 168.881L286.789 170.589C286.789 170.589 286.986 173.307 286.99 175.866C286.994 178.015 286.866 180.056 286.375 180.284L286.379 180.288Z" fill="#FFB27D"/>
<path d="M286.793 170.596C286.793 170.596 286.99 173.314 286.994 175.874C291.821 175.738 294.37 171.332 295.418 168.889L286.793 170.596Z" fill="#ED975D"/>
<path d="M296.31 167.944C296.31 167.944 298.84 163.944 299.447 160.521C299.88 158.078 298.639 149.025 289.55 150.33C289.55 150.33 286.912 150.589 284.429 152.266C282.457 153.601 279.61 156.478 282.793 164.381L283.621 167.049L296.31 167.944Z" fill="#444444"/>
<path d="M285.184 173.02C285.184 173.02 296.601 173.21 296.609 166.089C296.616 158.969 298.094 154.198 290.807 153.776C283.517 153.354 282.098 156.068 281.517 158.446C280.937 160.823 282.214 172.788 285.184 173.02Z" fill="#FFB27D"/>
<path d="M285.605 153.598C285.605 153.598 288.73 161.954 293.53 163.189C298.33 164.424 300.411 163.139 300.411 163.139C300.411 163.139 296.729 160.211 295.967 155.104C295.967 155.104 287.965 149.625 285.605 153.602V153.598Z" fill="#444444"/>
<path d="M286.379 154.276C286.379 154.276 284.043 156.142 283.474 157.954C282.906 159.766 282.65 163.499 281.564 163.375C281.564 163.375 279.208 157.698 281.854 154.485C284.661 151.077 286.379 154.276 286.379 154.276Z" fill="#444444"/>
<path d="M316.461 238.242C315.846 239.953 313.959 240.395 311.426 240.097C306.599 239.531 299.428 236.286 294.261 234.044C286.383 230.625 282.806 233.839 280.299 231.663C277.793 229.487 283.165 224.651 278.509 202.189C276.931 194.572 286.932 178.24 286.932 178.24C286.932 178.24 287.799 182.968 297.367 177.28C297.703 177.078 301.47 182.662 305.102 189.546C309.101 197.143 312.934 206.316 311.805 211.044C309.658 220.058 318.248 233.266 316.457 238.242H316.461Z" fill="#5688B8"/>
<path d="M286.935 178.236L281.033 202.467C281.033 202.467 280.298 203.776 279.149 205.639C276.446 210.01 271.449 217.441 268.247 218.196C266.669 218.568 263.308 217.251 259.591 215.373C252.564 211.818 244.256 206.25 244.256 206.25C243.718 203.025 246.522 200.396 246.522 200.396C246.522 200.396 263.35 206.727 265.021 206.847C268.664 207.106 272.369 189.504 275.777 183.637C278.236 179.394 286.931 178.24 286.931 178.24L286.935 178.236Z" fill="#5688B8"/>
<path d="M287.72 168.703C287.72 168.703 287.507 169.609 285.26 169.469C285.26 169.469 283.373 169.353 283.431 168.358C283.431 168.358 285.26 167.65 287.72 168.703Z" fill="white"/>
<path d="M316.46 238.241C315.845 239.953 313.958 240.394 311.425 240.096C308.083 238.64 293.653 233.041 293.816 229.25C294.056 223.636 296.589 223.458 294.802 216.527C293.363 210.963 306.699 200.613 308.826 198.367C312.825 205.964 312.933 206.32 311.808 211.048C309.661 220.062 318.251 233.27 316.46 238.245V238.241Z" fill="#4675A2"/>
<path d="M279.15 205.639C276.447 210.01 271.45 217.441 268.247 218.196C266.669 218.568 263.309 217.251 259.592 215.373C262.303 216.074 264.941 216.055 267.501 215.807C270.274 215.54 271.082 212.132 275.468 207.025C278.311 203.714 279.011 204.547 279.15 205.639Z" fill="#426688"/>
<path d="M292.517 216.388C292.517 216.388 290.099 214.506 287.818 214.955C285.536 215.404 284.418 216.972 284.507 217.689C284.596 218.405 285.806 220.422 287.551 220.601C289.295 220.779 294.265 219.524 294.265 219.524L292.52 216.388H292.517Z" fill="#FFB27D"/>
<path d="M297.371 177.279C297.371 177.279 306.676 177.852 309.898 182.352C314.434 188.683 322.309 214.537 320.162 220.453L291.848 220.333C291.848 220.333 291.163 217.123 292.115 215.57C293.07 214.018 308.583 211.509 309.302 210.792C310.018 210.076 300.352 196.814 300.352 194.661C300.352 192.508 297.371 177.283 297.371 177.283V177.279Z" fill="#5688B8"/>
<path d="M290.088 226.978H255.809L249.629 205.402H283.857L290.088 226.978Z" fill="#264272"/>
<path d="M300.739 226.137H255.926V226.977H300.739V226.137Z" fill="#07101D"/>
<path d="M266.692 215.837C266.476 215.079 266.913 214.463 267.671 214.463C268.429 214.463 269.218 215.079 269.434 215.837C269.651 216.596 269.214 217.212 268.456 217.212C267.698 217.212 266.909 216.596 266.692 215.837Z" fill="#163560"/>
<path d="M182.375 178.016C182.375 178.016 186.123 174.949 187.469 174.933C188.815 174.918 191.371 174.244 191.27 174.682C191.17 175.119 189.016 175.692 189.387 175.894C189.758 176.095 192.887 175.255 193.761 175.758C194.635 176.261 196.689 178.352 195.041 179.262C193.394 180.172 188.447 181.62 187.167 181.454C185.887 181.287 182.994 181.082 182.994 181.082L182.375 178.016Z" fill="#FFB27D"/>
<path d="M134.525 292.014L137.666 305.264L142.373 305.241L142.547 292.014H134.525Z" fill="#FFB27D"/>
<path d="M174.117 292.579L183.059 305.264L186.544 300.788L181.16 290.836L174.117 292.579Z" fill="#FFB27D"/>
<path d="M155.793 132.364C155.793 132.329 155.793 132.298 155.785 132.263C155.727 131.601 155.65 130.95 155.561 130.3C155.29 128.31 154.903 126.401 154.432 124.693C154.161 123.713 153.863 122.8 153.542 121.979C153.492 121.851 153.445 121.735 153.399 121.611C152.633 119.741 151.763 118.397 150.87 117.89C149.245 116.964 147.296 116.868 145.935 116.945C146.283 116.585 146.975 116.453 146.975 116.453C146.128 116.325 144.244 117.166 144.244 117.166C132.495 112.635 130.65 129.951 130.898 133.978C131.141 138.001 126.949 139.314 120.838 142.485C109.173 148.533 108.152 156.634 108.152 156.634C108.241 156.688 108.338 156.75 108.439 156.82C109.019 155.84 110.21 153.997 111.215 153.718C111.177 153.807 110.028 156.254 109.599 157.656C111.072 158.779 113.087 160.483 115.269 162.388C118.189 164.936 121.395 167.847 123.959 170.202C123.94 169.396 123.975 168.254 124.265 167.654L124.756 170.608L124.822 170.995C126.458 172.502 127.749 173.706 128.403 174.318C128.469 174.38 128.531 174.438 128.585 174.484C128.774 174.662 128.879 174.759 128.879 174.759C128.786 173.725 130.232 171.286 132.503 168.281C132.657 168.072 132.824 167.859 132.99 167.642C133.721 166.694 134.525 165.698 135.384 164.676C135.693 164.308 136.007 163.937 136.328 163.565C136.587 163.263 136.846 162.965 137.117 162.659C137.751 161.935 138.404 161.207 139.07 160.483C140.795 158.605 142.597 156.754 144.357 155.07C146.913 152.619 149.377 150.524 151.376 149.211C151.454 149.099 151.523 148.987 151.593 148.87C151.964 148.27 152.281 147.589 152.556 146.888C152.641 146.679 152.718 146.466 152.792 146.253C153.577 144.003 153.925 141.707 154.002 141.157C153.813 143.415 153.503 145.095 153.167 146.35C153.09 146.625 153.016 146.876 152.939 147.112C152.765 147.647 152.587 148.08 152.417 148.437C152.757 148.123 153.07 147.767 153.36 147.368C153.55 147.109 153.728 146.834 153.89 146.543C155.855 143.12 156.276 137.641 155.797 132.371L155.793 132.364Z" fill="#444444"/>
<path d="M150.919 149.463C150.958 149.482 147.144 151.465 144.275 150.679C141.575 149.943 139.812 146.439 139.85 146.431C140.995 146.202 141.324 144.63 141.297 137.874L141.815 137.974L150.502 139.697C150.502 139.697 150.304 142.435 150.297 145.014C150.289 147.178 150.42 149.23 150.915 149.463H150.919Z" fill="#FFB27D"/>
<path d="M150.503 139.697C150.503 139.697 150.306 142.435 150.298 145.014C145.436 144.878 142.868 140.437 141.816 137.978L150.503 139.701V139.697Z" fill="#ED975D"/>
<path d="M140.918 137.03C140.918 137.03 138.369 132.999 137.758 129.553C137.321 127.094 138.574 117.975 147.725 119.288C147.725 119.288 150.382 119.551 152.88 121.239C154.868 122.583 157.734 125.483 154.528 133.44L153.696 136.127L140.914 137.026L140.918 137.03Z" fill="#444444"/>
<path d="M185.124 297.307L180.522 297.45L175.536 297.601C175.536 297.601 164.023 284.769 157.568 264.197C157.417 263.72 157.258 263.236 157.092 262.745C153.557 252.429 146.232 239.477 142.372 227.757C141.757 225.89 141.204 224.132 140.709 222.467C140.55 221.933 140.396 221.41 140.249 220.895C137.402 210.998 136.578 204.501 135.82 197.558L163.698 197.783C163.698 197.783 168.2 245.193 185.124 297.307Z" fill="#2B478B"/>
<path d="M159.791 181.748C159.721 195.029 161.736 200.729 161.736 200.729C161.736 200.729 149.801 206.801 135.611 202.332C135.445 202.278 123.865 199.633 123.865 199.633C124.101 199.095 126.213 190.147 126.445 189.651C129.442 183.212 131.713 180.389 132.068 178.407C132.726 174.709 132.741 170.887 132.413 167.278C131.546 157.73 128.974 149.804 128.974 149.804C132.842 148.925 136.458 147.376 140.484 145.866C141.409 147.019 144.24 148.228 146.692 148.169C149.519 148.108 150.435 146.896 150.288 145.575C153.301 147.252 155.703 148.835 155.703 148.835C158.263 153.288 163.454 157.61 163.829 164.436C163.922 166.117 159.791 181.373 159.787 181.744L159.791 181.748Z" fill="#B4D5EF"/>
<path d="M152.127 142.137C152.127 142.137 140.625 142.327 140.617 135.155C140.61 127.984 139.121 123.179 146.461 122.753C153.806 122.327 155.233 125.065 155.817 127.458C156.401 129.851 155.117 141.904 152.123 142.137H152.127Z" fill="#FFB27D"/>
<path d="M151.7 122.579C151.7 122.579 148.552 130.993 143.718 132.236C138.887 133.479 136.791 132.186 136.791 132.186C136.791 132.186 140.496 129.239 141.266 124.093C141.266 124.093 149.326 118.575 151.7 122.579Z" fill="#444444"/>
<path d="M150.92 123.261C150.92 123.261 153.271 125.138 153.844 126.966C154.416 128.794 154.675 132.554 155.77 132.426C155.77 132.426 158.141 126.707 155.476 123.473C152.649 120.043 150.92 123.264 150.92 123.264V123.261Z" fill="#444444"/>
<path d="M137.506 304.524C137.506 304.524 137.886 307.15 136.907 309.957C136.907 309.957 136.137 313.469 139.595 313.535C143.053 313.601 143.9 313.275 143.509 311.119C143.118 308.962 142.372 305.237 142.372 305.237L137.506 304.524Z" fill="#FFB27D"/>
<path d="M143.967 315.625H136.394C136.085 314.069 136.769 310.743 136.881 310.104C136.889 310.057 136.897 310.019 136.905 309.995C136.905 309.972 136.908 309.961 136.908 309.961C140.819 313.55 143.271 309.868 143.271 309.868C143.271 309.872 143.274 309.879 143.278 309.887C143.851 311.293 143.974 315.076 143.967 315.625Z" fill="#10182A"/>
<path d="M194.875 311.471C194.875 311.471 188.501 304.389 186.544 300.784L181.807 303.215L192.4 313.174L194.879 312.849V311.471H194.875Z" fill="#FFB27D"/>
<path d="M198.92 315.626H190.903C189.723 315.626 188.779 313.667 187.507 311.119C186.985 310.077 185.817 309.504 184.622 309.187L184.653 315.626H182.8L181.098 308.819C179.969 306.743 181.01 304.861 181.802 303.22C182.727 303.22 185.21 303.851 189.92 309.159C191.467 310.902 193.177 311.525 194.875 311.475C194.898 311.49 194.921 311.502 194.944 311.514C198.858 313.276 198.924 315.626 198.924 315.626H198.92Z" fill="#10182A"/>
<path d="M180.519 297.45L175.534 297.601C175.534 297.601 164.02 284.769 157.565 264.196C157.414 263.72 157.256 263.236 157.089 262.744C153.554 252.429 146.229 239.477 142.369 227.756C141.754 225.89 141.201 224.132 140.706 222.467C140.548 221.933 140.393 221.41 140.246 220.895L144.353 217.778C144.353 217.778 156.679 237.762 160.497 256.565C163.811 272.901 177.089 292.556 180.523 297.442L180.519 297.45Z" fill="#2C3A64"/>
<path d="M144.783 258.323C144.852 267.468 144.392 288.494 143.201 297.198H138.788C136.347 297.198 135.129 297.164 135.129 297.164C132.143 282.031 130.02 269.505 128.477 258.718C127.208 249.862 126.083 242.269 125.217 235.737C124.342 229.158 123.735 223.652 123.519 219.002C123.484 218.27 123.461 217.557 123.445 216.864C123.43 216.167 123.426 215.493 123.434 214.835L147.521 212.485C147.219 228.508 144.744 253.014 144.783 258.327V258.323Z" fill="#2B478B"/>
<path d="M138.783 297.198C136.342 297.198 135.124 297.163 135.124 297.163C132.138 282.031 130.015 269.505 128.472 258.717C127.203 249.862 126.078 242.269 125.212 235.737C124.337 229.158 123.73 223.652 123.514 219.001L132.351 224.206C132.351 224.206 126.708 226.2 128.863 241.281C131.017 256.367 135.785 295.065 138.783 297.202V297.198Z" fill="#2C3A64"/>
<path d="M139.921 218.847C139.921 218.847 138.223 224.984 132.352 224.202C126.481 223.42 118.135 219.892 118.135 219.892C118.135 219.892 120.645 211.954 123.762 201.531C127.541 188.908 128.481 171.166 130.681 160.905C131.3 158.028 135.458 157.095 135.612 155.376L140.482 145.916C140.482 145.916 147.745 162.233 148.135 166.349C148.526 170.461 139.917 218.855 139.917 218.855L139.921 218.847Z" fill="#89B7E3"/>
<path d="M135.817 178.457C135.554 185.117 133.226 196.478 123.874 201.473C123.839 201.492 123.8 201.512 123.762 201.527C127.54 188.904 127.49 176.792 129.695 166.531C134.722 165.482 135.96 174.79 135.817 178.457Z" fill="#89B7E3"/>
<path d="M125.548 193.244C125.548 193.244 129.745 192.338 130.82 193.535C131.899 194.735 132.502 196.64 131.427 197.31C130.352 197.98 127.231 196.141 126.109 196.884C125.305 197.414 125.05 198.766 124.245 198.293C123.437 197.821 122.586 194.727 122.586 194.727L125.548 193.244Z" fill="#FFB27D"/>
<path d="M140.489 145.912C140.489 145.912 129.172 146.412 126.45 148.94C123.731 151.469 107.441 171.011 107.174 176.134C106.903 181.257 121.441 195.812 121.441 195.812C121.441 195.812 125.479 194.836 127.231 192.292C127.231 192.292 118.212 176.192 118.749 175.491C119.287 174.79 134.568 162.256 135.817 165.036C136.896 167.433 140.485 145.92 140.485 145.92L140.489 145.912Z" fill="#89B7E3"/>
<path d="M183.542 176.354C183.542 176.354 170.621 180.668 169.004 180.308C167.388 179.948 165.083 162.419 163.833 156.409C162.228 148.673 156.102 147.132 156.102 147.132L150.289 145.575C150.289 145.575 156.941 162.032 157.139 165.362C157.336 168.692 157.92 219.826 157.92 219.826C157.92 219.826 157.529 222.177 162.027 221.197C166.529 220.217 167.701 219.238 167.701 219.238C167.701 219.238 165.752 204.942 164.831 192.253C169.418 191.467 184.161 183.986 184.161 183.986C186.451 180.389 183.535 176.351 183.535 176.351L183.542 176.354Z" fill="#89B7E3"/>
<path d="M219.663 231.555L217.311 244.906L210.81 281.787L204.997 314.758C204.908 315.258 204.463 315.622 203.945 315.622C203.488 315.622 203.133 315.231 203.195 314.789L208.207 277.412L213.567 237.433L214.376 231.4L219.663 231.551V231.555Z" fill="#264272"/>
<path d="M245.389 231.555L243.038 244.906L236.536 281.787L230.723 314.758C230.634 315.258 230.19 315.622 229.671 315.622C229.215 315.622 228.859 315.231 228.921 314.789L233.933 277.412L239.294 237.433L240.102 231.4L245.389 231.551V231.555Z" fill="#264272"/>
<path d="M217.308 244.906C217.618 239.167 213.564 237.433 213.564 237.433L214.373 231.4L219.66 231.551L217.308 244.902V244.906Z" fill="#264272"/>
<path d="M441.626 315.626C441.108 315.626 440.663 315.262 440.574 314.762L435.411 285.47L427.985 243.342L425.908 231.563L431.195 231.412L432.112 238.25L438.555 286.31L442.376 314.797C442.434 315.238 442.082 315.63 441.626 315.63V315.626Z" fill="#264272"/>
<path d="M432.116 238.242C428.689 239.756 427.985 243.334 427.985 243.334L425.908 231.555L431.195 231.404L432.112 238.242H432.116Z" fill="#264272"/>
<path d="M471.274 315.626C470.756 315.626 470.311 315.262 470.222 314.762L465.059 285.47L457.634 243.342L455.557 231.563L460.844 231.412L461.76 238.25L468.204 286.31L472.025 314.797C472.083 315.238 471.731 315.63 471.274 315.63V315.626Z" fill="#264272"/>
<path d="M461.764 238.242C458.337 239.756 457.634 243.334 457.634 243.334L455.557 231.555L460.844 231.404L461.76 238.242H461.764Z" fill="#264272"/>
<path d="M470.927 226.932H194.257C191.933 226.932 190.049 228.818 190.049 231.144V231.969C190.049 234.296 191.933 236.182 194.257 236.182H470.927C473.251 236.182 475.135 234.296 475.135 231.969V231.144C475.135 228.818 473.251 226.932 470.927 226.932Z" fill="#2C3A64"/>
<path d="M42.552 157.412V315.622H0.86344C0.86344 315.622 0.236894 309.469 0.0512508 299.533C-0.0531735 293.744 -0.0144978 286.67 0.391597 278.779C0.426405 278.136 0.461213 277.482 0.499889 276.827C0.712605 273.211 0.998805 269.432 1.38169 265.54C1.4165 265.196 1.45131 264.847 1.48999 264.499C1.91155 260.429 2.43367 256.197 3.08342 251.852C3.61328 248.321 4.22436 244.708 4.93986 241.038C4.98627 240.782 5.04041 240.523 5.09069 240.263C5.45811 238.397 5.85647 236.519 6.27804 234.618C6.44434 233.874 6.61065 233.131 6.78469 232.383C7.12503 230.928 7.48085 229.464 7.85214 227.996C8.75715 224.403 9.76658 220.783 10.8882 217.155C11.0003 216.787 11.1164 216.411 11.2285 216.035C11.739 214.421 12.2689 212.798 12.822 211.172C13.669 208.702 14.5624 206.231 15.5215 203.765C16.1171 202.216 16.7398 200.675 17.3857 199.13C23.4848 184.517 31.6531 170.213 42.5597 157.408L42.552 157.412Z" fill="#CBE3FF"/>
</g>
<defs>
<clipPath id="clip0_447_794">
<rect width="728" height="317" fill="white"/>
</clipPath>
</defs>
</svg>
