<svg width="1024" height="608" viewBox="0 0 1024 608" fill="none" xmlns="http://www.w3.org/2000/svg">
<path d="M-66.7102 607.652C-66.7102 607.652 996.391 315.934 975.899 216.934C958.393 132.361 388.48 108.771 374.997 79.2633C361.514 49.7552 735.597 0.608643 735.597 0.608643C735.597 0.608643 311.067 40.5077 340.935 92.3949C378.295 157.296 862.144 178.935 823.783 216.295C796.85 242.508 -66.7102 418.195 -66.7102 418.195V607.652Z" fill="url(#paint0_linear_0_1)"/>
<g clip-path="url(#clip0_0_1)">
<path d="M335.406 405.922C335.406 405.922 332.454 407.019 331.356 405.916C330.257 404.814 330.377 402.472 328.906 401.367C327.435 400.262 327.098 398.781 327.582 397.869L329.892 393.517C329.892 393.517 331.379 393.447 330.857 395.249C330.338 397.052 331.898 398.666 333.704 399.493C335.509 400.322 337.71 401.814 337.71 401.814L336.659 405.675L335.407 405.92L335.406 405.922Z" fill="#273E5C"/>
<path d="M345.975 363.222L339.848 374.764C339.812 374.882 339.791 374.976 339.788 375.037C339.749 376.002 342.702 377.262 343.627 377.633C343.799 377.702 343.902 377.74 343.902 377.74C343.902 377.74 349.17 375.338 347.082 373.513C347.017 373.456 346.956 373.399 346.896 373.337C345.036 371.454 345.696 367.765 346.378 365.795C346.899 364.292 346.315 363.521 345.975 363.222Z" fill="#273E5C"/>
<path d="M408.574 399.434C408.574 399.434 400.87 396.135 391.622 392.151C379.056 386.741 363.633 380.072 360.77 378.7C355.796 376.32 347.581 373 347.581 373C347.581 373 344.708 373.944 343.443 378.213C343.443 378.213 352.732 387.547 363.968 394.77C364.154 394.887 364.339 395.005 364.526 395.123C376.011 402.39 400.461 417.188 400.461 417.188L408.577 399.433L408.574 399.434Z" fill="#273E5C"/>
<path d="M408.574 399.434C408.574 399.434 400.87 396.135 391.622 392.151L363.966 394.769C364.152 394.886 364.337 395.004 364.524 395.123C376.009 402.389 400.459 417.187 400.459 417.187L408.575 399.432L408.574 399.434Z" fill="#273E5C"/>
<path d="M406.205 401.782C406.205 401.782 373.6 398.707 357.17 399.345C340.741 399.982 336.026 400.404 336.026 400.404C336.026 400.404 335.412 405.439 336.303 406.401C336.303 406.401 362.018 416.474 370.522 414.721C375.327 413.732 387.066 415.803 390.65 417.511C394.234 419.219 401.61 422.063 401.61 422.063L406.2 401.786L406.205 401.782Z" fill="#273E5C"/>
<path d="M419.541 394.466L418.665 393.188C418.665 393.188 419.944 389.731 416.245 388.905C416.245 388.905 414.664 388.677 414.61 389.791C414.557 390.903 414.754 390.447 414.643 392.022C414.532 393.597 415.227 394.914 416.375 395.158L417.324 395.923L419.541 394.466Z" fill="#273E5C"/>
<path d="M444.412 429.365C447.471 430.358 449.137 431.22 449.137 431.22L450.502 439.168C444.623 435.777 439.618 438.251 439.618 438.251C439.618 438.251 440.057 428.861 443.675 425.217C443.675 425.217 444.417 426.982 444.412 429.365Z" fill="#273E5C"/>
<path d="M449.94 429.946C449.94 429.946 444.992 436.506 448.93 439.459C452.868 442.412 454.881 445.246 458.205 441.183C461.531 437.118 460.63 435.171 459.561 433.848C458.493 432.526 451.33 428.317 449.94 429.946Z" fill="#273E5C"/>
<path d="M448.659 439.255C448.659 439.255 454.487 442.165 458.878 436.122C461.887 431.985 464.033 436.599 464.332 437.411C464.332 437.411 461.89 440.497 459.296 443.605C453.848 450.13 449.106 440.483 448.662 439.254L448.659 439.255Z" fill="#273E5C"/>
<path d="M417.454 394.322C418.906 393.865 420.511 393.805 420.511 393.805C420.511 393.805 425.896 407.103 426.552 408.3C427.207 409.496 440.731 423.014 440.731 423.014L436.521 436.812C436.521 436.812 421.398 415.401 419.795 412.334C417.15 407.266 415.493 395.426 415.493 395.426C415.493 395.426 416.313 394.68 417.454 394.322Z" fill="#273E5C"/>
<path d="M408.214 398.628C408.04 398.703 407.897 398.822 407.805 398.996C406.96 400.637 403.571 404.926 401.833 409.158C400.346 412.714 399.718 416.225 399.393 420.183C399.348 420.709 399.332 421.961 399.802 422.183C400.311 422.434 401.068 422.77 402.021 423.19C405.332 424.657 411.033 427.173 417.159 430.922C418.301 431.619 419.45 432.275 420.599 432.891C429.163 437.479 437.729 439.793 442.176 437.587C442.547 437.394 442.585 434.981 442.685 432.831C442.776 430.848 443.535 429.215 444.622 427.873L444.147 425.698C443.49 423.01 442.341 419.837 439.446 417.185C436.983 414.93 432.061 411.76 426.851 408.689C424.491 407.296 422.096 405.915 419.794 404.663L419.712 404.619C419.493 404.475 419.242 404.342 419.014 404.221C413.119 400.979 408.36 398.565 408.218 398.63L408.214 398.628Z" fill="#273E5C"/>
<path d="M402.018 423.189C405.33 424.656 411.03 427.171 417.157 430.921C418.299 431.618 419.447 432.274 420.596 432.89C424.841 433.24 427.99 433.357 427.99 433.357L429.976 429.617C429.976 429.617 413.454 417.33 402.017 423.191L402.018 423.189Z" fill="#273E5C"/>
<path d="M393.225 421.649L391.479 425.861L392.592 426.311C393.137 426.532 393.391 427.175 393.156 427.742L392.783 428.643L391.31 432.197L390.882 433.231C390.649 433.799 390.013 434.079 389.466 433.858L388.354 433.407L386.609 437.622C386.34 438.267 385.619 438.588 384.996 438.337L376.565 434.923C375.944 434.673 375.656 433.944 375.923 433.298L382.539 417.322C382.807 416.676 383.528 416.356 384.151 416.607L392.581 420.019C393.204 420.27 393.491 420.999 393.224 421.646L393.225 421.649ZM391.059 426.882L388.777 432.391L389.89 432.841C389.89 432.841 389.9 432.841 389.904 432.835L390.384 431.678L391.44 429.132L392.179 427.347C392.179 427.347 392.178 427.335 392.174 427.333L391.063 426.884L391.059 426.882Z" fill="#273E5C"/>
<path d="M397.037 429.877L395.486 429.965C395.486 429.965 393.397 427.074 390.589 429.812C390.589 429.812 389.491 431.051 390.37 431.674C391.249 432.297 390.99 431.89 392.215 432.804C393.44 433.718 394.917 433.807 395.778 432.949L396.952 432.534L397.039 429.878L397.037 429.877Z" fill="#273E5C"/>
<path d="M395.715 431.589C396.177 430.107 397.056 428.7 397.056 428.7C397.056 428.7 411.035 430.994 412.392 431.055C413.748 431.116 432.6 426.555 432.6 426.555L441.458 437.327C441.458 437.327 415.226 439.159 411.793 438.938C406.122 438.572 395.485 433.842 395.485 433.842C395.485 433.842 395.35 432.752 395.713 431.588L395.715 431.589Z" fill="#273E5C"/>
</g>
<g clip-path="url(#clip1_0_1)">
<path d="M302.491 352.569C302.491 352.569 300.076 354.807 300.546 356.398C301.017 357.988 303.198 359.049 303.491 360.993C303.785 362.937 304.965 363.997 306.026 363.997H311.082C311.082 363.997 311.861 362.628 309.977 362.218C308.092 361.804 307.38 359.522 307.5 357.401C307.617 355.28 307.323 352.452 307.323 352.452L303.317 351.509L302.493 352.569H302.491Z" fill="#243859"/>
<path d="M346.285 363.997H332.873C332.749 363.973 332.654 363.945 332.597 363.918C331.703 363.47 331.982 360.05 332.092 358.989C332.112 358.792 332.127 358.675 332.127 358.675C332.127 358.675 336.839 354.904 337.489 357.792C337.509 357.881 337.532 357.969 337.559 358.056C338.371 360.756 342.033 361.984 344.146 362.327C345.76 362.589 346.178 363.527 346.285 363.997Z" fill="#243859"/>
<path d="M343.584 286.71C343.584 286.71 342.867 295.641 342.028 306.374C340.885 320.956 339.508 338.869 339.374 342.262C339.137 348.154 338.194 357.578 338.194 357.578C338.194 357.578 335.956 359.818 331.477 358.872C331.477 358.872 327.486 345.418 326.346 331.182C326.328 330.948 326.311 330.714 326.294 330.478C325.233 315.985 323.585 285.47 323.585 285.47L343.586 286.707L343.584 286.71Z" fill="#1E355B"/>
<path d="M343.584 286.71C343.584 286.71 342.867 295.641 342.028 306.374L326.346 331.185C326.328 330.951 326.311 330.717 326.294 330.48C325.233 315.988 323.585 285.472 323.585 285.472L343.586 286.71H343.584Z" fill="#243859"/>
<path d="M340.315 287.77C340.315 287.77 327.411 320.11 318.927 335.309C310.442 350.508 307.791 354.75 307.791 354.75C307.791 354.75 302.931 352.806 302.488 351.482C302.488 351.482 305.732 322.141 311.413 314.987C314.622 310.945 318.394 298.817 318.571 294.575C318.748 290.334 319.719 281.94 319.719 281.94L340.31 287.772L340.315 287.77Z" fill="#1E355B"/>
<path d="M353.365 278.841L354.102 280.31C354.102 280.31 357.852 280.835 356.821 284.743C356.821 284.743 356.266 286.351 355.23 285.843C354.197 285.335 354.705 285.378 353.223 284.693C351.742 284.009 350.883 282.692 351.214 281.485L350.978 280.205L353.365 278.841Z" fill="#FFB48D"/>
<path d="M333.698 237.849C334.27 234.461 334.29 232.454 334.29 232.454L327.743 227.18C327.986 234.433 323.336 237.921 323.336 237.921C323.336 237.921 332.059 242.215 337.103 240.624C337.103 240.624 335.861 239.038 333.698 237.849Z" fill="#F6A071"/>
<path d="M335.831 232.335C335.831 232.335 327.503 233.719 326.722 228.519C325.94 223.319 324.339 219.996 329.622 218.893C334.907 217.79 336.239 219.617 336.924 221.29C337.609 222.963 337.977 231.84 335.831 232.335Z" fill="#FFB48D"/>
<path d="M326.777 228.877C326.777 228.877 326.943 221.913 334.534 220.795C339.732 220.028 336.583 215.687 335.991 214.998C335.991 214.998 332.017 215.757 327.952 216.648C319.415 218.522 325.878 227.839 326.779 228.875L326.777 228.877Z" fill="#4A2009"/>
<path d="M352.492 280.885C353.604 279.742 354.431 278.256 354.431 278.256C354.431 278.256 344.968 266.502 344.199 265.282C343.429 264.063 337.683 244.51 337.683 244.51L323.149 241.567C323.149 241.567 335.281 266.589 337.29 269.641C340.611 274.682 350.547 282.184 350.547 282.184C350.547 282.184 351.618 281.783 352.492 280.885Z" fill="#1C6EF6"/>
<path d="M344.141 287.454C343.99 287.581 343.813 287.656 343.611 287.656C341.717 287.631 336.197 288.681 331.524 288.201C327.586 287.822 324.1 286.655 320.356 284.977C319.858 284.756 318.715 284.143 318.74 283.588C318.758 282.981 318.817 282.097 318.895 280.987C319.158 277.124 319.621 270.477 319.171 262.811C319.089 261.382 319.046 259.968 319.041 258.574C319.004 248.184 321.028 238.931 325.168 235.837C325.522 235.583 327.728 236.758 329.724 237.742C331.567 238.65 333.411 238.752 335.152 238.399L336.894 239.937C339.015 241.906 341.338 244.582 342.349 248.647C343.208 252.104 343.713 258.342 343.99 264.804C344.117 267.732 344.216 270.686 344.244 273.489V273.589C344.268 273.868 344.268 274.171 344.268 274.448C344.371 281.642 344.268 287.347 344.141 287.449V287.454Z" fill="#125DD8"/>
<path d="M318.894 280.989C319.158 277.126 319.621 270.48 319.171 262.813C319.089 261.384 319.046 259.97 319.041 258.576C320.767 254.392 322.176 251.358 322.176 251.358H326.522C326.522 251.358 329.709 273.126 318.892 280.989H318.894Z" fill="#1C6EF6"/>
<path d="M316.059 290.068L311.401 289.605L311.528 288.328C311.59 287.703 311.129 287.14 310.502 287.078L309.506 286.978L305.575 286.588L304.432 286.473C303.805 286.408 303.245 286.869 303.183 287.496L303.056 288.773L298.395 288.308C297.681 288.238 297.043 288.758 296.971 289.473L296.008 299.148C295.935 299.86 296.458 300.497 297.173 300.57L314.839 302.332C315.553 302.402 316.191 301.881 316.263 301.167L317.226 291.494C317.299 290.779 316.776 290.142 316.061 290.07L316.059 290.068ZM310.273 289.49L304.181 288.883L304.308 287.606C304.308 287.606 304.313 287.596 304.32 287.596L305.6 287.723L308.416 288.001L310.39 288.198C310.39 288.198 310.4 288.206 310.4 288.211L310.273 289.485V289.49Z" fill="#243859"/>
<path d="M310.435 282.341L309.608 283.762C309.608 283.762 311.224 287.185 307.39 288.464C307.39 288.464 305.739 288.88 305.597 287.738C305.456 286.595 305.7 287.043 305.461 285.428C305.222 283.812 305.851 282.373 307.044 281.99L307.985 281.089L310.435 282.338V282.341Z" fill="#FFB48D"/>
<path d="M308.246 282.732C309.812 283.038 311.51 282.913 311.51 282.913C311.51 282.913 316.158 268.558 316.756 267.246C317.353 265.934 330.56 250.414 330.56 250.414L325.058 236.646C325.058 236.646 310.773 260.505 309.322 263.858C306.924 269.399 306.093 281.818 306.093 281.818C306.093 281.818 307.016 282.493 308.246 282.734V282.732Z" fill="#125DD8"/>
</g>
<defs>
<linearGradient id="paint0_linear_0_1" x1="454.74" y1="0.608643" x2="454.74" y2="607.652" gradientUnits="userSpaceOnUse">
<stop stop-color="#EDEDED"/>
<stop offset="0.355" stop-color="#558DE9"/>
<stop offset="1" stop-color="#082452"/>
</linearGradient>
<clipPath id="clip0_0_1">
<rect width="59.4344" height="139.326" fill="white" transform="matrix(0.468897 -0.883253 -0.883253 -0.468897 446.06 471.825)"/>
</clipPath>
<clipPath id="clip1_0_1">
<rect width="61" height="149" fill="white" transform="translate(296 215)"/>
</clipPath>
</defs>
</svg>
