<svg width="643" height="333" viewBox="0 0 643 333" fill="none" xmlns="http://www.w3.org/2000/svg">
<g clip-path="url(#clip0_27_18307)">
<path d="M37.3331 332.111C37.3622 332.133 617.541 332.043 617.541 332.043C617.541 332.043 619.219 328.605 621.318 324.106C622.875 320.773 624.804 316.344 626.808 311.018C627.182 310.026 627.559 309.003 627.934 307.951C628.461 306.473 628.99 304.94 629.515 303.349C629.709 302.76 629.903 302.163 630.096 301.56C631.256 297.937 632.384 294.047 633.424 289.934C633.496 289.648 633.568 289.358 633.64 289.068C634.029 287.493 634.404 285.885 634.767 284.247C634.968 283.337 635.16 282.417 635.351 281.491L635.39 281.301C635.46 280.956 635.528 280.612 635.596 280.266C636.9 273.654 637.909 266.606 638.424 259.25C638.516 257.957 638.59 256.652 638.65 255.335C638.712 254.009 638.755 252.673 638.78 251.327C638.941 242.976 638.418 234.308 636.947 225.502C636.371 222.054 635.65 218.582 634.767 215.101C634.122 212.557 633.391 210.013 632.565 207.462C632.411 206.987 632.26 206.513 632.096 206.036C630.189 200.355 627.815 194.678 624.915 189.04C624.656 188.535 624.39 188.025 624.118 187.518C621.942 183.432 619.481 179.369 616.715 175.351C616.433 174.938 616.145 174.528 615.853 174.118C614.24 171.831 612.523 169.559 610.698 167.303C608.044 164.014 605.155 160.765 602.033 157.56C597.707 153.121 593.419 149.098 589.169 145.457C587.421 143.952 585.677 142.516 583.941 141.141C582.454 139.959 580.969 138.827 579.493 137.742C579.409 137.68 579.324 137.619 579.24 137.557C575.821 135.042 572.43 132.767 569.073 130.709C568.386 130.291 567.704 129.879 567.018 129.474C563.723 127.532 560.458 125.799 557.227 124.253C556.522 123.914 555.818 123.585 555.116 123.267C533.01 113.202 512.519 111.891 494.394 113.56C480.381 114.849 467.778 117.922 456.938 120.114C456.226 120.258 455.522 120.398 454.826 120.534C447.769 121.905 441.504 122.808 436.126 122.457C427.545 121.897 420.546 116.679 413.027 108.986C412.478 108.426 411.928 107.854 411.374 107.266C406.992 102.634 402.385 97.2312 397.149 91.4784C396.195 90.4282 395.219 89.3683 394.217 88.2967C392.24 86.1807 390.17 84.0259 387.992 81.8555C387.656 81.519 387.32 81.1864 386.978 80.85C386.243 80.1285 385.492 79.403 384.73 78.6776C384.394 78.3567 384.058 78.0358 383.715 77.7169C381.241 75.3948 378.628 73.0688 375.854 70.7622C363.886 60.8106 348.908 51.2187 329.092 43.8828C329.083 43.8789 329.073 43.877 329.065 43.8731C320.694 40.775 311.458 38.0814 301.22 35.9344C289.973 33.5733 277.893 31.8113 265.491 30.7806C262.503 30.5316 259.496 30.3255 256.479 30.1641C253.24 29.991 249.987 29.8685 246.731 29.8004C244.777 29.7595 242.819 29.7381 240.864 29.7362C236.025 29.7284 231.184 29.8451 226.372 30.0902C224.664 30.1757 222.961 30.2769 221.263 30.3955C200.446 31.8561 180.389 35.7982 163.464 42.8443C151.593 47.7822 106.871 69.8812 93.7486 107.265C89.6038 119.064 88.6104 132.384 92.7882 147.166C107.577 199.482 85.0605 205.993 56.8867 230.924C19.2822 264.196 7.17439 309.092 37.335 332.107L37.3331 332.111Z" fill="#D9E9FC"/>
<path d="M186.524 133.86H62.2324V206.888H186.524V133.86Z" fill="#1049A4"/>
<path d="M562.18 119.377H419.705V333H562.18V119.377Z" fill="#8CB7EA"/>
<path d="M356.964 105.59H186.514V332.467H356.964V105.59Z" fill="#8CB7EA"/>
<path d="M423.375 29.5107H179.717V140.167H423.375V29.5107Z" fill="#1049A4"/>
<path d="M309.383 125.865L437.483 4.70459L565.581 125.865H309.383Z" fill="#8CB7EA"/>
<path d="M575.959 137.773C574.814 137.773 573.667 137.359 572.761 136.519L437.482 18.7792C394.393 58.0257 344.344 95.8272 342.84 96.8288C340.684 98.2699 337.76 97.6903 336.317 95.5199C334.927 93.4331 335.423 90.6404 337.402 89.1506C340.503 86.5854 396.955 35.2577 434.315 1.22335C436.125 -0.421972 438.895 -0.404469 440.68 1.25057L579.157 129.611C581.063 131.379 581.175 134.358 579.412 136.264C578.483 137.266 577.221 137.771 575.959 137.771V137.773Z" fill="#1049A4"/>
<path d="M442.188 105.59H271.738V332.467H442.188V105.59Z" fill="#B1CDEF"/>
<path d="M271.738 105.59L356.961 24.9812L442.186 105.59H271.738Z" fill="#B1CDEF"/>
<path d="M381.621 132.322V176.226H331.553V133.17C331.553 125.733 334.722 119.049 339.803 114.402C340.618 113.65 341.497 112.959 342.407 112.331C343.285 111.672 344.226 111.106 345.198 110.604C348.711 108.753 352.728 107.716 356.993 107.716C361.258 107.716 365.244 108.784 368.726 110.731C369.698 111.201 370.639 111.798 371.517 112.487C372.334 113.053 373.117 113.712 373.87 114.4C378.639 118.887 381.619 125.258 381.619 132.32L381.621 132.322Z" fill="#BAD5F5"/>
<path d="M382.452 125.733H330.92L331.717 123.613C333.187 119.69 335.617 116.108 338.747 113.245C339.587 112.469 340.52 111.728 341.519 111.042C342.338 110.423 343.323 109.809 344.478 109.212C348.277 107.21 352.608 106.15 356.992 106.15C361.376 106.15 365.676 107.232 369.491 109.361C370.47 109.836 371.503 110.485 372.485 111.252C373.204 111.748 374.028 112.417 374.93 113.247C378.016 116.162 380.358 119.754 381.719 123.646L382.452 125.733ZM335.57 122.594H377.909C376.68 119.98 374.94 117.57 372.792 115.542C372.111 114.918 371.386 114.303 370.622 113.776C369.745 113.09 368.9 112.559 368.04 112.142C364.621 110.233 360.929 109.285 356.992 109.285C353.055 109.285 349.29 110.221 345.93 111.991C344.923 112.512 344.083 113.029 343.354 113.584C342.419 114.223 341.603 114.873 340.866 115.554C338.673 117.559 336.871 119.957 335.568 122.59L335.57 122.594Z" fill="#AACAF7"/>
<path d="M405.514 124.173H307.664V176.217H405.514V124.173Z" fill="#BAD5F5"/>
<path d="M358.159 124.171H355.021V176.215H358.159V124.171Z" fill="#AACAF7"/>
<path d="M403.373 140.156H308.82V141.725H403.373V140.156Z" fill="#AACAF7"/>
<path d="M403.373 157.256H308.82V158.826H403.373V157.256Z" fill="#AACAF7"/>
<path d="M336.396 124.171H333.258V176.215H336.396V124.171Z" fill="#AACAF7"/>
<path d="M379.923 124.171H376.785V176.215H379.923V124.171Z" fill="#AACAF7"/>
<path d="M405.517 124.171H402.379V176.215H405.517V124.171Z" fill="#AACAF7"/>
<path d="M310.802 124.171H307.664V176.215H310.802V124.171Z" fill="#AACAF7"/>
<path d="M405.52 173.079H307.67V176.218H405.52V173.079Z" fill="#AACAF7"/>
<path d="M405.52 124.171H307.67V127.31H405.52V124.171Z" fill="#AACAF7"/>
<path d="M371.519 112.489L356.744 128.148L342.408 112.331C343.287 111.672 344.228 111.106 345.2 110.604L356.775 123.378L368.727 110.73C369.699 111.201 370.64 111.798 371.519 112.487V112.489Z" fill="#AACAF7"/>
<path d="M405.514 228.583H307.664V280.626H405.514V228.583Z" fill="#BAD5F5"/>
<path d="M358.159 228.581H355.021V280.624H358.159V228.581Z" fill="#AACAF7"/>
<path d="M403.373 244.565H308.82V246.134H403.373V244.565Z" fill="#AACAF7"/>
<path d="M403.373 261.666H308.82V263.235H403.373V261.666Z" fill="#AACAF7"/>
<path d="M336.396 228.581H333.258V280.624H336.396V228.581Z" fill="#AACAF7"/>
<path d="M379.923 228.581H376.785V280.624H379.923V228.581Z" fill="#AACAF7"/>
<path d="M405.517 228.581H402.379V280.624H405.517V228.581Z" fill="#AACAF7"/>
<path d="M310.802 228.581H307.664V280.624H310.802V228.581Z" fill="#AACAF7"/>
<path d="M405.52 277.489H307.67V280.628H405.52V277.489Z" fill="#AACAF7"/>
<path d="M405.52 228.581H307.67V231.72H405.52V228.581Z" fill="#AACAF7"/>
<path d="M253.175 228.583H209.809V280.626H253.175V228.583Z" fill="#BAD5F5"/>
<path d="M253.177 228.581H250.482V280.624H253.177V228.581Z" fill="#AACAF7"/>
<path d="M252.225 244.565H210.32V246.134H252.225V244.565Z" fill="#AACAF7"/>
<path d="M252.225 261.666H210.32V263.235H252.225V261.666Z" fill="#AACAF7"/>
<path d="M232.62 228.581H229.926V280.624H232.62V228.581Z" fill="#AACAF7"/>
<path d="M212.503 228.581H209.809V280.624H212.503V228.581Z" fill="#AACAF7"/>
<path d="M253.177 277.489H209.811V280.628H253.177V277.489Z" fill="#AACAF7"/>
<path d="M253.177 228.581H209.811V231.72H253.177V228.581Z" fill="#AACAF7"/>
<path d="M253.175 154.054H209.809V206.097H253.175V154.054Z" fill="#BAD5F5"/>
<path d="M253.177 154.051H250.482V206.095H253.177V154.051Z" fill="#AACAF7"/>
<path d="M252.225 170.036H210.32V171.605H252.225V170.036Z" fill="#AACAF7"/>
<path d="M252.225 187.136H210.32V188.706H252.225V187.136Z" fill="#AACAF7"/>
<path d="M232.62 154.051H229.926V206.095H232.62V154.051Z" fill="#AACAF7"/>
<path d="M212.503 154.051H209.809V206.095H212.503V154.051Z" fill="#AACAF7"/>
<path d="M253.177 202.96H209.811V206.099H253.177V202.96Z" fill="#AACAF7"/>
<path d="M253.177 154.051H209.811V157.19H253.177V154.051Z" fill="#AACAF7"/>
<path d="M523.132 114.134H479.766V166.177H523.132V114.134Z" fill="#BAD5F5"/>
<path d="M523.134 114.134H520.439V166.177H523.134V114.134Z" fill="#AACAF7"/>
<path d="M522.182 130.116H480.277V131.686H522.182V130.116Z" fill="#AACAF7"/>
<path d="M522.182 147.217H480.277V148.787H522.182V147.217Z" fill="#AACAF7"/>
<path d="M502.577 114.134H499.883V166.177H502.577V114.134Z" fill="#AACAF7"/>
<path d="M482.46 114.134H479.766V166.177H482.46V114.134Z" fill="#AACAF7"/>
<path d="M523.134 163.04H479.768V166.179H523.134V163.04Z" fill="#AACAF7"/>
<path d="M523.134 114.134H479.768V117.273H523.134V114.134Z" fill="#AACAF7"/>
<path d="M259.715 117.895C258.195 117.895 256.704 117.16 255.796 115.797C254.406 113.71 254.901 110.917 256.881 109.427C259.983 106.862 316.434 55.5343 353.793 21.5C355.601 19.8546 358.37 19.8721 360.16 21.5272L455.318 109.733C457.223 111.5 457.336 114.48 455.572 116.386C453.801 118.298 450.827 118.405 448.922 116.641L355.916 41.1388C315.551 75.8363 263.823 116.102 262.32 117.103C261.521 117.64 260.613 117.895 259.717 117.895H259.715Z" fill="#1E56B1"/>
<path d="M186.513 206.898H69.1855V331.615H186.513V206.898Z" fill="#B1CDEF"/>
<path d="M490.39 242.121H497.984C508.363 242.121 516.789 250.551 516.789 260.933V319.132H471.363V261.153C471.363 250.649 479.888 242.121 490.388 242.121H490.39Z" fill="#B5D4F9"/>
<path d="M512.472 265.291V266.295H475.674V265.478C475.674 255.719 483.579 247.809 493.336 247.809H494.998C504.66 247.809 512.472 255.624 512.472 265.289V265.291Z" fill="#AACAF7"/>
<path d="M512.472 271.999H475.674V286.793H512.472V271.999Z" fill="#AACAF7"/>
<path d="M512.472 291.679H475.674V315.861H512.472V291.679Z" fill="#AACAF7"/>
<path d="M528.096 318.29H460.061V323.192H528.096V318.29Z" fill="#B5D4F9"/>
<path d="M533.851 323.192H454.305V328.095H533.851V323.192Z" fill="#B5D4F9"/>
<path d="M538.581 328.095H449.576V332.998H538.581V328.095Z" fill="#B5D4F9"/>
<path d="M160.572 229.804H101.285V300.954H160.572V229.804Z" fill="#BAD5F5"/>
<path d="M160.577 229.802H156.893V300.953H160.577V229.802Z" fill="#AACAF7"/>
<path d="M159.273 251.656H101.984V253.801H159.273V251.656Z" fill="#AACAF7"/>
<path d="M159.273 275.033H101.984V277.178H159.273V275.033Z" fill="#AACAF7"/>
<path d="M132.473 229.802H128.789V300.953H132.473V229.802Z" fill="#AACAF7"/>
<path d="M104.969 229.802H101.285V300.953H104.969V229.802Z" fill="#AACAF7"/>
<path d="M160.576 296.665H101.289V300.955H160.576V296.665Z" fill="#AACAF7"/>
<path d="M160.576 229.802H101.289V234.092H160.576V229.802Z" fill="#AACAF7"/>
<path d="M146.526 206.888H62.2324V133.86H114.089L146.526 206.888Z" fill="#1E56B1"/>
<path d="M246.065 140.167H179.715V29.5107H204.656C211.777 49.2196 233.611 107.183 246.065 140.167Z" fill="#1E56B1"/>
<path d="M596.069 331.292H579.834C578.963 330.553 580.437 328.877 581.974 328.764C582.643 328.713 583.487 328.853 584.453 329.058C584.677 326.088 585.952 312.744 590.762 313.279C596.168 313.88 590.762 319.157 589.234 322.28C588.102 324.594 586.907 327.912 586.36 329.478C586.8 329.573 587.255 329.666 587.717 329.752C588.435 327.55 591.1 320.146 594.49 320.578C598.472 321.084 596.872 324.052 594.049 325.814C591.979 327.109 589.436 328.951 588.228 329.841C589.251 330.009 590.32 330.121 591.403 330.096C594.183 330.03 595.542 330.851 596.069 331.29V331.292Z" fill="#82B378"/>
<path d="M186.533 288.374V331.677L84.2598 331.707C84.2598 331.707 87.5297 320.098 100.413 313.754C101.636 313.128 102.974 312.56 104.395 312.076C106.102 311.478 107.921 310.994 109.883 310.595C109.912 310.595 109.939 310.595 109.968 310.566C110.851 310.395 111.703 310.168 112.529 309.884C130.731 303.765 131.556 275.456 183.801 287.691C184.74 287.919 185.65 288.146 186.531 288.374H186.533Z" fill="#82B378"/>
<path d="M108.062 316.535C108.062 316.535 92.7324 296.165 85.8678 301.657C79.0032 307.151 108.062 316.535 108.062 316.535Z" fill="#82B378"/>
<path d="M112.638 314.476C112.638 313.56 112.868 294.792 106.46 296.165C100.054 297.538 112.638 314.476 112.638 314.476Z" fill="#82B378"/>
<path d="M256.781 331.183C256.781 331.183 264.103 315.582 280.577 315.372C297.051 315.162 306.14 295.936 321.5 296.852C336.86 297.768 338.692 312.836 349.674 315.372C360.656 317.908 390.857 312.447 392.689 332.115L256.781 331.183Z" fill="#AFD295"/>
<path d="M292.246 315.372C292.246 315.162 280.348 293.125 276.001 296.819C271.654 300.512 292.246 315.372 292.246 315.372Z" fill="#AFD295"/>
<path d="M287.899 316.076C287.899 316.076 277.259 309.553 272.226 311.156C267.193 312.758 287.899 316.076 287.899 316.076Z" fill="#AFD295"/>
<path d="M313.867 302.688C313.981 302.002 313.637 284.72 307.918 286.894C302.198 289.068 313.867 302.688 313.867 302.688Z" fill="#AFD295"/>
<path d="M317.298 299.483C317.528 299.139 320.959 289.87 318.441 289.87C315.924 289.87 317.526 299.139 317.526 299.139L317.296 299.483H317.298Z" fill="#AFD295"/>
<path d="M419.409 112.984C419.409 112.984 410.165 117.358 408.065 116.808C405.965 116.256 397.987 114.848 396.865 115.343C396.865 115.343 395.594 117.37 396.554 118.704C397.513 120.038 405.275 123.646 408.079 123.776C410.882 123.906 421.528 121.977 423.785 120.213L419.407 112.984H419.409Z" fill="#E8945B"/>
<path d="M397.146 115.384C397.146 115.384 393.583 113.904 392.416 115.557C391.25 117.21 390.587 118.885 390.733 119.733C390.877 120.581 393.283 120.952 394.248 120.295C395.21 119.636 397.594 118.716 397.594 118.716L397.148 115.384H397.146Z" fill="#E8945B"/>
<path d="M401.742 117.323C401.742 117.323 405.864 133.965 411.943 146.404C413.648 149.893 415.506 153.052 417.472 155.42C418.424 156.568 419.4 157.53 420.396 158.254C430.785 165.804 447.177 153.759 447.177 153.759C447.765 146.441 434.502 134.158 426.02 126.82C422.69 123.938 420.098 121.818 419.371 121.061C417.964 119.593 414.964 118.704 411.83 118.163C406.947 117.317 401.74 117.321 401.74 117.321L401.742 117.323Z" fill="#AACAF7"/>
<path d="M380.109 322.922C380.109 322.922 382.077 326.107 382.12 329.801C382.129 330.623 381.459 331.292 380.636 331.292H368.371C367.183 331.292 366.306 330.174 366.6 329.023C367.172 326.776 368.394 323.381 370.844 321.319C374.752 318.032 380.111 322.92 380.111 322.92L380.109 322.922Z" fill="#163560"/>
<path d="M399.516 319.662C399.516 319.662 400.221 331.04 402.42 331.203C402.712 331.224 413.579 331.224 413.579 331.224H427.596C427.596 331.224 427.361 327.799 423.305 327.093C419.25 326.388 412.463 323.536 410.008 318.175C407.424 312.535 399.516 319.662 399.516 319.662Z" fill="#163560"/>
<path d="M393.644 249.382C394.134 255.703 394.198 260.691 393.551 263.056C390.658 273.636 398.765 321.415 398.765 321.415C404.741 324.274 413.229 321.384 413.229 321.384C412.714 314.765 415.859 255.518 418.785 219.376C420.01 204.202 420.929 193.584 420.929 193.584L385.129 189.414C385.129 189.414 391.951 227.429 393.646 249.38L393.644 249.382Z" fill="#4A6CBF"/>
<path d="M385.127 189.416C385.127 189.416 391.949 227.431 393.644 249.383L418.783 219.378C420.008 204.204 420.927 193.586 420.927 193.586L385.127 189.416Z" fill="#4A6CBF"/>
<path d="M402.689 197.524C402.689 197.524 384.568 303.083 381.45 323.523C381.45 323.523 374.665 325.417 367.732 322.48C367.732 322.48 366.836 273.428 369.208 258.651C371.58 243.875 367.944 198.195 371.768 193.947C375.592 189.698 402.689 197.522 402.689 197.522V197.524Z" fill="#4F75D0"/>
<path d="M400.823 107.508C400.823 107.508 402.213 116.889 401.604 119.69C400.996 122.49 391.68 124.015 387.782 121.701C383.884 119.387 385.056 118.525 385.056 118.525C385.056 118.525 385.651 107.786 386.197 107.019C386.743 106.253 400.821 107.508 400.821 107.508H400.823Z" fill="#FFB27D"/>
<path d="M369.665 199.004C369.665 199.004 372.284 200.538 378.859 201.835C383.686 202.788 390.642 203.613 400.262 203.613C417.856 203.613 423.647 198.597 423.647 198.597C424.594 198.613 420.323 174.151 420.323 153.267C420.323 133.953 414.669 119.494 404.924 117.8C403.018 117.469 401.743 117.269 401.743 117.325C401.743 118.912 399.243 121.841 395.392 122.094C390.821 122.393 385.154 119.96 385.154 117.325C385.154 117.199 374.491 117.852 371.089 137.433C369.926 144.105 369.611 152.974 370.844 164.759C371.269 168.828 368.202 198.984 369.667 199.006L369.665 199.004Z" fill="#245FC0"/>
<path d="M369.665 199.004C369.665 199.004 372.284 200.538 378.859 201.835C387.95 197.808 405.993 187.397 406.697 169.917C407.632 146.665 379.254 132.818 379.254 132.818C379.254 132.818 375.447 134.934 371.085 137.431C369.922 144.103 369.607 152.972 370.84 164.757C371.265 168.826 368.198 198.982 369.664 199.004H369.665Z" fill="#2054AB"/>
<path d="M400.971 108.566C400.971 108.566 397.357 113.661 393.536 113.708C389.716 113.753 385.814 108.647 385.814 108.647L400.971 108.568V108.566Z" fill="#E8945B"/>
<path d="M401.321 108.311C400.319 109.098 398.084 110.186 396.256 110.905C394.87 111.452 393.334 111.483 391.925 110.997C389.815 110.269 386.623 109.131 385.814 108.645C383.901 107.484 384.024 105.137 383.927 101.871C383.808 98.0071 383.419 94.9712 383.851 92.7425C384.364 90.0761 386.054 88.5611 390.784 88.1488C399.466 87.3942 403.084 89.5705 403.235 92.4819C403.274 93.2637 403.311 94.0086 403.337 94.7165C403.685 103.799 402.967 107.019 401.322 108.313L401.321 108.311Z" fill="#FFB27D"/>
<path d="M403.286 93.5536C403.286 93.5536 401.865 91.4571 399.192 92.2797C396.519 93.1024 396.247 95.3856 391.678 95.0219C387.111 94.6563 386.015 92.4936 385.192 93.575C384.37 94.6563 383.896 101.043 383.896 101.043C383.896 101.043 374.714 80.0974 393.325 80.0974C393.325 80.0974 412.505 78.9382 403.286 100.228V93.5536Z" fill="#444444"/>
<path d="M437.102 113.391L437.076 113.405C437.098 113.415 437.102 113.391 437.102 113.391Z" fill="#FFB27D"/>
<path d="M447.133 83.4638C447.288 83.1157 447.399 82.8882 447.399 82.8882C447.283 83.0496 447.195 83.2441 447.133 83.4638Z" fill="#D35C2B"/>
<path d="M394.268 177.805C394.268 177.805 396.703 179.725 400.265 179.725C400.265 179.725 403.899 175.718 406.961 171.844C408.944 169.335 410.683 166.881 411.043 165.605C411.957 162.363 429.049 161.449 431.143 159.166C433.239 156.881 422.649 151.151 422.649 151.151C422.649 151.151 405.296 153.806 402.687 157.217C401.649 158.575 400.104 162.112 398.618 165.881C396.373 171.582 394.266 177.807 394.266 177.807L394.268 177.805Z" fill="#E8945B"/>
<path d="M418.556 130.215C418.556 130.215 415.267 123.829 413.642 124.013C412.016 124.2 417.376 137.234 417.862 143.571C418.35 149.907 418.554 130.215 418.554 130.215H418.556Z" fill="#2054AB"/>
<path d="M408.265 174.188C410.547 179.715 413.502 184.752 413.879 185.388C413.904 185.431 413.92 185.456 413.92 185.456H413.972C414.526 185.45 419.29 185.347 419.756 183.434C419.756 183.434 419.91 176.811 419.647 171.549C419.529 169.197 419.328 167.118 418.994 166.022C418.994 166.022 444.833 165.848 444.38 158.536C443.927 151.223 430.418 147.355 422.653 151.148C422.653 151.148 412.355 154.889 406.935 159.835C404.273 162.264 405.91 168.484 408.267 174.186L408.265 174.188Z" fill="#FFB27D"/>
<path d="M443.61 148.285C443.61 148.285 447.051 153.343 446.244 158.063C445.438 162.783 435.622 165.306 428.753 165.605C428.753 165.605 409.107 161.101 412.153 153.265C412.843 151.488 443.61 148.285 443.61 148.285Z" fill="#9AACD9"/>
<path d="M436.475 86.1205C436.475 86.1205 439.596 79.5567 447.133 83.4639C454.67 87.371 447.331 102.264 451.287 105.944C455.244 109.624 449.855 112.031 450.658 114.67C451.46 117.308 449.166 120.309 443.892 119.956C438.618 119.604 433.064 119.888 430.682 115.271C428.299 110.656 428.841 100.499 429.761 99.0711C430.682 97.6436 436.475 86.1224 436.475 86.1224V86.1205Z" fill="#444444"/>
<path d="M424.26 121.141L437.075 113.404C437.005 113.375 436.745 112.988 435.786 110.217C435.378 109.034 435.162 108.01 435.055 107.195C435.046 107.113 435.034 107.035 435.026 106.957C434.894 105.775 434.991 105.094 434.991 105.094L432.184 106.109L426.991 107.992C427.051 109.309 426.867 110.236 426.587 110.872C425.908 112.416 424.645 112.428 424.61 112.428L424.258 121.145L424.26 121.141Z" fill="#FFB27D"/>
<path d="M426.59 110.87C431.608 111.296 434.434 108.023 435.058 107.197C435.15 107.076 435.196 107.008 435.196 107.008C435.196 107.008 435.136 106.99 435.029 106.959C434.621 106.839 433.513 106.504 432.187 106.111L426.994 107.994C427.054 109.311 426.87 110.238 426.59 110.874V110.87Z" fill="#FFB27D"/>
<path d="M426.337 109.066C426.337 109.066 437.487 110.291 437.714 102.749C437.942 95.2067 439.59 91.7566 431.876 91.0837C424.162 90.4108 422.34 93.1919 421.885 95.7435C420.466 103.715 423.196 108.727 426.335 109.066H426.337Z" fill="#FFB27D"/>
<path d="M431.279 94.769C435.224 93.7694 433.715 100.763 434.712 100.283C435.828 99.7478 437.745 99.7555 437.442 101.101C437.139 102.449 436.703 102.929 436.476 103.772C436.248 104.612 436.476 106.278 437.395 105.942C438.313 105.606 446.843 95.8601 440.821 88.2694C434.796 80.6788 416.832 85.3541 422.49 93.2948C423.485 94.6912 428.472 95.4789 431.281 94.7671L431.279 94.769Z" fill="#444444"/>
<path d="M416.96 151.144C416.96 151.144 420.31 152.921 425.584 152.838C428.943 152.787 436.08 151.327 440.668 149.67C443.283 148.728 445.07 147.721 444.856 146.877C444.547 145.659 442.307 136.311 440.238 127.66C438.347 119.75 436.597 112.424 436.597 112.424C436.597 112.424 431.375 116.135 428.333 114.826C425.29 113.515 425.681 112.035 425.681 112.035C425.681 112.035 422.096 111.596 421.124 111.711C419.571 111.893 414.089 113.893 414.089 113.893C414.089 113.893 413.367 115.919 415.278 119.081C416.861 121.701 418.4 122.209 418.4 122.209C418.4 122.209 413.919 136.342 416.962 151.144H416.96Z" fill="#5088E6"/>
<path d="M433.738 138.526C433.738 138.526 430.519 137.925 429.259 138.749C427.999 139.574 427.628 140.865 428.534 141.392C431.376 143.045 434.257 141.217 434.257 141.217L433.738 138.526Z" fill="#FFB27D"/>
<path d="M440.667 149.669C443.282 148.728 445.069 147.721 444.855 146.877C444.546 145.659 442.306 136.31 440.238 127.66C439.627 126.538 439.239 125.869 439.239 125.869C439.239 125.869 435.313 143.825 440.669 149.669H440.667Z" fill="#639AF6"/>
<path d="M436.465 113.434C436.465 113.434 446.384 115.534 450.295 130.958C450.678 132.468 450.282 134.078 449.24 135.235C447.441 137.228 443.475 140.146 434.256 141.217C433.249 141.334 433.115 138.78 433.115 138.78C433.214 138.985 439.379 134.797 442.002 132.547C442.476 132.141 442.457 131.287 442.114 130.764C441.228 129.41 439.741 127.071 439.241 125.871C438.512 124.118 433.697 114.231 436.467 113.436L436.465 113.434Z" fill="#FFB27D"/>
<path d="M436.594 112.424C436.594 112.424 442.424 112.839 447.179 119.181C447.179 119.181 445.569 125.015 438.017 126.571C438.017 126.571 433.361 116.067 436.594 112.422V112.424Z" fill="#5088E6"/>
<path d="M408.264 174.188C410.546 179.715 413.501 184.752 413.878 185.388C413.909 185.409 413.94 185.431 413.971 185.456C414.526 185.45 419.289 185.347 419.755 183.433C419.755 183.433 419.909 176.811 419.646 171.549C418.888 172.276 415.962 174.446 408.264 174.188Z" fill="#EBF2F9"/>
<path d="M394.266 177.805C394.266 177.805 396.702 179.725 400.263 179.725C400.263 179.725 403.897 175.718 406.959 171.844C403.514 170.354 399.874 167.072 398.618 165.879C396.373 171.58 394.266 177.805 394.266 177.805Z" fill="#EBF2F9"/>
<path d="M406.566 192.605C406.673 193.208 407.268 193.597 407.869 193.475C409.296 193.183 411.878 192.633 412.949 192.242C414.467 191.689 417.379 189.968 418.898 189.416C419.419 189.225 420.675 188.72 421.485 188.389C421.915 188.214 422.144 187.743 422.014 187.296C421.744 186.37 421.225 184.793 420.482 183.472C420.344 183.227 420.124 183.045 419.848 182.91C419.061 183.542 417.819 184.239 416.157 184.245C414.796 184.25 413.666 183.916 412.826 183.542C412.723 183.754 410.653 187.932 409.185 188.465C407.865 188.945 406.137 190.205 406.564 192.603L406.566 192.605Z" fill="#1B243A"/>
<path d="M384.89 177.854C384.6 178.395 384.828 179.067 385.374 179.344C386.675 179.999 389.045 181.166 390.126 181.524C391.659 182.031 395.013 182.484 396.547 182.99C397.074 183.165 398.372 183.544 399.214 183.788C399.661 183.916 400.132 183.688 400.307 183.259C400.668 182.364 401.236 180.804 401.471 179.309C401.516 179.032 401.456 178.75 401.322 178.474C400.311 178.482 398.905 178.258 397.597 177.235C396.525 176.397 395.843 175.435 395.417 174.622C395.205 174.725 390.993 176.72 389.511 176.232C388.178 175.792 386.041 175.711 384.892 177.858L384.89 177.854Z" fill="#1B243A"/>
<path d="M405.797 169.499C405.797 169.499 406.541 173.81 409.343 175.794C409.343 175.794 420.722 174.229 431.315 171.547C439.103 169.577 446.469 167.006 448.575 164.011C453.551 156.945 445.971 148.345 445.971 148.345C445.971 148.345 431.362 155.397 415.546 164.038C412.308 165.808 409.02 167.643 405.797 169.499Z" fill="#245FC0"/>
<path d="M422.917 175.794C422.917 175.794 426.296 176.068 427.575 177.348C428.855 178.628 430.791 182.348 429.413 183.822C428.032 185.297 421.457 182.064 421.273 181.533C421.09 181.002 422.917 175.794 422.917 175.794Z" fill="#FFB27D"/>
<path d="M405.797 169.499C405.797 169.499 406.541 173.811 409.343 175.794C409.343 175.794 420.722 174.229 431.315 171.547C426.334 167.216 419.827 165.059 415.546 164.038C412.308 165.808 409.02 167.644 405.797 169.499Z" fill="#2054AB"/>
<path d="M423.374 174.619C407.481 163.073 396.203 158.866 395.878 158.899C393.866 150.478 392.037 137.372 384.426 117.391C384.426 117.391 369.464 117.597 367.189 123.004C363.941 130.725 361.583 155.77 386.327 171.941C386.473 172.043 386.632 172.146 386.801 172.251C386.869 172.295 386.935 172.34 387.005 172.383C387.005 172.383 387.011 172.383 387.019 172.381C394.667 176.866 422.052 182.912 422.052 182.912C425.036 179.18 423.374 174.621 423.374 174.621V174.619Z" fill="#245FC0"/>
<path d="M473.912 110.907C473.815 110.372 472.557 104.635 463.688 105.615C463.688 105.615 468.103 105.503 469.13 107.303C469.13 107.303 465.832 105.374 463.536 106.483C461.24 107.591 460.438 112.014 460.626 113.402C460.813 114.791 462.8 119.07 464.382 119.229C464.981 119.289 465.642 119.153 466.233 118.963C465.918 119.657 465.622 120.415 465.354 121.252C462.881 128.994 467.539 135.534 470.407 134.321C472.246 133.543 473.261 136.729 473.261 136.729L489.655 118.986C489.655 118.986 480.782 105.853 473.914 110.909L473.912 110.907Z" fill="#444444"/>
<path d="M495.27 324.59L491.282 326.076C491.282 326.076 473.964 302.048 471.832 280.908C471.451 277.133 471.577 273.477 472.401 270.1C472.401 270.1 472.232 269.134 471.937 267.424C471.8 266.627 471.631 265.666 471.439 264.565C470.875 261.339 470.101 256.922 469.215 251.895C467.177 240.325 464.537 225.535 462.486 214.661L463.561 214.315L475.185 210.564L477.588 202.93L486.243 200.651C486.243 200.651 488.177 204.435 489.906 222.308C490.225 224.654 490.514 227.239 490.732 230.043C491.407 238.6 491.455 249.217 489.908 261.355C489.511 264.46 489.01 267.669 488.387 270.964C487.933 273.379 487.863 276.672 488.055 280.453C488.928 297.734 495.27 324.592 495.27 324.592V324.59Z" fill="#253C75"/>
<path d="M490.732 230.041L471.937 267.422C471.8 266.625 471.631 265.664 471.439 264.564C470.875 261.337 470.101 256.92 469.215 251.893C467.177 240.323 464.537 225.533 462.486 214.659L463.561 214.313L475.185 210.562L477.588 202.928L486.243 200.649C486.243 200.649 488.177 204.434 489.906 222.306C490.225 224.652 490.514 227.237 490.732 230.041Z" fill="#2B478B"/>
<path d="M482.463 205.447C482.463 205.447 482.455 205.478 482.443 205.536C482.383 205.783 482.2 206.54 481.936 207.621C480.686 212.765 477.634 225.253 477.449 225.243C475.773 236.953 473.254 252.128 470.124 263.791C468.467 269.958 466.644 275.145 464.676 278.319C464.002 279.41 463.267 281.233 462.499 283.553C457.977 297.231 452.411 328.192 452.411 328.192L449.874 329.215C449.874 329.215 440.095 301.395 448.568 278.803C449.431 276.503 450.484 274.256 451.756 272.098C451.902 271.849 452.001 271.577 451.966 271.291C451.966 271.287 451.966 271.285 451.966 271.281C451.855 270.342 451.581 267.984 451.27 264.672C450.405 255.536 449.578 224.664 449.127 217.398C448.956 214.648 449.057 212.193 449.337 210.021C449.88 205.781 451.103 202.607 452.294 200.386C453.801 197.586 455.261 196.302 455.261 196.302C455.261 196.302 474.739 203.652 482.027 201.713L482.463 205.447Z" fill="#253C75"/>
<path d="M482.442 207.291C482.286 207.403 482.119 207.512 481.936 207.619C475.22 211.546 451.657 210.167 449.338 210.019C449.88 205.779 451.103 202.606 452.295 200.385C462.373 201.279 479.079 203.094 482.444 205.534C483.208 206.089 483.286 206.676 482.444 207.291H482.442Z" fill="#5C86EA"/>
<path d="M520.033 199.326L518.851 202.825C518.851 202.825 518.614 202.782 518.204 202.677C516.913 202.353 513.767 201.602 510.245 200.567C504.937 199.058 498.693 196.952 496.424 194.916C492.962 191.837 487.889 183.408 485.043 175.38C484.956 175.18 484.899 174.987 484.843 174.793C483.371 170.539 482.547 166.434 482.981 163.353C483.229 161.465 483.725 159.899 484.363 158.573C485.199 156.822 486.293 155.515 487.353 154.572C487.505 154.415 487.654 154.259 487.86 154.142C489.591 152.707 490.808 151.731 490.808 151.731C491.574 151.562 492.588 152.571 493.236 153.576C493.236 153.576 494.286 155.576 494.733 157.005C494.756 157.04 494.781 157.075 494.775 157.104C494.875 157.398 494.97 157.723 495.09 158.081C495.139 158.151 495.153 158.246 495.172 158.31C495.376 159.053 495.574 159.823 495.767 160.626C497.985 169.246 499.702 182.008 502.291 186.187C503.409 187.984 509.247 192.166 513.919 195.338C517.282 197.601 520.039 199.325 520.039 199.325L520.033 199.326Z" fill="#E9A170"/>
<path d="M488.79 160.142C486.679 161.521 484.046 162.634 480.765 163.295C468.461 165.777 464.067 155.308 462.508 148.164C464.201 147.256 465.776 147.091 466.686 147.009C467.572 146.929 468.503 146.886 469.273 146.871C470.675 145.858 472.843 141.61 473.482 134.939L474.054 135.111L483.613 138.02C483.613 138.02 483.086 141.071 482.787 143.961C482.555 146.223 482.468 148.388 482.882 148.929C483.628 149.113 484.077 149.232 484.077 149.232C484.077 149.232 484.077 149.236 484.081 149.242C484.204 149.458 486.869 154.135 488.788 160.144L488.79 160.142Z" fill="#FFB27D"/>
<path d="M493.073 167.834C493.015 168.096 492.947 168.351 492.871 168.618C490.711 175.841 488.963 204.719 488.963 204.719C490.522 209.64 450.954 209.228 450.188 204.653C448.12 199.986 453.184 191.267 456.11 186.837C456.475 186.281 456.792 185.695 457.053 185.088C457.714 183.564 458.033 181.905 457.967 180.23C457.71 173.626 456.563 167.566 456.083 163.851C456.691 163.246 457.284 162.682 457.836 162.149C458.678 161.327 459.415 160.564 459.934 159.825C460.504 159.018 460.82 158.232 460.75 157.406C460.696 156.782 460.585 156.149 460.428 155.525C460.356 155.23 460.272 154.936 460.185 154.642C459.244 151.564 457.516 148.899 457.516 148.899C460.647 147.069 466.682 147.013 466.682 147.013C466.682 147.013 466.723 147.343 466.799 147.882C467.092 150.047 467.918 155.597 468.762 156.546C469.818 157.729 486.504 161.159 487.083 159.263C487.655 157.396 484.208 149.543 484.08 149.245C484.076 149.24 484.076 149.236 484.076 149.236C489.686 150.55 491.838 152.025 491.838 152.025C488.94 154.564 494.591 160.914 493.071 167.838L493.073 167.834Z" fill="#4970D1"/>
<path d="M483.616 138.02C483.616 138.02 483.087 141.07 482.79 143.961C477.346 143.261 474.961 137.991 474.055 135.113L483.616 138.022V138.02Z" fill="#FFB27D"/>
<path d="M485.163 140.943C485.163 140.943 472.227 139.862 473.024 131.814C473.821 123.766 472.687 118.206 480.979 118.556C489.272 118.906 490.569 122.135 490.958 124.887C491.345 127.638 488.547 141.017 485.163 140.943Z" fill="#FFB27D"/>
<path d="M491.023 120.373C489.269 117.753 487.708 118.132 486.789 118.776C480.119 114.186 474.996 119.47 474.996 119.47C473.553 125.157 469.061 128.049 469.061 128.049C469.061 128.049 471.269 129.739 476.835 128.887C478.536 128.626 480.132 127.596 481.534 126.293C478.97 129.754 475.715 132.11 475.715 132.11C482.496 129.762 486.003 121.005 486.357 120.075C487.074 120.863 488.474 122.557 488.797 124.112C489.236 126.226 489.102 130.474 490.346 130.453C490.346 130.453 493.653 124.303 491.023 120.373Z" fill="#444444"/>
<path d="M477.181 196.81C469.537 197.837 461.926 190.847 457.056 185.086C457.717 183.562 458.036 181.903 457.97 180.228C457.713 173.624 456.566 167.564 456.086 163.849C456.694 163.244 457.287 162.68 457.84 162.147C458.681 161.325 459.418 160.562 459.937 159.823C467.719 169.483 487.545 195.419 477.181 196.812V196.81Z" fill="#5C86EA"/>
<path d="M503.846 199.431L505.199 204.021C505.199 204.021 501.788 203.245 499.647 203.035C499.006 202.971 498.638 202.913 498.638 202.913C496.925 202.728 494.872 202.452 492.637 202.162H492.606C488.77 201.588 484.468 200.871 480.815 199.976C478.245 199.323 475.999 198.578 474.446 197.773C474.287 197.695 474.16 197.615 473.999 197.508C470.26 195.258 465.429 188.103 461.483 180.326C460.935 179.252 460.417 178.175 459.904 177.13C458.051 173.231 456.504 169.365 455.485 166C454.855 163.995 454.393 162.157 454.2 160.628C454.122 160.09 454.05 159.58 454.037 159.096C454.015 158.818 453.998 158.546 453.986 158.283C455.497 156.96 458.983 154.489 463.738 154.745C463.837 154.915 463.934 155.086 464.033 155.261C466.082 158.991 468.322 163.857 470.439 168.703C471.61 171.358 472.747 174.017 473.869 176.465C474.514 177.955 475.15 179.353 475.747 180.635C476.897 183.079 477.916 185.051 478.781 186.279C479.335 187.08 480.819 188.132 482.769 189.297C486.155 191.335 491.058 193.727 495.314 195.66C497.081 196.477 498.749 197.212 500.135 197.817C502.371 198.805 503.848 199.435 503.848 199.435L503.846 199.431Z" fill="#E9A170"/>
<path d="M464.024 155.27C458.099 154.177 454.028 159.084 454.028 159.084C453.345 150.371 457.574 148.804 457.574 148.804C459.253 147.931 461.536 150.774 464.024 155.27Z" fill="#5C86EA"/>
<path d="M464.628 331.287H444.545C444.545 331.287 444.065 328.225 445.113 325.901C446.118 323.673 447.693 322.659 447.316 319.962C448.591 321.277 450.671 322.749 453.576 322.358C453.931 322.936 455.872 326.022 457.059 326.876C458.372 327.819 464.223 327.483 464.628 331.285V331.287Z" fill="#576F9F"/>
<path d="M507.748 331.287H487.666C487.666 331.287 486.915 328.081 488.234 325.901C489.4 323.972 488.953 322.873 488.09 321.277C488.999 321.65 490.176 321.988 491.472 321.914C492.474 321.856 493.531 321.403 494.458 320.864C495.324 321.85 499.023 326.045 500.18 326.878C501.492 327.821 507.344 327.484 507.748 331.287Z" fill="#576F9F"/>
<path d="M482.078 136.289C482.078 136.289 482.259 137.355 484.88 137.357C484.88 137.357 487.08 137.359 487.086 136.202C487.086 136.202 485.012 135.247 482.078 136.289Z" fill="white"/>
<path d="M549.701 170.088C548.851 169.761 547.807 173.353 547.154 173.486C546.501 173.616 546.763 172.506 546.178 172.332C545.595 172.159 545.325 175.25 545.781 176.44C546.238 177.63 546.174 179.046 546.174 179.046C546.174 179.046 542.29 194.058 541.452 195.738C540.616 197.419 526.92 209.64 526.92 209.64L529.931 219.374C529.931 219.374 546.063 204.463 547.438 200.956C548.812 197.45 549.434 179.447 549.434 179.447C549.434 179.447 550.64 176.852 550.902 174.238C551.163 171.625 550.546 170.417 549.697 170.09L549.701 170.088Z" fill="#FFB27D"/>
<path d="M507.826 208.559C507.826 208.559 498.333 196.262 493.712 192.446C493.712 192.446 487.391 176.858 486.878 175.829C486.855 175.781 486.822 175.742 486.787 175.705C486.719 175.345 486.503 174.04 486.74 172.84C487.018 171.432 486.124 168.058 485.511 168.363C484.897 168.668 485.401 169.849 484.652 169.829C483.904 169.81 482.053 166.029 481.176 166.554C480.297 167.08 479.846 168.538 480.64 171.383C481.299 173.752 482.681 175.981 483.126 176.66C483.101 176.673 483.085 176.683 483.085 176.683C483.085 176.683 485.406 191.837 487.854 196.328C490.302 200.82 497.893 215.895 503.251 216.455C508.609 217.015 507.828 208.555 507.828 208.555L507.826 208.559Z" fill="#FFB27D"/>
<path d="M536.496 324.256C536.496 324.256 537.569 326.351 539.945 326.868C541.441 327.195 542.723 327.973 543.52 329.066C544.194 329.989 543.541 331.289 542.398 331.289H530.337C529.31 331.289 528.507 330.402 528.61 329.379C528.7 328.484 528.795 327.444 528.834 326.646C528.923 324.904 530.667 323.501 530.667 323.501L536.492 324.256H536.496Z" fill="#1C3256"/>
<path d="M536.784 324.783C536.784 324.783 533.892 326.493 528.994 325.462C528.994 325.462 520.672 304.17 520.178 294.15C520.157 293.748 520.149 293.364 520.157 292.999C520.324 283.574 511.626 259.036 513.972 254.007C516.319 248.978 535.276 256.267 535.276 256.267L535.653 273.366L536.786 324.781L536.784 324.783Z" fill="#3C69B3"/>
<path d="M535.653 273.366L520.18 294.148C520.158 293.746 520.151 293.362 520.158 292.997C520.326 283.572 511.628 259.034 513.974 254.005C516.321 248.976 535.278 256.265 535.278 256.265L535.655 273.364L535.653 273.366Z" fill="#4472BF"/>
<path d="M505.357 324.256C505.357 324.256 506.43 326.351 508.806 326.868C510.303 327.195 511.584 327.973 512.381 329.066C513.056 329.989 512.402 331.289 511.259 331.289H499.198C498.172 331.289 497.369 330.402 497.472 329.379C497.561 328.484 497.657 327.444 497.695 326.646C497.785 324.904 499.529 323.501 499.529 323.501L505.353 324.256H505.357Z" fill="#1C3256"/>
<path d="M524.19 256.671C524.19 256.671 507.436 319.217 506.923 325.337C506.923 325.337 503.655 327.014 498.351 324.052C498.351 324.052 495.272 296.019 498.351 288.358C501.43 280.698 497.739 257.543 505.575 252.319C513.41 247.095 524.192 256.671 524.192 256.671H524.19Z" fill="#3C69B3"/>
<path d="M526.187 207.106L515.901 212.365L513.84 205.225C513.84 205.225 515.15 202.755 515.743 198.708C515.99 197.006 516.114 195.025 515.955 192.831L524.336 197.125C524.336 197.125 524.136 197.901 524.002 199.045C523.86 200.281 523.796 201.948 524.147 203.531C524.451 204.891 525.059 206.188 526.187 207.106Z" fill="#FFB27D"/>
<path d="M534.735 216.173C534.791 215.317 539.943 211.836 539.943 211.836C541.026 205.33 536.889 200.645 536.889 200.645L530.686 205.06C529.488 205.132 528.975 205.568 528.975 205.568C527.948 205.291 524.886 205.535 524.886 205.535C524.931 207.015 524.538 208.397 521.943 208.738C518.49 209.187 515.403 206.832 513.84 205.229C513.84 205.229 511.748 205.046 509.126 205.902C509.126 205.902 507.854 205.253 506.501 205.212L501.423 200.645C501.423 200.645 495.474 202.363 494.537 211.332C494.537 211.332 501.215 216.416 501.697 220.432L501.88 221.955L502.527 227.348L503.667 236.807L500.276 255.649C500.247 255.814 500.231 255.979 500.231 256.141C500.231 257.399 501.093 258.533 502.358 258.838C502.358 258.838 502.65 258.887 503.186 258.961C506.781 259.466 521.375 261.207 532.818 258.099C535.39 257.399 537.087 254.943 536.874 252.282L534.453 221.889C534.453 221.889 534.683 217.028 534.739 216.173H534.735Z" fill="#AACAF7"/>
<path d="M507.816 244.734C507.589 251.306 506.945 256.878 503.185 258.959C502.649 258.885 502.357 258.836 502.357 258.836C501.092 258.531 500.23 257.399 500.23 256.139C500.23 255.977 500.246 255.812 500.275 255.647L503.666 236.805L502.526 227.346C502.581 227.18 502.61 227.093 502.61 227.093C502.61 227.093 508.102 236.315 507.814 244.732L507.816 244.734Z" fill="#99C2FC"/>
<path d="M524.148 203.531C519.384 203.405 515.744 198.708 515.744 198.708L524.005 199.045C523.863 200.282 523.799 201.948 524.15 203.531H524.148Z" fill="#EA9C68"/>
<path d="M526.462 200.875C526.462 200.875 516.955 203.385 513.676 195.824C510.137 187.663 514.02 181.716 517.247 181.315C523.684 180.516 527.424 182.971 528.556 185.567C529.687 188.163 531.707 199.537 526.462 200.875Z" fill="#FFB27D"/>
<path d="M522.693 196.617C522.693 196.617 523.092 197.598 525.598 197.047C525.598 197.047 527.703 196.584 527.464 195.476C527.464 195.476 525.279 195.001 522.691 196.617H522.693Z" fill="white"/>
<path d="M515.373 198.469C515.373 198.469 514.258 195.196 514.392 193.449C514.392 193.449 511.911 190.285 513.356 189.501C514.802 188.717 515.581 190.59 515.912 190.223C516.244 189.855 516.76 183.638 518.515 183.834C520.271 184.03 526.764 186.043 529.612 183.587C532.458 181.131 525.553 171.535 513.847 175.242C502.142 178.949 504.531 191.967 515.373 198.469Z" fill="#444444"/>
<path d="M508.074 180.347C508.074 180.347 507.544 178.766 508.113 177.636C508.113 177.636 508.14 179.192 508.753 179.884C509.363 180.577 508.074 180.347 508.074 180.347Z" fill="#444444"/>
<path d="M508.316 179.24C508.316 179.24 506.868 179.077 506.186 180.189C506.186 180.189 507.206 179.499 508.237 180.23L508.316 179.238V179.24Z" fill="#444444"/>
<path d="M503.848 199.432C503.848 199.432 509.742 200.643 510.261 201.275C510.782 201.907 514.495 206.291 512.787 206.812C511.078 207.332 508.173 205.326 507.248 204.879C506.322 204.434 505.199 204.021 505.199 204.021L503.846 199.432H503.848Z" fill="#FFB27D"/>
<path d="M0.635717 331.292H642.364C642.714 331.292 643 331.576 643 331.928V332.364C643 332.714 642.714 333 642.364 333H0.635717C0.285781 333 0 332.714 0 332.364V331.93C0 331.58 0.285781 331.294 0.635717 331.294V331.292Z" fill="#AACAF7"/>
</g>
<defs>
<clipPath id="clip0_27_18307">
<rect width="643" height="333" fill="white"/>
</clipPath>
</defs>
</svg>
