<svg width="461" height="270" viewBox="0 0 461 270" fill="none" xmlns="http://www.w3.org/2000/svg">
<g clip-path="url(#clip0_2314_213)">
<path d="M413.322 269.843L321.418 267.418L251.543 267.138L249.416 267.128L244.498 267.108C199.568 234.34 185.877 199.983 185.877 199.983C187.486 199.456 302.463 168.309 380.029 175.256C386.249 180.424 394.108 184.859 401.947 190.062C406.272 192.935 410.592 196.038 414.623 199.628C428.997 212.42 418.904 233.342 413.319 269.843H413.322Z" fill="#82B378"/>
<path d="M413.504 267.616L21.705 268.786C21.705 268.786 -1.15137 218.026 7.43425 165.687C12.523 170.231 18.2895 173.521 21.9539 169.775C26.5794 165.049 39.8226 151.239 49.8523 140.766L49.8523 140.761C56.7548 133.558 62.1319 127.932 62.1319 127.932C62.1319 127.932 67.7677 120.807 71.4519 122.803C73.1572 123.728 74.8181 125.933 76.2794 127.951C76.2893 127.964 76.2942 127.969 76.2942 127.969C77.9847 130.305 79.4116 132.38 80.3406 131.921C81.1809 131.507 87.3663 123.195 94.5572 113.964C102.204 104.141 110.987 93.2737 115.679 89.7497C115.679 89.7497 120.043 83.8699 124.782 90.6049C127.209 94.0524 130.943 102.865 135.115 113.464C144.738 137.907 156.692 171.855 160.322 171.402C165.524 170.754 173.619 155.556 178.533 154.036C183.447 152.516 205.823 205.683 215.365 207.962C224.904 210.242 243.118 190.863 257.861 196.562C272.608 202.265 296.457 234.182 318.574 228.483C336.276 223.921 376.638 216.752 402.287 208.613C422.033 221.718 420.648 220.873 413.497 267.613L413.504 267.616Z" fill="#D9E9FC"/>
<path d="M135.117 113.466C132.83 114.435 129.644 114.955 129.25 110.916C128.671 105.026 115.807 116.426 109.158 118.895C102.51 121.364 106.268 111.298 106.122 108.446C106.033 106.704 99.5696 110.642 94.5597 113.966C102.206 104.144 110.989 93.2761 115.681 89.7522C115.681 89.7522 120.045 83.8724 124.784 90.6073C127.212 94.0549 130.945 102.867 135.117 113.466Z" fill="#F8FBFF"/>
<path d="M76.2819 127.954C76.1365 127.781 74.897 126.448 72.6372 127.971C70.2296 129.595 67.0506 130.482 65.6041 129.913C64.1575 129.344 49.8547 140.768 49.8547 140.768L49.8547 140.763C56.7572 133.56 62.1344 127.934 62.1344 127.934C62.1344 127.934 67.7702 120.81 71.4543 122.806C73.1596 123.73 74.8206 125.936 76.2819 127.954Z" fill="#F8FBFF"/>
<path d="M407.07 216.05C403.879 194.808 388.566 191.686 388.566 191.686C388.566 191.686 390.958 165.323 373.73 149.509C356.503 133.696 353.454 195.163 333.055 161.281C282.973 78.1036 285.087 274.151 201.508 245.412C127.963 220.124 123.451 180.964 98.2487 179.034C73.0463 177.107 70.8112 247.911 55.8184 232.709C40.8231 217.507 10.1968 237.699 21.0446 267.793L393.674 268.673C393.674 268.673 411.055 242.551 407.072 216.048L407.07 216.05Z" fill="#BAD5F5"/>
<path d="M274.04 21.7426C274.04 21.7426 281.127 5.75919 295.302 7.11702C309.476 8.47485 334.856 68.3845 307.313 65.0453C307.313 65.0453 291.834 30.3406 274.04 21.7451L274.04 21.7426Z" fill="#050E1D"/>
<path d="M239.051 77.1104C238.024 76.8369 234.554 79.4022 234.554 79.4022C227.743 79.4392 217.713 80.1439 214.1 80.4347C211.538 80.6417 205.044 77.5983 198.74 74.2321C191.246 70.2276 185.15 66.8441 185.15 66.8441C180.825 66.1443 173.888 72.4553 182.156 78.4707C183.417 79.3899 188.334 81.2603 194.029 83.1011C201.885 85.6418 211.222 88.1234 214.509 87.973C218.329 87.7981 229.384 85.0799 236.033 82.798C236.033 82.798 236.04 82.798 236.05 82.7931C236.075 82.7832 236.099 82.7758 236.124 82.7684C236.523 82.6329 238.147 82.1129 239.172 82.2879C240.348 82.4875 243.226 80.6122 243.369 80.0404C243.514 79.4712 240.079 77.379 239.051 77.1055L239.051 77.1104Z" fill="#F6A071"/>
<path d="M237.561 174.3L233.835 175.057C233.835 175.057 216.787 155.902 214.157 147.843C212.75 143.536 203.75 141.675 194.344 139.243C186.158 137.126 177.663 134.575 173.607 129.6C164.888 118.91 179.083 105.773 179.083 105.773C179.083 105.773 194.174 114.743 207.195 124.009C216.296 130.485 224.384 137.104 225.604 140.911C228.563 150.165 234.84 167.752 237.561 174.3Z" fill="#2B478B"/>
<path d="M232.575 180.618H234.67C235.372 180.508 235.89 180.305 236.609 180.212C237.704 180.069 238.206 180.517 238.305 180.618C238.32 180.633 238.325 180.641 238.325 180.641H247.226C247.45 180.32 247.235 179.581 247.024 179.034C246.881 178.664 246.573 178.383 246.191 178.272C245.247 177.999 243.386 177.755 241.681 176.212C240.722 175.345 237.051 173.026 237.051 173.026L237.031 173.021C236.949 173.021 236.568 173.139 234.897 174.551C234.034 175.278 232.563 173.524 232.563 173.524C232.563 173.524 232.287 173.753 232.08 174.179C231.915 174.514 231.794 174.978 231.888 175.544C232.021 176.345 231.592 177.836 231.25 178.844C231.043 179.455 230.868 179.889 230.868 179.889C230.868 179.889 230.767 180.392 232.57 180.618H232.575Z" fill="#6F8698"/>
<path d="M207.195 124.011L194.344 139.243C186.158 137.126 177.663 134.575 173.607 129.6C164.888 118.91 179.083 105.773 179.083 105.773C179.083 105.773 194.174 114.743 207.195 124.009L207.195 124.011Z" fill="#20376F"/>
<path d="M195.52 116.054C195.52 116.054 194.482 119.321 192.797 124.235C190.665 130.45 187.486 139.3 184.041 147.506C183.284 149.31 182.513 151.081 181.737 152.789C178.871 159.105 175.938 164.517 173.356 167.269C168.715 172.215 157.434 204.01 157.434 204.01L154.622 203.231C154.622 203.231 150.704 176.082 164.588 160.631C164.736 160.465 164.854 160.276 164.869 160.054L164.869 160.049C165.053 157.762 165.714 147.52 167.153 137.143C167.505 134.598 167.907 132.045 168.356 129.6C168.383 129.442 168.415 129.29 168.442 129.134C170.554 117.826 172.577 112.796 175.187 110.265L194.381 115.728L195.517 116.051L195.52 116.054Z" fill="#2B478B"/>
<path d="M154.309 207.916H156.404C157.106 207.805 157.624 207.603 158.343 207.509C159.437 207.366 159.94 207.815 160.039 207.916C160.051 207.928 160.058 207.938 160.058 207.938H168.959C169.184 207.617 168.969 206.878 168.757 206.331C168.614 205.961 168.306 205.68 167.924 205.57C166.981 205.296 165.12 205.052 163.415 203.509C162.456 202.642 158.784 200.323 158.784 200.323L158.765 200.318C158.683 200.318 158.301 200.436 156.63 201.848C155.768 202.575 154.297 200.821 154.297 200.821C154.297 200.821 154.021 201.05 153.814 201.476C153.649 201.811 153.528 202.275 153.624 202.842C153.757 203.642 153.328 205.133 152.986 206.141C152.779 206.752 152.604 207.186 152.604 207.186C152.604 207.186 152.503 207.689 154.307 207.916H154.309Z" fill="#6F8698"/>
<path d="M174.324 81.4329C174.324 81.4329 168.336 87.4482 162.73 93.8332C158.018 99.2029 153.577 104.836 153.195 107.377C152.658 110.963 151.061 120.889 149.548 127.53C149.548 127.53 151.256 131.493 150.756 132.432C150.255 133.37 147.439 136.239 146.916 135.968C146.394 135.697 145.221 132.471 145.684 131.369C146.088 130.411 145.953 128.71 145.911 128.292C145.908 128.264 145.906 128.24 145.903 128.213C145.903 128.203 145.903 128.195 145.903 128.195C145.194 121.202 145.061 109.817 145.76 106.059C146.362 102.823 150.903 94.2941 155.164 87.224C158.252 82.0958 161.192 77.7364 162.375 76.7162C170.113 70.0355 175.99 77.3766 174.324 81.4304L174.324 81.4329Z" fill="#FFB48D"/>
<path d="M159.351 54.7963C159.356 54.1235 159.398 53.5001 159.469 52.921C159.082 53.197 158.629 53.4459 158.176 53.5395C156.98 53.7859 154.548 51.1122 154.092 50.1388C153.636 49.1654 153.21 45.7449 154.637 44.4093C156.064 43.0736 158.92 43.7291 158.92 43.7291C157.757 42.6473 154.551 43.7414 154.551 43.7414C160.817 40.9937 163.052 44.9021 163.245 45.2718C167.114 40.0006 176.614 47.5759 176.614 47.5759L168.678 64.311C168.678 64.311 167.207 62.2138 166.039 63.2045C164.218 64.7496 159.312 61.031 159.349 54.8012L159.351 54.7963Z" fill="#313131"/>
<path d="M172.163 75.5185C176.163 74.8926 178.79 70.1094 178.755 70.102C178.319 70.0182 177.883 69.1779 177.432 67.9999C176.951 66.7776 176.53 64.9442 176.397 62.5095C176.365 61.9944 176.33 61.4794 176.328 60.9126L175.894 61.0186L168.405 62.6475C168.405 62.6475 168.612 65.0033 168.671 67.236C168.708 69.1064 168.671 73.6654 168.25 73.8871C168.213 73.8797 166.079 76.418 172.163 75.516L172.163 75.5185Z" fill="#FFB48D"/>
<path d="M168.799 63.234C170.374 65.2301 173.656 68.5372 177.432 68C176.951 66.7777 176.53 64.9443 176.397 62.5095L168.799 63.234Z" fill="#F6A071"/>
<path d="M178.361 64.6658C178.361 64.6658 168.646 66.8394 167.387 60.7673C166.128 54.6977 164.026 50.8879 170.174 49.2442C176.323 47.6006 178.013 49.6656 178.928 51.5903C179.842 53.5149 180.857 63.9438 178.363 64.6658H178.361Z" fill="#FFB48D"/>
<path d="M169.504 57.7536C165.625 59.6511 163.622 58.9217 163.622 58.9217C163.622 58.9217 164.689 54.7816 164.44 50.2892C164.44 50.2892 169.07 47.2483 173.538 47.4922C173.876 47.6031 174.191 47.7929 174.474 48.0713C174.999 47.3912 176.057 46.7603 177.937 48.2734C180.761 50.5455 179.751 55.8019 179.751 55.8019C178.846 56.1025 177.969 52.963 177.165 51.5189C176.574 50.4543 175.16 49.5351 174.455 49.1236C174.41 49.8653 173.853 57.0882 169.423 60.3657C169.423 60.3657 171.266 57.899 172.35 54.7767C171.623 56.0507 170.689 57.172 169.504 57.7511L169.504 57.7536Z" fill="#313131"/>
<path d="M193.871 84.4714C193.792 84.1954 193.708 83.9071 193.62 83.6138C194.995 80.9844 195.67 78.6162 195.958 76.6103C196.587 72.3742 195.515 69.7571 195.515 69.7571C195.515 69.7571 189.09 66.3514 186.254 65.9177C186.242 65.9128 186.229 65.9078 186.219 65.9078C186.185 65.9029 186.148 65.9004 186.106 65.898C183.242 65.5037 177.045 66.7679 177.045 66.7679C177.045 66.7679 178.24 69.9518 174.866 72.0735C171.493 74.1953 168.639 71.0114 168.639 71.0114C168.531 71.0853 167.666 71.6842 167.547 71.7679C167.547 71.7679 158.671 77.6256 157.875 78.9637C157.079 80.3018 153.663 86.9283 153.663 86.9283C153.663 86.9283 154.745 92.4927 166.737 92.956C167.722 95.3464 168.476 97.6801 168.723 99.6244C169.674 107.175 168.57 113.134 169.679 117.542C170.788 121.951 190.796 119.437 194.418 118.59C198.041 117.742 197.227 113.873 197.506 110.115C197.856 105.393 195.054 88.641 193.873 84.4763L193.871 84.4714Z" fill="#739AF0"/>
<path d="M195.958 76.6103C195.67 78.6236 194.99 81.0041 193.605 83.6458C193.292 82.2609 192.01 77.1869 189.943 74.8853C189.943 74.8853 193.42 75.2007 195.958 76.6127L195.958 76.6103Z" fill="#487AE7"/>
<path d="M330.945 166.377C330.945 166.377 333.964 169.174 333.375 171.163C332.786 173.152 330.063 174.475 329.693 176.905C329.326 179.335 327.853 180.66 326.527 180.66H320.208C320.208 180.66 319.233 178.95 321.588 178.435C323.944 177.92 324.831 175.064 324.686 172.415C324.538 169.766 324.908 166.232 324.908 166.232L329.913 165.054L330.943 166.38L330.945 166.377Z" fill="#1E3151"/>
<path d="M293.325 180.328C293.02 180.481 291.943 180.587 290.467 180.658H276.179C276.226 180.234 276.558 178.719 278.894 178.342C281.534 177.913 286.105 176.378 287.125 173.001C287.16 172.893 287.189 172.782 287.214 172.671C288.022 169.064 293.912 173.775 293.912 173.775C293.912 173.775 293.929 173.918 293.954 174.165C294.092 175.49 294.439 179.768 293.323 180.325L293.325 180.328Z" fill="#1E3151"/>
<path d="M279.594 83.8405C279.594 83.8405 280.489 95.0014 281.541 108.415C282.97 126.638 284.688 149.021 284.858 153.262C285.151 160.626 286.332 172.405 286.332 172.405C286.332 172.405 289.129 175.205 294.725 174.024C294.725 174.024 299.713 157.21 301.137 139.42C301.159 139.13 301.182 138.836 301.204 138.541C302.53 120.43 304.59 82.293 304.59 82.293L279.597 83.8381L279.594 83.8405Z" fill="#1D3774"/>
<path d="M279.594 83.8405C279.594 83.8405 280.489 95.0014 281.541 108.415L301.135 139.42C301.157 139.13 301.179 138.836 301.201 138.541C302.527 120.431 304.587 82.293 304.587 82.293L279.594 83.8381L279.594 83.8405Z" fill="#1E3151"/>
<path d="M283.68 85.1663C283.68 85.1663 299.804 125.583 310.405 144.578C321.007 163.573 324.319 168.874 324.319 168.874C324.319 168.874 330.393 166.444 330.945 164.788C330.945 164.788 326.892 128.119 319.792 119.181C315.78 114.129 311.068 98.9713 310.847 93.6706C310.625 88.3699 309.41 77.8794 309.41 77.8794L283.68 85.1688L283.68 85.1663Z" fill="#1D3774"/>
<path d="M233.95 63.2463C233.95 63.2463 229.576 62.2458 228.842 62.2976C228.105 62.3493 225.53 63.4262 225.498 63.6332C225.463 63.8427 225.587 64.0127 226.03 64.0423C226.474 64.0719 227.94 63.8846 227.846 64.062C227.753 64.2395 223.536 65.0675 223.489 65.9176C223.443 66.7654 225.754 68.345 227.706 68.451C229.658 68.5569 233.497 66.2873 233.827 66.2602C236.619 66.0162 233.953 63.2488 233.953 63.2488L233.95 63.2463Z" fill="#FFB48D"/>
<path d="M232.078 64.3552C231.452 62.3566 231.597 62.0387 231.597 62.0387C231.597 62.0387 249.325 52.4526 250.947 51.4817C252.571 50.5107 270.89 31.0132 270.89 31.0132L289.656 36.1784C289.656 36.1784 260.617 58.2979 256.457 60.6809C249.579 64.6164 233.655 66.8441 233.655 66.8441C233.655 66.8441 232.57 65.9225 232.08 64.3552H232.078Z" fill="#3B6ECE"/>
<path d="M276.578 21.5381C276.578 21.5381 269.998 33.1129 263.569 34.6235C263.569 34.6235 263.837 30.7373 265.402 28.0759C264.762 27.3194 264.197 26.6244 263.712 26.0034C262.093 23.9285 261.324 22.6594 261.324 22.6594L263.507 16.7919L264.988 12.812C265.7 14.1033 266.484 15.2048 267.302 16.1462C271.516 20.991 276.58 21.5381 276.58 21.5381H276.578Z" fill="#FFB48D"/>
<path d="M267.3 16.1462C267.3 16.1462 268.083 21.9471 263.712 26.0034C262.093 23.9284 261.324 22.6593 261.324 22.6593L263.507 16.7918C265.846 16.0796 267.302 16.1462 267.302 16.1462H267.3Z" fill="#F6A071"/>
<path d="M259.589 23.5144C259.589 23.5144 269.419 19.6825 266.938 13.5981C264.456 7.51374 264.054 2.92275 257.674 5.11104C251.294 7.29934 251.028 10.116 251.363 12.3487C251.696 14.5814 256.97 24.3548 259.589 23.5144Z" fill="#FFB48D"/>
<path d="M310.364 80.9326C306.398 86.6325 276.753 94.2496 277.105 90.3043C277.241 88.7937 277.421 86.1322 277.1 82.522C277.026 81.6768 276.92 80.7822 276.785 79.8335C276.031 74.6486 274.242 67.9827 270.252 60.2645C269.954 59.6853 269.641 59.1038 269.318 58.5123C267.677 55.5256 266.275 52.3664 265.208 49.2786C263.152 43.3421 262.327 37.6644 263.362 33.9507C263.367 33.9334 263.372 33.9162 263.379 33.8989C269.577 31.0329 271.977 19.9214 271.977 19.9214C271.977 19.9214 293.118 23.7164 304.962 51.8957C304.962 51.8957 313.814 75.9695 310.364 80.9326Z" fill="#2A55A6"/>
<path d="M277.1 82.5221C277.026 81.6769 276.92 80.7823 276.785 79.8336C276.031 74.6487 274.242 67.9828 270.252 60.2646C270.937 56.1122 271.883 52.6573 272.921 51.1048C277.137 44.7863 279.594 43.7981 279.594 43.7981C279.594 43.7981 285.918 70.4643 277.1 82.5221Z" fill="#3B6ECE"/>
<path d="M243.776 76.1765C243.776 76.1765 237.928 76.4846 237.021 76.8098C236.114 77.1351 233.265 79.4097 233.297 79.6832C233.329 79.9568 233.544 80.1268 234.113 80.006C234.682 79.8853 236.454 79.1263 236.4 79.3801C236.346 79.6364 231.348 82.1845 231.592 83.2663C231.836 84.3481 235.303 85.5039 237.792 84.9396C240.281 84.3752 244.291 80.1539 244.695 80.0011C248.113 78.6975 243.776 76.1765 243.776 76.1765Z" fill="#FFB48D"/>
<path d="M242.672 78.3943C241.501 76.5017 242.344 75.6368 242.344 75.6368C242.344 75.6368 260.41 61.4917 261.827 60.0624C263.244 58.6331 269.804 35.8777 269.804 35.8777C269.804 35.8777 272.061 26.6687 277.349 25.6534C281.943 24.7711 285.119 27.0432 287.197 29.7096C289.673 32.8861 289.915 37.2651 287.859 40.7275C283.246 48.4999 273.941 63.9289 271.223 66.5657C265.176 72.4332 244.941 80.6319 244.941 80.6319C244.941 80.6319 243.591 79.8803 242.672 78.3943Z" fill="#2A55A6"/>
<path d="M268.35 2.29673C268.419 2.16119 268.618 2.0158 269.106 1.86548C269.106 1.86548 268.65 1.71269 268.118 1.82851C267.842 1.15576 267.172 0.0073929 265.912 0C265.912 0 266.634 0.187287 266.901 0.909327C265.176 -0.182358 261.982 -0.500253 254.002 2.15626C243.487 5.65804 248.741 11.7621 250.336 12.2525C251.93 12.7429 254.862 9.60092 257.502 9.17213C260.141 8.74334 261.568 12.4201 262.573 12.7232C263.579 13.0288 263.007 12.1909 264.062 11.353C265.114 10.5152 265.72 12.4866 265.698 13.8691C265.676 15.254 267.729 16.565 267.729 16.565L268.934 14.3546C270.139 12.1441 269.811 4.12278 268.66 2.6787C268.559 2.55055 268.458 2.42241 268.354 2.2918L268.35 2.29673Z" fill="#313131"/>
<path d="M0.186768 268.865L197.166 268.675L199.007 240.023L178.962 207.935L153.407 207.915L131.352 197.203L86.8907 218.662L70.789 245.942L42.7822 240.003L0.186768 268.865Z" fill="#59A247"/>
<path d="M224.433 180.641H255.646L266.097 187.223L270.124 180.658L345.669 180.641L366.33 188.701L390.456 168.874L432.038 190.55L460.72 235.917L431.723 268.675H226.464L247.324 235.917L207.195 217.955L224.433 180.641Z" fill="#AFD295"/>
<path d="M432.038 190.55L403.827 229.522L333.959 207.935L247.324 235.917L226.464 268.675H431.723L460.72 235.917L432.038 190.55Z" fill="#82B378"/>
<path d="M0.186768 268.865L48.5659 247.933L96.8268 257.571L122.958 235.718L163.917 229.611L199.007 240.023L197.166 268.675L0.186768 268.865Z" fill="#82B378"/>
<path d="M460.72 235.917L403.827 229.522L344.625 256.529L247.324 235.917L226.464 268.675H431.723L460.72 235.917Z" fill="#6DA861"/>
<path d="M203.137 240.023L165.709 259.545L123.005 244.343L65.2813 268.675H200.759L203.137 240.023Z" fill="#59A247"/>
<path d="M70.7891 245.942L107.904 229.611L86.8908 218.662L70.7891 245.942Z" fill="#82B378"/>
<path d="M345.669 180.641L207.195 217.955L270.124 180.658L345.669 180.641Z" fill="#82B378"/>
<path d="M199.007 240.023L153.407 207.916L179.408 207.935L199.007 240.023Z" fill="#82B378"/>
<path d="M333.959 207.935L247.324 235.917L345.67 180.641L333.959 207.935Z" fill="#6DA861"/>
<path d="M276.023 19.9214C276.023 19.9214 264.318 30.2862 267.963 42.1296L269.426 37.1838C269.426 37.1838 271.711 23.7903 278.926 22.4251L279.358 19.4778L276.026 19.9189L276.023 19.9214Z" fill="#050E1D"/>
<path d="M309.099 60.7229C290.25 64.1163 279.937 53.8081 279.937 53.8081L277.531 57.6278C293.089 69.4613 309.7 63.1601 309.7 63.1601L309.097 60.7229H309.099Z" fill="#050E1D"/>
</g>
<defs>
<clipPath id="clip0_2314_213">
<rect width="460.534" height="269.843" fill="white" transform="translate(0.186768)"/>
</clipPath>
</defs>
</svg>
