<svg width="492" height="229" viewBox="0 0 492 229" fill="none" xmlns="http://www.w3.org/2000/svg">
<g clip-path="url(#clip0_2314_341)">
<path d="M299.795 155.219C272.153 180.605 237.762 180.556 202.778 166.48C182.304 158.247 160.648 143.957 148.878 125.543C132.959 100.976 138.512 79.8422 150.789 53.412C167.082 18.308 193.454 -2.5022 232.273 1.79103C282.082 7.29812 313.527 43.4733 322.129 91.523C326.465 115.726 317.322 139.125 299.793 155.219H299.795Z" fill="#BAD5F5"/>
<path d="M150.576 193.985C150.576 193.985 145.083 187.586 150.237 183.523C150.237 183.523 154.001 181.246 157.072 181.431C157.072 181.431 152.721 188.715 154.129 189.439C155.536 190.163 158.39 180.974 158.39 180.974C158.39 180.974 166.956 180.143 169.711 181.468C169.711 181.468 162.388 187.452 163.93 187.81C165.472 188.165 173.383 182.292 173.383 182.292C173.383 182.292 181.357 183.646 180.93 188.504C180.506 193.361 177.757 194.861 176.55 194.731C175.343 194.601 168.28 191.909 168.125 192.897C167.971 193.885 172.223 197.114 175.2 197.265C175.2 197.265 169.579 203.456 165.843 201.669C162.107 199.882 161.789 197.05 159.46 195.987C157.131 194.924 155.144 194.929 156.106 196.011C157.067 197.095 161.281 198.147 162.614 200.5C163.947 202.853 165.141 204.439 161.275 203.858C157.409 203.277 151.126 200.453 150.851 197.218L150.576 193.983V193.985Z" fill="#6DA861"/>
<path d="M177.015 188.634C177.015 188.634 155.359 187.801 150.578 193.985C150.578 193.985 149.52 197.148 146.266 200.029L145.759 201.409C145.759 201.409 149.512 197.459 150.853 197.218C150.853 197.218 148.753 189.556 177.015 188.634Z" fill="#6DA861"/>
<path d="M146.264 200.029C146.264 200.029 141.615 203.462 141.293 209.595L142.135 209.67C142.135 209.67 143.62 203.328 146.302 200.847C148.985 198.366 146.262 200.027 146.262 200.027L146.264 200.029Z" fill="#6DA861"/>
<path d="M131.372 185.94C131.372 185.94 140.109 181.054 136.032 174.423C136.032 174.423 132.769 170.351 129.276 169.303C129.276 169.303 131.14 179.191 129.276 179.423C127.412 179.655 127.994 168.256 127.994 168.256C127.994 168.256 118.793 163.835 115.18 164.184C115.18 164.184 120.889 173.839 119.025 173.607C117.161 173.375 110.755 163.603 110.755 163.603C110.755 163.603 101.319 161.858 99.8046 167.442C98.2905 173.026 100.736 175.818 102.135 176.167C103.532 176.516 112.504 176.399 112.271 177.564C112.039 178.727 105.98 180.588 102.602 179.542C102.602 179.542 106.33 188.734 111.222 188.267C116.114 187.803 117.628 184.777 120.659 184.545C123.687 184.313 125.9 185.126 124.386 185.94C122.872 186.753 117.746 186.206 115.3 188.284C112.854 190.361 110.872 191.641 115.417 192.571C119.959 193.502 128.114 192.921 129.745 189.43L131.377 185.94H131.372Z" fill="#AFD295"/>
<path d="M104.115 169.186C104.115 169.186 128.579 177.098 131.375 185.938C131.375 185.938 131.257 189.892 133.705 194.43V196.174C133.705 196.174 131.142 190.241 129.745 189.428C129.745 189.428 135.22 181.751 104.117 169.186H104.115Z" fill="#6DA861"/>
<path d="M133.703 194.43C133.703 194.43 137.476 200.15 135.326 207.116L134.356 206.856C134.356 206.856 135.298 199.186 133.324 195.329C131.351 191.47 133.703 194.433 133.703 194.433V194.43Z" fill="#6DA861"/>
<path d="M145.272 179.202C145.272 179.202 133.754 172.762 139.131 164.02C139.131 164.02 143.43 158.654 148.036 157.274C148.036 157.274 145.579 170.309 148.036 170.615C150.493 170.922 149.725 155.894 149.725 155.894C149.725 155.894 161.857 150.067 166.617 150.527C166.617 150.527 159.093 163.256 161.55 162.949C164.007 162.642 172.451 149.76 172.451 149.76C172.451 149.76 184.89 147.46 186.886 154.82C188.882 162.18 185.658 165.862 183.816 166.322C181.973 166.782 170.148 166.629 170.455 168.162C170.762 169.695 178.747 172.149 183.201 170.769C183.201 170.769 178.288 182.884 171.837 182.271C165.388 181.657 163.392 177.671 159.398 177.364C155.406 177.057 152.489 178.131 154.485 179.204C156.481 180.277 163.237 179.555 166.463 182.294C169.688 185.033 172.298 186.719 166.31 187.946C160.322 189.173 149.571 188.406 147.422 183.806L145.272 179.206V179.202Z" fill="#AFD295"/>
<path d="M181.205 157.118C181.205 157.118 148.959 167.545 145.272 179.2C145.272 179.2 145.426 184.413 142.201 190.393V192.693C142.201 192.693 145.579 184.873 147.422 183.8C147.422 183.8 140.205 173.68 181.205 157.118Z" fill="#6DA861"/>
<path d="M142.201 190.395C142.201 190.395 137.228 197.936 140.063 207.116L141.342 206.774C141.342 206.774 140.101 196.662 142.703 191.577C145.304 186.491 142.201 190.395 142.201 190.395Z" fill="#6DA861"/>
<path d="M144.884 227.024C157.342 227.024 167.444 216.938 167.444 204.495H122.324C122.324 216.936 132.424 227.024 144.884 227.024Z" fill="#5B88EA"/>
<path d="M150.435 226.851C149.518 226.966 148.582 227.024 147.633 227.024C135.175 227.024 125.075 216.936 125.075 204.495H130.679C130.679 215.99 139.299 225.473 150.437 226.851H150.435Z" fill="#739AF0"/>
<path d="M167.755 228.169H122.013C122.013 226.634 123.258 225.39 124.796 225.39H164.972C166.51 225.39 167.755 226.634 167.755 228.169Z" fill="#5B88EA"/>
<path d="M167.956 204.495H121.582V205.187H167.956V204.495Z" fill="#739AF0"/>
<path d="M367.1 217.417C367.1 217.417 366.443 227.988 364.396 228.14C364.123 228.159 354.008 228.159 354.008 228.159L341.096 228.084C341.096 228.084 341.181 224.977 344.956 224.321C348.73 223.665 355.049 221.016 357.335 216.033C359.74 210.792 367.102 217.415 367.102 217.415L367.1 217.417Z" fill="#0B0754"/>
<path d="M373.99 92.3918C373.99 92.3918 367.893 95.8524 366.187 95.8524C364.481 95.8524 357.781 94.5598 355.915 95.5117C354.047 96.4636 350.667 100.299 350.033 101.551C348.892 103.802 354.625 102.808 357.333 100.891C357.725 100.612 358.216 100.51 358.685 100.612C360.088 100.917 363.003 101.447 364.411 100.927C366.304 100.227 376.272 99.4514 376.272 99.4514L373.988 92.394L373.99 92.3918Z" fill="#F6A071"/>
<path d="M420.37 45.2472C420.37 45.2472 414.052 90.1004 403.587 94.1168C398.424 96.0994 375.604 100.593 368.855 101.044C368.855 101.044 367.202 99.7048 367.603 94.2531C367.603 94.2531 391.511 85.4877 394.908 80.7217C399.962 73.6281 391.771 51.7403 398.113 45.0769C404.455 38.4134 415.139 35.5513 420.37 45.2472Z" fill="#739AF0"/>
<path d="M418.242 139.743C416.4 142.865 414.267 145.791 412.069 148.564C405.276 157.127 397.883 164.186 396.595 170.86C396.339 172.191 395.932 173.622 395.401 175.132C394.863 176.661 394.198 178.267 393.43 179.93C390.549 186.183 386.237 193.187 381.934 199.556C374.493 210.564 368.405 217.952 368.405 217.952C368.405 217.952 366.454 219.47 360.875 219.468C359.323 219.468 354.096 218.618 354.096 218.618C354.61 217.334 360.779 202.719 368.264 184.145C371.303 176.604 374.536 168.584 377.654 160.849C378.07 159.816 378.485 158.788 378.895 157.768C379.848 155.4 380.786 153.07 381.703 150.802C388.732 133.361 394.33 119.471 394.33 119.471C394.33 119.471 422.422 108.845 425.339 115.73C427.745 121.407 425.785 126.97 418.24 139.745L418.242 139.743Z" fill="#1E3151"/>
<path d="M396.806 187.216C396.806 187.216 405.729 192.942 404.863 194.801C404.748 195.048 399.817 203.869 399.817 203.869L393.456 215.092C393.456 215.092 390.78 213.503 392.046 209.891C393.313 206.279 394.076 199.48 390.835 195.057C387.425 190.406 396.806 187.213 396.806 187.213V187.216Z" fill="#0B0754"/>
<path d="M391.735 198.194C391.735 198.194 398.015 192.367 398.998 188.764C398.998 188.764 376.018 161.269 371.034 155.108C370.806 154.825 370.864 154.514 371.167 154.175C374.93 149.937 416.741 141.323 422.204 132.835C424.087 129.911 425.154 127.132 425.736 124.706C426.975 119.525 425.996 115.947 425.996 115.947L384.239 114.742C384.239 114.742 349.472 136.359 345.536 151.1C341.601 165.839 391.735 198.198 391.735 198.198V198.194Z" fill="#1D3774"/>
<path d="M371.167 154.175C374.93 149.937 416.741 141.323 422.204 132.835C424.087 129.911 425.154 127.132 425.736 124.706V119.429L407.989 116.641C407.989 116.641 402.956 132.106 388.05 137.905C374.088 143.338 371.444 152.976 371.167 154.175Z" fill="#1E3151"/>
<path d="M395.665 42.419C404.112 44.5997 418.116 36.7841 418.116 36.7841C418.116 36.7841 412.678 33.134 410.663 25.1183C410.561 24.7137 410.469 24.3006 410.386 23.8746C409.501 23.6872 407.833 23.3337 406.048 22.9568L399.597 28.7279C399.597 28.7279 399.745 31.1259 400.551 35.2445C400.689 35.9643 400.851 36.7352 401.037 37.5572C397.574 39.6995 395.665 42.419 395.665 42.419Z" fill="#F6A071"/>
<path d="M427.06 77.3847C425.851 93.6355 427.442 118.351 426.068 122.632C424.885 126.325 411.386 124.129 405.999 122.896C404.005 122.44 401.589 121.789 399.094 121.018C392.136 118.867 384.555 115.794 383.74 113.513C383.708 113.424 383.682 113.336 383.665 113.251C383.591 112.919 383.608 112.61 383.68 112.295C383.951 111.132 384.996 109.876 385.12 106.996C385.256 103.783 385.237 99.9987 385.356 95.9269C385.363 95.4691 385.369 94.9686 385.418 94.5129V94.3468C385.422 94.2595 385.425 94.1743 385.427 94.087C385.544 89.5488 385.781 84.7764 386.056 80.0445C386.231 77.0716 386.433 74.1286 386.668 71.309C387.276 64.0301 388.092 57.5562 389.176 53.4631C390.946 46.7912 394.846 42.4404 398.395 39.2503L400.962 37.0505C403.828 37.6744 407.215 37.2613 410.279 35.811C413.595 34.2394 414.741 33.1107 415.318 33.5367C422.976 39.4377 428.487 57.52 427.058 77.3868L427.06 77.3847Z" fill="#5B88EA"/>
<path d="M399.096 121.02C392.138 118.869 384.557 115.796 383.742 113.515C383.71 113.426 383.685 113.338 383.667 113.253C383.672 112.934 383.676 112.616 383.682 112.297C383.953 111.134 384.998 109.878 385.122 106.999C385.258 103.785 385.239 100.001 385.359 95.929C385.365 95.4711 385.371 94.9707 385.42 94.5149V94.3488C385.425 94.2615 385.427 94.1763 385.429 94.089L413.559 58.2993C413.559 58.2993 432.468 97.6199 399.094 121.02H399.096Z" fill="#739AF0"/>
<path d="M399.597 28.7301C399.597 28.7301 399.745 31.128 400.551 35.2466C406.852 33.2128 409.71 27.529 410.663 25.1183C410.561 24.7137 410.469 24.3006 410.386 23.8746C409.501 23.6872 407.833 23.3337 406.048 22.9568L399.597 28.7279V28.7301Z" fill="#F6A071"/>
<path d="M398.749 32.3609C398.749 32.3609 412.489 30.0716 410.93 21.5491C409.371 13.0265 410.094 6.99127 401.254 8.09226C392.415 9.19326 391.31 12.756 391.138 15.7268C390.965 18.6976 395.134 32.7379 398.749 32.3609Z" fill="#F6A071"/>
<path d="M378.409 102.842L344.107 103.574L334.355 73.6025L333.144 73.9944L343.452 105.678L378.453 104.933L378.409 102.842Z" fill="#739AF0"/>
<path d="M377.752 106.602C377.752 106.602 366.505 109.563 362.289 109.254C358.071 108.943 354.565 106.939 354.034 105.893C353.503 104.848 352.388 102.993 355.26 103.336C358.131 103.678 362.05 104.288 362.174 103.736C362.295 103.184 359.832 103.238 359.832 103.238C359.832 103.238 359.088 102.156 360.026 102.118C360.962 102.079 363.696 101.338 364.711 101.845C365.727 102.352 366.665 104.224 367.407 104.145C368.149 104.066 376.818 100.246 376.818 100.246L377.754 106.602H377.752Z" fill="#F6A071"/>
<path d="M417.583 47.0871C417.583 47.0871 416.255 92.3619 406.298 97.507C401.384 100.045 379.202 107.024 372.542 108.217C372.542 108.217 370.751 107.067 370.548 101.604C370.548 101.604 393.343 90.26 396.192 85.149C400.433 77.5422 389.873 56.6893 395.441 49.37C401.009 42.0506 411.311 38.0278 417.583 47.0892V47.0871Z" fill="#5B88EA"/>
<path d="M410.663 25.1184C410.663 25.1184 410.821 22.1944 409.015 20.5185C409.015 20.5185 409.644 17.586 408.481 17.1026C407.319 16.6192 407.078 19.0853 406.545 18.6977C406.012 18.3122 403.641 16.4744 402.626 13.7677C401.608 11.061 392.308 14.3384 391.225 14.8261C390.142 15.3138 386.657 13.5249 385.979 12.0747C385.979 12.0747 387.915 10.5286 388.785 9.368C389.655 8.20737 395.755 0.379042 404.272 2.60232C412.789 4.8256 413.951 8.88458 413.467 12.3643C412.983 15.844 414.152 23.9471 410.665 25.1141L410.663 25.1184Z" fill="#444444"/>
<path d="M452.226 226.943C446.861 221.47 437.407 217.701 426.486 217.258V199.158H443.357C443.775 199.158 444.148 198.794 444.385 198.234C444.549 197.84 444.649 197.352 444.649 196.822V196.007C444.649 194.72 444.067 193.668 443.357 193.668H426.486V150.559C426.486 149.369 425.512 148.396 424.32 148.396C423.128 148.396 422.153 149.369 422.153 150.559V193.668H405.283C404.573 193.668 403.99 194.72 403.99 196.007V196.822C403.99 197.369 404.097 197.874 404.272 198.274C404.509 198.813 404.875 199.16 405.283 199.16H422.153V217.26C411.232 217.703 401.781 221.472 396.414 226.945C396.023 227.343 395.657 227.748 395.311 228.163H453.326C452.983 227.748 452.614 227.343 452.224 226.945L452.226 226.943Z" fill="#2A55A6"/>
<path d="M426.486 217.339C418.867 218.043 412.32 221.715 408.528 226.945C408.24 227.343 407.968 227.748 407.714 228.163H402.346C402.602 227.748 402.873 227.343 403.161 226.945C407.39 221.11 415.052 217.215 423.802 217.215C424.71 217.215 425.606 217.258 426.486 217.339Z" fill="#3B6ECE"/>
<path d="M394.844 133.899H452.297C453.734 133.899 454.9 135.064 454.9 136.5V147.373C454.9 148.809 453.734 149.973 452.297 149.973H394.844C393.407 149.973 392.242 148.809 392.242 147.375V136.502C392.242 135.066 393.409 133.904 394.844 133.904V133.899Z" fill="#739AF0"/>
<path d="M134.266 51.176C133.302 53.7634 131.632 56.764 129.881 57.5115C127.894 58.3569 127.067 59.5538 127.067 59.5538L125.463 58.6231L123.548 57.5115C123.548 57.5115 123.593 57.2985 123.686 56.9535C123.778 56.6085 123.923 56.1294 124.117 55.597C124.117 55.597 124.706 54.8431 124.345 53.8933C123.985 52.9478 124.058 51.4826 124.672 50.5904C125.286 49.6981 125.879 47.5003 126.25 47.5664C127.145 47.7197 125.808 50.7416 126.192 51.3016C126.54 51.8085 126.973 51.6338 127.054 51.5955C127.058 51.5913 127.064 51.5913 127.069 51.587C129.583 50.4839 132.632 44.5338 133.982 45.3367C134.486 45.637 134.682 50.075 134.27 51.176H134.266Z" fill="#F6A071"/>
<path d="M125.57 54.7772L128.719 56.9877C128.941 57.1431 129.253 57.0899 129.408 56.8684L137.476 45.4049C137.631 45.1834 137.578 44.8725 137.356 44.717L134.206 42.5065C133.985 42.3511 133.673 42.4043 133.518 42.6258L125.45 54.0893C125.295 54.3108 125.348 54.6217 125.57 54.7772Z" fill="#232065"/>
<path d="M128.453 56.8024L130.3 58.0972C130.468 58.2165 130.705 58.1739 130.824 58.0056L139.028 46.3505C139.147 46.1822 139.107 45.9458 138.936 45.8266L137.09 44.5318C136.921 44.4125 136.684 44.453 136.565 44.6234L128.361 56.2786C128.242 56.4468 128.284 56.6832 128.453 56.8024Z" fill="#120E59"/>
<path d="M80.392 38.3303C80.392 38.3303 96.4159 66.2406 102.229 71.375L123.544 55.5054C123.544 55.5054 126.636 56.453 127.992 59.5537C127.992 59.5537 115.048 85.8881 102.304 87.0061C89.5598 88.122 71.6721 55.4415 71.6721 55.4415L80.392 38.3325V38.3303Z" fill="#3B6ECE"/>
<path d="M44.1282 228.161H34.8688C33.7023 227.528 32.6659 226.082 32.3374 223.925C31.8854 220.946 28.5415 219.323 27.8186 216.885C27.0978 214.451 30.802 211.02 30.802 211.02L31.4226 210.221L32.0666 209.393L38.2126 210.839C38.2126 210.839 38.364 212.302 38.4578 214.163C38.5239 215.507 38.5602 217.057 38.4855 218.42C38.3043 221.668 39.3961 225.167 42.2857 225.799C44.4225 226.265 44.3265 227.533 44.1325 228.161H44.1282Z" fill="#120E59"/>
<path d="M97.8614 228.161H76.6875C75.6703 226.919 76.0435 222.341 76.1992 220.846C76.2312 220.545 76.2525 220.369 76.2525 220.369C76.2525 220.369 83.4839 214.593 84.4755 219.016C84.5054 219.155 84.5416 219.291 84.5822 219.425C85.834 223.561 91.4446 225.441 94.6861 225.965C96.793 226.306 97.5714 227.401 97.8593 228.163L97.8614 228.161Z" fill="#120E59"/>
<path d="M93.8269 110.135C93.8269 110.135 92.7286 123.814 91.4384 140.256C89.6855 162.591 87.5764 190.029 87.3674 195.225C87.0071 204.25 85.5591 218.687 85.5591 218.687C85.5591 218.687 82.1278 222.115 75.259 220.671C75.259 220.671 69.1386 200.063 67.3899 178.256C67.3622 177.899 67.3366 177.539 67.3089 177.179C65.6818 154.98 63.1526 108.238 63.1526 108.238L93.829 110.133L93.8269 110.135Z" fill="#5B88EA"/>
<path d="M93.8268 110.135C93.8268 110.135 92.7286 123.814 91.4384 140.256L67.3877 178.258C67.36 177.901 67.3344 177.541 67.3067 177.181C65.6796 154.982 63.1504 108.24 63.1504 108.24L93.8268 110.135Z" fill="#739AF0"/>
<path d="M88.8132 111.76C88.8132 111.76 69.0233 161.299 56.0128 184.581C43.0001 207.862 38.9355 214.359 38.9355 214.359C38.9355 214.359 31.4801 211.382 30.802 209.35C30.802 209.35 35.7772 164.406 44.4907 153.449C49.4147 147.258 55.1981 128.68 55.469 122.182C55.7398 115.685 57.2304 102.827 57.2304 102.827L88.811 111.76H88.8132Z" fill="#5B88EA"/>
<path d="M83.8872 39.5419C76.1546 41.9782 62.7751 35.402 62.7751 35.402C62.7751 35.402 69.9042 30.0589 69.531 18.9468L75.5106 23.7596L79.5731 27.0285C79.5731 27.0285 79.556 28.9558 79.1125 32.3312C78.9952 33.2192 78.8501 34.2095 78.6646 35.2913C81.985 37.11 83.8893 39.5419 83.8893 39.5419H83.8872Z" fill="#F6A071"/>
<path d="M79.5709 27.0285C79.5709 27.0285 79.5538 28.9558 79.1103 32.3312C74.6106 31.5603 69.5054 24.2963 69.5054 24.2963C71.7957 23.6361 73.8024 23.5169 75.5084 23.7596L79.5709 27.0285Z" fill="#F6A071"/>
<path d="M81.9359 26.8455C81.9359 26.8455 69.1621 28.9645 67.9636 20.9998C66.7651 13.0352 64.3084 7.94551 72.4142 6.25675C80.5178 4.568 82.565 7.36839 83.6121 9.92815C84.6592 12.4879 85.2285 26.0874 81.9359 26.8455Z" fill="#F6A071"/>
<path d="M94.6798 111.277C94.4474 111.471 94.1766 111.586 93.8673 111.586C90.9628 111.545 82.4946 113.157 75.3293 112.423C69.2878 111.843 63.9416 110.057 58.2008 107.486C57.4373 107.145 55.6844 106.208 55.7228 105.359C55.7484 104.426 55.8422 103.076 55.9574 101.374C56.3625 95.4562 57.0727 85.2768 56.3817 73.5343C56.2581 71.3472 56.1919 69.1793 56.1834 67.0433C56.1237 51.1268 59.2841 37.1291 65.6348 32.3908C66.1764 32.0032 69.5075 33.6281 72.5676 35.1358C75.3954 36.5286 78.221 36.6819 80.893 36.1431L83.5651 38.5006C86.8172 41.5161 90.3806 45.6155 91.9289 51.8424C93.2468 57.1408 94.0209 66.6919 94.4452 76.5924C94.6393 81.0772 94.795 85.6026 94.8334 89.8958V90.0492C94.8718 90.4751 94.8718 90.9393 94.8718 91.3652C95.0274 102.386 94.8718 111.126 94.6777 111.281L94.6798 111.277Z" fill="#2A55A6"/>
<path d="M55.9595 101.372C56.3647 95.4542 57.0748 85.2748 56.3838 73.5323C56.2602 71.3453 56.1941 69.1774 56.1855 67.0414C58.832 60.6335 60.9944 55.9846 60.9944 55.9846H67.6628C67.6628 55.9846 72.5505 89.3296 55.9595 101.372Z" fill="#3B6ECE"/>
<path d="M53.9167 117.463L25.4794 113.417C21.7774 112.891 18.3184 115.483 17.7917 119.18L16.0345 131.487C15.5077 135.184 18.103 138.638 21.8051 139.164L50.2424 143.21C53.9444 143.736 57.4034 141.144 57.9301 137.447L59.6852 125.141C60.2119 121.444 57.6166 117.989 53.9146 117.463H53.9167Z" fill="#050E1D"/>
<path d="M55.5224 121.133C54.7227 119.135 52.9975 117.557 50.8116 117.023H50.8074C50.592 116.971 50.3745 116.927 50.1506 116.895L44.4887 116.09L44.8661 113.434C44.9514 112.842 44.8 112.25 44.4375 111.769C44.075 111.29 43.5482 110.977 42.9554 110.891L41.4776 110.681L35.5321 109.835L34.4594 109.684C33.2311 109.509 32.088 110.365 31.9132 111.592L31.5357 114.248L21.7602 112.855C18.0453 112.327 14.5736 114.929 14.0426 118.639L12.2662 131.088C11.7373 134.798 14.3433 138.265 18.0581 138.793L46.4442 142.835C46.9454 142.908 47.4401 142.92 47.9242 142.882H47.9285C48.7068 142.824 49.4532 142.629 50.1442 142.324C52.2319 141.404 53.8164 139.46 54.1597 137.051L55.9361 124.602C56.1088 123.388 55.9468 122.202 55.5181 121.135L55.5224 121.133ZM33.3078 111.788C33.3612 111.417 33.6533 111.136 34.0052 111.079C34.0862 111.066 34.1715 111.064 34.259 111.075L35.5214 111.253L40.2002 111.92L42.7507 112.282C43.2092 112.348 43.5291 112.774 43.4651 113.23L43.0876 115.885L32.9304 114.439L33.31 111.786L33.3078 111.788Z" fill="#132543"/>
<path d="M41.8486 105.766C41.855 105.614 41.8657 105.459 41.8763 105.299C41.9361 104.505 43.4288 102.518 43.4288 102.518L39.6841 100.578L38.202 103.025C35.9628 104.803 35.9223 104.835 36.3296 108.242C36.6836 111.196 34.7494 111.23 34.7942 113.34C34.8411 115.449 37.5622 114.414 37.5622 114.414C41.7783 112.438 42.128 111.441 41.9979 109.437C42.3967 110.003 42.8445 110.333 43.2262 110.086C43.561 109.869 42.8936 109.005 42.6014 107.007C42.5588 106.709 42.2026 106.208 41.8465 105.768L41.8486 105.766Z" fill="#F6A071"/>
<path d="M39.6307 104.041C42.032 104.509 44.6337 104.32 44.6337 104.32C44.6337 104.32 51.7627 82.3296 52.6797 80.3214C53.5967 78.3132 73.8536 54.5365 73.8536 54.5365L65.4151 33.4473C65.4151 33.4473 43.5055 69.993 41.2813 75.1295C37.6048 83.6159 36.3296 102.642 36.3296 102.642C36.3296 102.642 37.7435 103.677 39.6307 104.043V104.041Z" fill="#2A55A6"/>
<path d="M67.953 20.2353C67.953 20.2353 69.2645 20.0159 69.0534 18.2143C68.8423 16.4106 68.8444 14.0552 70.3116 14.4939C71.7787 14.9326 71.8534 16.106 72.4548 15.4203C73.0583 14.7346 73.0689 11.8469 77.4363 11.6467C81.8038 11.4465 83.578 12.9628 85.6103 12.0726C87.6405 11.1803 87.7493 8.11159 87.7493 8.11159C87.7493 8.11159 87.1713 9.20832 86.2991 9.55544C86.2991 9.55544 89.6877 4.92787 85.7639 1.75267C81.84 -1.4204 77.8415 0.655934 75.5704 0.794357C70.5675 1.09676 67.3367 1.39703 65.7032 4.67871C64.0697 7.96039 64.7435 17.075 67.953 20.2353Z" fill="#313131"/>
<mask id="mask0_2314_341" style="mask-type:luminance" maskUnits="userSpaceOnUse" x="139" y="1" width="185" height="175">
<path d="M299.795 155.219C272.153 180.605 237.762 180.556 202.778 166.48C182.304 158.247 160.648 143.957 148.878 125.543C132.959 100.976 138.512 79.8422 150.789 53.412C167.082 18.308 193.454 -2.5022 232.273 1.79103C282.082 7.29812 313.527 43.4733 322.129 91.523C326.465 115.726 317.322 139.125 299.793 155.219H299.795Z" fill="white"/>
</mask>
<g mask="url(#mask0_2314_341)">
<path d="M248.849 106.773C248.849 106.773 235.924 104.175 233.766 104.379C231.608 104.584 224.127 107.942 224.041 108.555C223.956 109.171 224.329 109.659 225.636 109.712C226.946 109.765 231.234 109.101 230.974 109.629C230.714 110.157 218.388 112.913 218.315 115.406C218.245 117.9 225.154 122.351 230.897 122.513C236.642 122.672 247.744 115.724 248.71 115.613C256.891 114.684 248.847 106.771 248.847 106.771L248.849 106.773Z" fill="#F6A071"/>
<path d="M319.446 78.0876C314.399 84.3656 310.189 89.2338 307.971 91.0035C306.21 92.4111 303.977 93.8507 301.42 95.2903C282.993 105.676 247.553 116.213 247.553 116.213C247.553 116.213 247.527 116.196 247.482 116.162C247.036 115.839 244.599 113.967 243.057 110.851C241.707 108.125 241.987 106.434 242.388 105.549C242.631 105.01 242.921 104.765 242.921 104.765C242.921 104.765 285.392 77.6595 288.787 74.8357C290.713 73.2343 297.688 57.0175 303.371 43.2668C304.165 44.4168 304.935 45.586 305.681 46.77C311.641 56.2211 316.243 66.7731 319.449 78.0855L319.446 78.0876Z" fill="#739AF0"/>
<path d="M319.736 126.086C319.47 126.844 319.188 127.598 318.894 128.346C317.516 131.857 315.855 135.25 313.932 138.499C312.791 140.433 311.558 142.316 310.238 144.141C307.276 148.24 303.879 152.054 300.104 155.521C300.123 155.238 300.147 154.955 300.166 154.671C300.196 154.235 300.228 153.8 300.258 153.37C300.326 152.416 300.394 151.477 300.458 150.557C300.484 150.199 300.509 149.846 300.535 149.494C300.697 147.218 300.851 145.059 300.996 143.033C301.038 142.45 301.077 141.879 301.117 141.319C301.128 141.153 301.141 140.987 301.151 140.821C301.177 140.493 301.198 140.165 301.222 139.843C301.243 139.551 301.264 139.264 301.284 138.979C301.284 138.949 301.288 138.921 301.29 138.891C301.309 138.602 301.33 138.314 301.35 138.031C301.384 137.552 301.418 137.085 301.45 136.625C301.469 136.34 301.49 136.059 301.51 135.782C301.539 135.35 301.569 134.928 301.599 134.519C301.608 134.421 301.614 134.321 301.62 134.221C301.635 134.025 301.648 133.831 301.663 133.64C301.67 133.542 301.676 133.448 301.682 133.354C301.682 133.342 301.682 133.331 301.682 133.318C301.708 132.952 301.734 132.592 301.759 132.245C301.759 132.226 301.761 132.209 301.761 132.189C301.78 131.936 301.797 131.687 301.815 131.444C301.819 131.363 301.825 131.282 301.832 131.203C301.842 131.065 301.853 130.929 301.859 130.792C301.868 130.682 301.876 130.573 301.883 130.465C301.936 129.706 301.987 129.014 302.03 128.392C302.036 128.303 302.043 128.216 302.049 128.131C302.056 128.041 302.062 127.956 302.068 127.871C302.079 127.707 302.092 127.549 302.102 127.396C302.181 126.299 302.237 125.498 302.269 125.03C302.273 124.981 302.275 124.936 302.279 124.896C302.279 124.883 302.279 124.87 302.284 124.855C302.288 124.813 302.288 124.774 302.29 124.74C302.301 124.608 302.305 124.54 302.305 124.54L319.734 126.084L319.736 126.086Z" fill="#FB867E"/>
<path d="M319.736 126.086C319.47 126.844 319.188 127.598 318.894 128.346C317.516 131.857 315.855 135.25 313.932 138.499C312.791 140.433 311.558 142.316 310.238 144.141C307.276 148.24 303.879 152.054 300.104 155.521C300.123 155.238 300.147 154.955 300.166 154.671C300.196 154.235 300.228 153.8 300.258 153.37C300.326 152.416 300.394 151.477 300.458 150.557C300.484 150.199 300.509 149.846 300.535 149.494C300.697 147.218 300.851 145.059 300.996 143.033C301.038 142.45 301.077 141.879 301.117 141.319C301.128 141.153 301.141 140.987 301.151 140.821C301.177 140.493 301.198 140.165 301.222 139.843C301.243 139.551 301.264 139.264 301.284 138.979C301.284 138.949 301.288 138.921 301.29 138.891C301.309 138.602 301.33 138.314 301.35 138.031C301.384 137.552 301.418 137.085 301.45 136.625C301.469 136.34 301.49 136.059 301.51 135.782C301.539 135.35 301.569 134.928 301.599 134.519C301.608 134.421 301.614 134.321 301.62 134.221C301.635 134.025 301.648 133.831 301.663 133.64C301.67 133.542 301.676 133.448 301.682 133.354C301.682 133.342 301.682 133.331 301.682 133.318C301.708 132.952 301.734 132.592 301.759 132.245C301.759 132.226 301.761 132.209 301.761 132.189C301.78 131.936 301.797 131.687 301.815 131.444C301.819 131.363 301.825 131.282 301.832 131.203C301.842 131.065 301.853 130.929 301.859 130.792C301.868 130.682 301.876 130.573 301.883 130.465C301.936 129.706 301.987 129.014 302.03 128.392C302.036 128.303 302.043 128.216 302.049 128.131C302.056 128.041 302.062 127.956 302.068 127.871C302.079 127.707 302.092 127.549 302.102 127.396C302.181 126.299 302.237 125.498 302.269 125.03C302.273 124.981 302.275 124.936 302.279 124.896C302.279 124.883 302.279 124.87 302.284 124.855C302.288 124.813 302.288 124.774 302.29 124.74C302.301 124.608 302.305 124.54 302.305 124.54L319.734 126.084L319.736 126.086Z" fill="#3662C1"/>
<path d="M322.541 91.538C324.697 103.574 323.532 115.336 319.736 126.086C319.47 126.844 319.188 127.598 318.894 128.346C317.516 131.857 315.855 135.25 313.932 138.499C312.791 140.433 311.558 142.316 310.238 144.141C306.451 143.596 303.371 143.148 301.471 143.099C301.305 143.093 301.147 143.072 300.996 143.033C300.571 142.935 300.196 142.722 299.87 142.424C299.494 142.098 299.85 124.63 301.002 102.625C301.036 101.777 301.068 100.844 301.179 100.001L301.188 99.69C301.26 98.2376 301.335 96.7704 301.416 95.2924C301.465 94.4385 301.512 93.5824 301.565 92.722C301.921 86.855 302.363 80.8518 302.842 74.8655C302.889 74.2905 302.934 73.7177 302.979 73.1469C303.736 63.9344 304.625 54.8773 305.674 46.7764C311.635 56.2274 316.237 66.7795 319.442 78.0918C320.683 82.4681 321.715 86.9573 322.536 91.5422L322.541 91.538Z" fill="#5B88EA"/>
<path d="M163.955 124.046C163.744 117.885 163.431 110.549 163.015 102.625C162.981 101.777 162.944 100.844 162.838 100.001L162.825 99.69C162.791 98.9872 162.759 98.2824 162.721 97.5711C162.701 97.1707 162.678 96.7704 162.657 96.3679C162.593 95.1604 162.522 93.9444 162.448 92.7199C162.091 86.8529 161.648 80.8496 161.174 74.8634C161.123 74.2884 161.079 73.7155 161.032 73.1448C160.332 64.6095 159.518 56.2083 158.566 48.578V48.5737C158.56 48.5311 158.554 48.4885 158.549 48.446C158.43 47.4876 158.304 46.5357 158.18 45.603C157.931 43.7226 157.673 41.8932 157.404 40.1321C157.035 40.7326 156.673 41.3417 156.319 41.9507C154.212 45.5476 152.252 49.3233 150.427 53.2567C146.703 61.2724 143.547 69.9419 140.907 79.0693C140.89 79.1268 140.873 79.1843 140.858 79.2439C139.998 82.2232 139.404 85.1663 139.054 88.071C139.003 88.4842 138.956 88.8994 138.917 89.3104C137.648 102.444 141.395 114.731 148.509 125.711C148.753 126.09 149.002 126.467 149.256 126.844C149.757 127.59 150.277 128.331 150.813 129.063C151.188 129.583 151.574 130.098 151.968 130.611C152.049 130.72 152.133 130.827 152.218 130.935C154.935 134.449 157.995 137.807 161.341 140.997C161.882 141.513 162.431 142.026 162.987 142.533C163.124 142.659 163.264 142.784 163.403 142.91C163.676 142.795 163.925 142.629 164.151 142.424C164.392 142.213 164.335 134.988 163.957 124.046H163.955Z" fill="#2A55A6"/>
<path d="M163.955 124.046C154.048 113.677 145.788 100.953 139.052 88.0731C139.401 85.1662 139.996 82.2231 140.856 79.2438C140.873 79.1863 140.89 79.1288 140.905 79.0692C143.547 69.9418 146.703 61.2702 150.425 53.2566C156.507 61.9368 160.769 69.9269 161.032 73.1447C161.079 73.7155 161.123 74.2904 161.175 74.8633C161.648 80.8495 162.092 86.8528 162.448 92.7198C162.522 93.9443 162.593 95.1603 162.657 96.3678C162.678 96.7703 162.699 97.1706 162.721 97.571C162.757 98.2801 162.791 98.9872 162.825 99.6899L162.838 100.001C162.945 100.844 162.981 101.777 163.015 102.624C163.429 110.549 163.744 117.885 163.955 124.046Z" fill="#3B6ECE"/>
<path d="M208.947 107.546C208.947 107.546 222.131 107.559 224.206 108.187C226.281 108.815 232.947 113.588 232.906 114.205C232.868 114.825 232.405 115.23 231.113 115.023C229.821 114.816 225.747 113.317 225.897 113.886C226.046 114.454 237.581 119.597 237.156 122.055C236.732 124.512 229.074 127.507 223.412 126.527C217.75 125.547 208.248 116.537 207.325 116.237C199.49 113.707 208.945 107.544 208.945 107.544L208.947 107.546Z" fill="#F6A071"/>
<path d="M211.336 112.042C210.133 114.101 208.551 115.547 207.525 116.348C206.9 116.835 206.482 117.082 206.482 117.082C206.482 117.082 181.114 107.597 162.723 97.5732C156.645 94.2596 151.329 90.8863 147.944 87.7814C146.415 86.378 143.933 83.2433 140.909 79.0714C143.551 69.9441 146.708 61.2724 150.429 53.2588C152.254 49.3255 154.214 45.5497 156.321 41.9529C157.055 44.1357 157.809 46.3654 158.569 48.5759V48.5801C162.597 60.3162 166.726 71.5647 168.197 72.9702C171.389 76.0219 211.893 105.981 211.893 105.981C211.893 105.981 212.415 106.488 212.56 107.578C212.692 108.566 212.509 110.038 211.338 112.046L211.336 112.042Z" fill="#2A55A6"/>
</g>
</g>
<defs>
<clipPath id="clip0_2314_341">
<rect width="492" height="229" fill="white"/>
</clipPath>
</defs>
</svg>
