<svg width="336" height="345" viewBox="0 0 336 345" fill="none" xmlns="http://www.w3.org/2000/svg">
<path opacity="0.72" d="M37.4949 5.65527H228.645C234.666 5.65527 239.554 10.5436 239.554 16.5631V197.946C239.554 203.966 234.666 208.854 228.645 208.854H37.4949C31.4748 208.854 26.5859 203.966 26.5859 197.946V16.5631C26.5859 10.5436 31.4748 5.65527 37.4949 5.65527Z" fill="url(#paint0_linear_25_10811)"/>
<path d="M303.199 332.047C303.199 339.203 281.053 345 253.731 345C226.41 345 204.264 339.203 204.264 332.047C204.264 324.891 226.41 319.094 253.731 319.094C281.053 319.094 303.199 324.894 303.199 332.047Z" fill="#5A87C3"/>
<path d="M253.731 341.026C279.399 341.026 300.208 335.577 300.208 328.855C300.208 322.134 279.399 316.685 253.731 316.685C228.062 316.685 207.254 322.134 207.254 328.855C207.254 335.577 228.062 341.026 253.731 341.026Z" fill="#72ACFB"/>
<path d="M93.3868 47.2748C93.3868 57.6713 87.2091 66.6216 78.3197 70.6604C75.0863 72.1298 71.4913 72.9484 67.7077 72.9484C63.9242 72.9484 60.3292 72.1298 57.0957 70.6604C48.2089 66.6216 42.0312 57.6713 42.0312 47.2748C42.0312 33.0952 53.5265 21.5986 67.7077 21.5986C81.8889 21.5986 93.3842 33.0926 93.3842 47.2748H93.3868Z" fill="url(#paint1_linear_25_10811)"/>
<path opacity="0.72" d="M73.6139 40.4472C73.6139 43.6803 70.9926 46.3013 67.7591 46.3013C64.5257 46.3013 61.9043 43.6803 61.9043 40.4472C61.9043 37.2141 64.5257 34.593 67.7591 34.593C70.9926 34.593 73.6139 37.2141 73.6139 40.4472Z" fill="url(#paint2_linear_25_10811)"/>
<path opacity="0.72" d="M78.3197 59.5305V70.6629C75.0863 72.1323 71.4913 72.9509 67.7077 72.9509C63.9242 72.9509 60.3292 72.1323 57.0957 70.6629V59.5305C57.0957 53.6712 61.8451 48.9197 67.7077 48.9197C73.5703 48.9197 78.3197 53.6712 78.3197 59.5305Z" fill="url(#paint3_linear_25_10811)"/>
<path d="M173.285 31.3367H111.291C109.499 31.3367 108.045 29.8854 108.045 28.0907C108.045 26.2986 109.499 24.8447 111.291 24.8447H173.285C175.077 24.8447 176.528 26.2986 176.528 28.0907C176.528 29.8829 175.074 31.3367 173.285 31.3367Z" fill="url(#paint4_linear_25_10811)"/>
<path d="M164.212 45.8133H111.291C109.499 45.8133 108.045 44.362 108.045 42.5673C108.045 40.7751 109.499 39.3213 111.291 39.3213H164.212C166.004 39.3213 167.458 40.7751 167.458 42.5673C167.458 44.3594 166.004 45.8133 164.212 45.8133Z" fill="url(#paint5_linear_25_10811)"/>
<path d="M200.301 60.2898H111.291C109.499 60.2898 108.045 58.8386 108.045 57.0438C108.045 55.2517 109.499 53.7979 111.291 53.7979H200.301C202.094 53.7979 203.548 55.2517 203.548 57.0438C203.548 58.836 202.094 60.2898 200.301 60.2898Z" fill="url(#paint6_linear_25_10811)"/>
<g opacity="0.52">
<path d="M47.2734 134.093L62.8209 118.547L68.748 124.476L85.7649 107.464L98.9027 120.6L104.262 115.239H115.646L132.57 98.3146L146.227 111.97L158.332 99.8692L164.907 106.441L197.267 74.0872L223.651 100.471V134.093H47.2734Z" fill="url(#paint7_linear_25_10811)"/>
</g>
<g opacity="0.64">
<path d="M78.7324 134.093L90.0159 122.811L98.5902 131.382L109.38 120.595L114.083 125.298L130.798 108.587L139.915 117.7H150.522L157.04 111.183L160.904 115.046H166.19L168.783 112.453H174.736L188.29 98.9035L194.127 104.742L223.579 75.2932V134.093H78.7324Z" fill="url(#paint8_linear_25_10811)"/>
</g>
<g opacity="0.72">
<path opacity="0.72" d="M283.719 80.667H330.11C333.049 80.667 335.436 83.0531 335.436 85.9918V180.428C335.436 183.366 333.049 185.755 330.108 185.755H283.716C280.777 185.755 278.391 183.369 278.391 180.43V85.9944C278.391 83.0557 280.777 80.6696 283.716 80.6696L283.719 80.667Z" fill="url(#paint9_linear_25_10811)"/>
</g>
<path d="M295.833 134.751H319.448C320.489 134.751 321.333 135.596 321.333 136.636V140.167C321.333 141.207 320.489 142.052 319.448 142.052H295.833C294.792 142.052 293.947 141.207 293.947 140.167V136.634C293.947 135.593 294.792 134.749 295.833 134.749V134.751Z" fill="url(#paint10_linear_25_10811)"/>
<path d="M295.833 148.425H319.448C320.489 148.425 321.333 149.269 321.333 150.31V153.84C321.333 154.881 320.489 155.725 319.448 155.725H295.833C294.792 155.725 293.947 154.881 293.947 153.84V150.31C293.947 149.269 294.792 148.425 295.833 148.425Z" fill="url(#paint11_linear_25_10811)"/>
<path d="M295.833 162.096H319.448C320.489 162.096 321.333 162.94 321.333 163.981V167.511C321.333 168.552 320.489 169.396 319.448 169.396H295.833C294.792 169.396 293.947 168.552 293.947 167.511V163.981C293.947 162.94 294.792 162.096 295.833 162.096Z" fill="url(#paint12_linear_25_10811)"/>
<path d="M321.6 101.103C319.381 94.8981 313.446 91.084 307.196 91.2725C305.683 91.319 304.151 91.5979 302.646 92.135C298.093 93.7645 294.826 97.3901 293.485 101.677C292.556 104.646 292.55 107.931 293.679 111.087C293.79 111.402 293.914 111.709 294.043 112.011C294.637 113.38 295.417 114.617 296.342 115.701C300.221 120.262 306.659 122.191 312.633 120.055C320.342 117.297 324.358 108.812 321.6 101.103ZM311.383 116.561C306.905 118.162 302.078 116.719 299.17 113.3C298.475 112.484 297.891 111.557 297.447 110.532C297.349 110.304 297.258 110.075 297.173 109.837C296.326 107.472 296.331 105.008 297.029 102.782C298.033 99.5696 300.484 96.8504 303.898 95.6289C305.024 95.2261 306.174 95.0169 307.31 94.9834C311.998 94.8413 316.445 97.7 318.111 102.353C320.177 108.135 317.168 114.495 311.385 116.564L311.383 116.561Z" fill="url(#paint13_linear_25_10811)"/>
<path d="M50.7581 94.9757H72.713C74.1567 94.9757 75.3293 96.1481 75.3293 97.5916V97.9712C75.3293 99.4148 74.1567 100.585 72.7156 100.585H50.7607C49.317 100.585 48.1445 99.4122 48.1445 97.9687V97.5891C48.1445 96.1455 49.317 94.9731 50.7607 94.9731L50.7581 94.9757Z" fill="url(#paint14_linear_25_10811)"/>
<path d="M97.066 80.667H119.021C120.465 80.667 121.635 81.8394 121.635 83.2803V83.6599C121.635 85.1034 120.462 86.2758 119.018 86.2758H97.0635C95.6198 86.2758 94.4473 85.1034 94.4473 83.6599V83.2803C94.4473 81.8368 95.6198 80.667 97.0609 80.667H97.066Z" fill="url(#paint15_linear_25_10811)"/>
<path d="M146.235 82.751H168.19C169.634 82.751 170.804 83.9234 170.804 85.3643V85.7465C170.804 87.19 169.631 88.3598 168.19 88.3598H146.233C144.789 88.3598 143.619 87.1874 143.619 85.7465V85.3669C143.619 83.9234 144.792 82.751 146.235 82.751Z" fill="url(#paint16_linear_25_10811)"/>
<path d="M84.3646 153.096C75.8704 149.078 66.0487 151.214 59.9356 157.703C58.4557 159.276 57.1928 161.102 56.2192 163.16C53.2698 169.391 53.6365 176.337 56.6014 182.008C58.6598 185.939 61.9629 189.257 66.2837 191.299C66.7124 191.503 67.1463 191.692 67.5827 191.862C69.5584 192.642 71.591 193.102 73.6209 193.267C82.1281 193.954 90.5604 189.409 94.4291 181.236C99.4214 170.685 94.9147 158.085 84.3646 153.094V153.096ZM89.6513 178.977C86.751 185.104 80.4287 188.511 74.0496 187.997C72.531 187.873 71.0073 187.529 69.5249 186.943C69.1969 186.814 68.8715 186.674 68.5512 186.522C65.3126 184.991 62.8333 182.501 61.2915 179.555C59.0678 175.304 58.7941 170.096 61.0048 165.424C61.7357 163.883 62.6809 162.512 63.7889 161.334C68.3704 156.466 75.7361 154.865 82.1048 157.879C90.0154 161.621 93.3935 171.067 89.6513 178.977Z" fill="url(#paint17_linear_25_10811)"/>
<path d="M61.2911 179.555L56.6062 182.011C53.6388 176.34 53.2746 169.393 56.224 163.162C57.1976 161.104 58.4605 159.278 59.9404 157.706L63.7911 161.334C62.6831 162.512 61.7353 163.88 61.007 165.424C58.7963 170.096 59.07 175.304 61.2937 179.555H61.2911Z" fill="#5B88EA"/>
<path d="M69.5257 186.943L67.5888 191.865C67.1523 191.692 66.7184 191.506 66.2897 191.302C61.969 189.259 58.6658 185.941 56.6074 182.011L61.2923 179.555C62.8341 182.501 65.3135 184.988 68.5521 186.522C68.8749 186.674 69.2003 186.814 69.5257 186.943Z" fill="#5B88EA"/>
<path d="M215.599 98.7949H204.76V101.716H215.599V98.7949Z" fill="#DAE5FD"/>
<path d="M215.599 104.634H204.76V107.554H215.599V104.634Z" fill="#DAE5FD"/>
<path d="M215.599 110.475H204.76V113.395H215.599V110.475Z" fill="#DAE5FD"/>
<path opacity="0.72" d="M232.632 91.8045H268.541C271.493 91.8045 273.887 94.2009 273.887 97.1499V133.055C273.887 136.006 271.49 138.4 268.541 138.4H232.632C229.68 138.4 227.283 136.004 227.283 133.052V97.1473C227.283 94.1957 229.68 91.7993 232.632 91.7993V91.8045Z" fill="url(#paint18_linear_25_10811)"/>
<path d="M250.121 156.296C250.121 156.296 248.15 152.848 251.275 143.604C254.297 134.664 264.762 135.474 268.088 141.202C271.412 146.93 270.291 150.486 265.394 156.952C260.498 163.418 252.153 159.25 250.121 156.296Z" fill="#F6A071"/>
<path d="M274.428 315.321C274.428 315.321 274.947 319.117 275.011 319.688C275.076 320.259 280.771 319.352 280.771 319.352L281.233 314.833C281.233 314.833 275.141 314.787 274.428 315.321Z" fill="#F6A071"/>
<path d="M274.949 319.205C274.949 319.205 273.144 321.493 271.401 322.49C269.655 323.489 266.912 323.882 265.879 324.915C265.133 325.661 263.165 328.866 270.414 328.804C277.664 328.739 281.158 329.256 281.935 328.026C282.713 326.797 280.812 318.949 280.812 318.949C280.812 318.949 279.038 319.45 274.947 319.205H274.949Z" fill="#313131"/>
<path d="M234.99 315.321C234.99 315.321 235.507 319.117 235.571 319.688C235.636 320.259 241.333 319.352 241.333 319.352L241.795 314.833C241.795 314.833 235.703 314.787 234.99 315.321Z" fill="#F6A071"/>
<path d="M235.512 319.205C235.512 319.205 233.707 321.493 231.961 322.49C230.215 323.489 223.792 324.305 222.762 325.338C222.015 326.084 220.778 329.082 230.977 328.801C238.224 328.602 241.721 329.253 242.498 328.024C243.276 326.795 241.375 318.947 241.375 318.947C241.375 318.947 239.123 319.347 235.512 319.202V319.205Z" fill="#313131"/>
<path d="M272.51 220.803C272.51 220.803 275.428 229.877 275.046 237.696C274.661 245.515 276.557 254.073 277.332 262.241C278.194 271.349 281.727 292.909 281.857 297.779C281.986 302.652 281.306 318.206 281.306 318.206L274.233 318.376C274.233 318.376 268.293 280.684 266.753 276.837C265.214 272.992 257.585 245.575 257.329 242.497C257.074 239.421 272.51 220.797 272.51 220.797V220.803Z" fill="#32344F"/>
<path d="M243.181 219.858C243.181 219.858 238.887 243.85 238.373 248.638C237.861 253.425 237.518 271.801 237.262 274.792C237.006 277.782 235.552 313.935 234.184 318.379H242.071C242.071 318.379 250.167 292.096 250.167 279.662C250.167 267.228 255.532 252.627 258.992 244.423C262.453 236.219 270.377 236.026 272.505 220.803C272.505 220.803 246.058 215.029 243.176 219.858H243.181Z" fill="#32344F"/>
<path d="M252.984 158.736C252.984 158.736 253.872 161.326 252.984 163.173C252.093 165.019 264.35 163.911 264.35 163.911C264.35 163.911 263.795 160.095 265.396 156.954C266.997 153.814 252.984 158.739 252.984 158.739V158.736Z" fill="#F6A071"/>
<path d="M273.078 222.781C273.078 222.781 268.67 227.307 242.789 222.076L243.184 219.857L272.608 220.965L273.081 222.781H273.078Z" fill="#343D57"/>
<path d="M251.129 163.772C251.129 163.772 246.602 164.234 245.308 164.479C244.014 164.725 235.308 162.922 233.523 162.736C231.736 162.553 224.12 157.334 223.875 156.719C223.627 156.102 219.241 144.998 218.996 142.594C218.748 140.192 214.722 141.432 215.068 143.087C215.714 146.183 216.543 153.698 216.997 155.875C217.488 158.227 218.802 163.555 219.544 164.211C220.282 164.867 227.139 170.08 233.854 172.299C240.569 174.517 245.62 177.778 245.62 177.778H278.706C278.706 177.778 291.576 159.384 291.855 156.613C292.131 153.843 282.864 135.423 281.015 133.114C279.169 130.803 276.496 133.868 276.496 133.868C276.496 133.868 282.033 150.111 282.772 152.422C283.51 154.731 276.33 164.877 274.36 164.908C272.389 164.936 267.327 164.291 265.081 164.2C262.831 164.107 260.46 163.121 260.46 163.121L251.129 163.769V163.772Z" fill="#F6A071"/>
<path d="M236.868 176.058C236.868 176.058 240.917 178.749 241.287 183.369C241.656 187.989 243.136 195.286 243.872 197.781C244.611 200.273 243.226 218.38 243.04 219.671C242.857 220.965 268.642 224.038 272.604 220.965C272.604 220.965 273.712 204.061 274.174 199.258C274.636 194.455 276.855 182.816 277.593 181.246C278.332 179.676 287.294 167.108 287.663 165.45C287.663 165.45 283.027 158.06 279.701 157.967C279.701 157.967 274.419 164.156 272.697 164.433C270.974 164.712 260.419 162.775 260.416 162.759C260.416 162.759 259.264 164.327 253.141 162.48C253.141 162.48 245.845 163.304 244.66 163.454C243.221 163.637 233.234 162.202 233.234 162.202C233.234 162.202 229.226 168.967 229.928 172.384L236.868 176.058Z" fill="#2B478B"/>
<path d="M219.226 144.04C219.226 144.04 218.322 139.759 219.409 138.529C220.029 137.83 221.519 135.978 221.656 135.704C221.79 135.433 223.392 134.514 223.392 134.072C223.392 133.631 221.827 133.086 220.465 134.343C219.104 135.604 218.252 135.875 217.71 135.738C217.165 135.601 216.382 131.077 216.315 129.953C216.248 128.833 215.814 125.871 215.112 126.075C214.409 126.279 214.443 127.573 214.443 127.573C214.443 127.573 213.627 125.326 213.082 125.77C212.537 126.214 212.607 127.301 212.607 127.301C212.607 127.301 211.586 126.044 211.313 126.961C211.041 127.88 211.313 128.696 211.313 128.696C211.313 128.696 210.259 128.117 210.192 129.545C210.122 130.973 210.499 135.159 211.245 136.657C211.994 138.155 214.797 142.07 215.132 143.601C215.466 145.13 219.231 144.04 219.231 144.04H219.226Z" fill="#F6A071"/>
<path d="M277.393 136.52C277.393 136.52 274.315 131.348 273.269 130.886C272.223 130.423 270.743 130.163 269.449 129.238C268.155 128.316 266.448 127.544 266.539 127.237C266.632 126.93 268.155 127.051 269.788 127.761C271.42 128.469 272.135 128.128 272.29 127.759C272.445 127.389 271.42 124.781 270.926 124.164C270.433 123.549 266.923 120.017 267.507 119.495C268.091 118.971 270.371 120.91 270.741 121.31C270.741 121.31 268.922 117.494 269.633 117.308C270.34 117.122 271.665 118.478 271.665 118.478C271.665 118.478 271.513 115.214 275.023 120.51C275.023 120.51 274.284 118.754 275.361 119.34C276.438 119.926 277.486 123.219 277.825 124.882C278.163 126.545 279.7 131.841 281.009 133.119C282.321 134.395 277.391 136.52 277.391 136.52H277.393Z" fill="#F6A071"/>
<path d="M265.396 156.952C265.396 156.952 263.774 157.094 260.326 155.903C256.878 154.713 256.62 148.68 255.874 149.396C254.353 150.855 252.914 149.848 252.338 148.985C252.338 148.985 254.022 146.767 253.242 145.7C252.462 144.634 251.191 143.854 251.191 143.854C251.191 143.854 253.616 132.164 264.657 137.489C277.591 143.73 265.396 156.949 265.396 156.949V156.952Z" fill="#393D3F"/>
<path d="M252.982 163.173L253.372 161.484C253.372 161.484 260.418 161.339 264.263 161.897L264.669 163.919C264.669 163.919 259.746 166.15 252.985 163.175L252.982 163.173Z" fill="#D3D6E6"/>
<path d="M254.721 147.919C255.362 146.855 257.727 146.139 258.006 149.15C258.22 151.485 253.776 154.036 253.734 151.859C253.693 149.685 254.295 148.626 254.721 147.919Z" fill="#F6A071"/>
<path d="M219.07 143.069C219.07 143.069 216.516 143.131 215.282 144.244C215.282 144.244 215.202 144.952 215.488 145.509C215.488 145.509 217.691 144.482 219.383 144.288C219.383 144.288 219.367 143.363 219.073 143.069H219.07Z" fill="#245FC0"/>
<path d="M216.059 143.702C215.824 144.257 216.085 144.9 216.64 145.132C217.198 145.367 217.836 145.107 218.071 144.551C218.306 143.994 218.045 143.353 217.49 143.118C216.935 142.883 216.292 143.144 216.057 143.699L216.059 143.702Z" fill="#393D3F"/>
<path d="M266.231 109.509C263.744 102.552 257.093 98.2811 250.087 98.4929C248.39 98.5445 246.673 98.857 244.989 99.4587C239.883 101.284 236.223 105.349 234.72 110.152C233.677 113.481 233.672 117.163 234.937 120.701C235.064 121.052 235.198 121.398 235.345 121.736C236.011 123.268 236.884 124.655 237.92 125.873C242.269 130.984 249.485 133.145 256.177 130.751C264.818 127.66 269.32 118.15 266.228 109.509H266.231ZM254.779 126.834C249.761 128.629 244.351 127.01 241.089 123.177C240.314 122.263 239.656 121.225 239.16 120.076C239.049 119.823 238.945 119.562 238.852 119.299C237.904 116.647 237.91 113.886 238.69 111.392C239.818 107.789 242.561 104.742 246.388 103.373C247.651 102.922 248.94 102.687 250.211 102.648C255.464 102.49 260.448 105.692 262.315 110.909C264.632 117.388 261.259 124.518 254.779 126.834Z" fill="white"/>
<path d="M238.69 111.392L234.721 110.152C236.224 105.349 239.883 101.284 244.989 99.4587C246.673 98.857 248.391 98.542 250.087 98.4929L250.211 102.65C248.941 102.689 247.652 102.924 246.389 103.376C242.562 104.745 239.819 107.792 238.69 111.394V111.392Z" fill="#2D476C"/>
<path d="M239.16 120.076L235.345 121.736C235.198 121.398 235.061 121.052 234.937 120.701C233.672 117.163 233.677 113.481 234.72 110.152L238.69 111.392C237.91 113.886 237.904 116.647 238.852 119.299C238.948 119.562 239.051 119.823 239.16 120.076Z" fill="#3A5C8D"/>
<path d="M237.923 125.871C236.884 124.652 236.011 123.265 235.348 121.734L239.162 120.073C239.661 121.223 240.317 122.263 241.091 123.175L237.923 125.871Z" fill="#4772B0"/>
<path opacity="0.72" d="M145.439 148.402H201.25C206.216 148.402 210.25 152.435 210.25 157.401V213.205C210.25 218.171 206.219 222.202 201.252 222.202H145.442C140.475 222.202 136.441 218.171 136.441 213.203V157.398C136.441 152.433 140.473 148.402 145.439 148.402Z" fill="url(#paint19_linear_25_10811)"/>
<path d="M144.541 168.451H144.246V206.367H144.541V168.451Z" fill="#5B88EA"/>
<path d="M158.92 168.451H158.623V206.367H158.92V168.451Z" fill="#5B88EA"/>
<path d="M173.292 168.451H172.998V206.367H173.292V168.451Z" fill="#5B88EA"/>
<path d="M187.669 168.451H187.375V206.367H187.669V168.451Z" fill="#5B88EA"/>
<path d="M202.047 168.451H201.75V206.367H202.047V168.451Z" fill="#5B88EA"/>
<path d="M144.393 190.995C144.393 190.995 149.721 194.223 155.384 188.381C161.045 182.538 167.151 177.925 172.925 182.845C178.698 187.764 182.251 188.993 188.023 183.459C193.796 177.925 193.351 171.162 201.9 171.162V206.367H144.395V190.992L144.393 190.995Z" fill="url(#paint20_linear_25_10811)"/>
<path d="M150.092 165.293H144.393V166.674H150.092V165.293Z" fill="#739AF0"/>
<path d="M162.343 165.293H158.771V166.674H162.343V165.293Z" fill="#739AF0"/>
<path d="M177.55 165.293H173.146V166.674H177.55V165.293Z" fill="#739AF0"/>
<path d="M194.308 165.293H187.523V166.674H194.308V165.293Z" fill="#739AF0"/>
<path d="M204.266 165.293H201.9V166.674H204.266V165.293Z" fill="#739AF0"/>
<path opacity="0.72" d="M173.001 211.638H144.543V214.959H173.001V211.638Z" fill="url(#paint21_linear_25_10811)"/>
<path d="M129.797 213.603H8.65625V135.084H18.3437V72.9509H18.9506V135.689H9.26058V212.999H129.797V213.603Z" fill="#B7C5FA"/>
<path d="M266.536 83.7735H245.095V0.604266H207.254V0H245.699V83.1693H266.536V83.7735Z" fill="#B7C5FA"/>
<path d="M127.538 182.445H105.369V186.372H127.538V182.445Z" fill="url(#paint22_linear_25_10811)"/>
<path d="M127.538 175.63H105.369V179.555H127.538V175.63Z" fill="url(#paint23_linear_25_10811)"/>
<path d="M127.538 168.812H105.369V172.74H127.538V168.812Z" fill="url(#paint24_linear_25_10811)"/>
<path d="M108.332 186.938C108.332 186.938 110.579 186.522 111.72 185.363C112.859 184.206 115.917 183.366 116.899 183.395C117.883 183.421 125.104 183.271 125.713 183.656C126.323 184.038 125.809 184.908 125.086 184.903C124.365 184.898 117.689 185.414 117.689 185.414C117.689 185.414 125.101 185.254 125.599 185.698C126.098 186.142 126.093 187.064 125.083 187.382C125.083 187.382 125.845 188.906 124.027 189.037L120.406 189.314C120.406 189.314 122.325 189.51 121.098 190.297C120.447 190.716 116.302 190.535 115.486 190.762C114.67 190.989 109.662 190.866 109.662 190.866L108.332 186.94V186.938Z" fill="#F6A071"/>
<path d="M99.0811 323.949C99.0811 331.102 76.9351 336.902 49.6161 336.902C22.297 336.902 0.148438 331.105 0.148438 323.949C0.148438 316.793 22.297 310.996 49.6161 310.996C76.9351 310.996 99.0811 316.796 99.0811 323.949Z" fill="#5A87C3"/>
<path d="M96.0906 320.757C96.0906 327.479 75.2824 332.928 49.6137 332.928C23.9449 332.928 3.13672 327.479 3.13672 320.757C3.13672 314.035 23.9449 308.586 49.6137 308.586C75.2824 308.586 96.0906 314.035 96.0906 320.757Z" fill="#72ACFB"/>
<path d="M34.2654 171.286C34.2654 171.286 32.9147 190.223 36.6156 192.487C38.9348 193.905 48.1755 198.695 47.9017 199.594C47.628 200.492 42.6822 207.584 42.6822 207.584C42.6822 207.584 24.9293 195.893 24.3585 192.211C23.8007 188.611 25.2314 164.487 27.672 163.374C29.5005 162.542 30.4638 163.232 32.7675 164.939C36.001 167.338 34.2654 171.286 34.2654 171.286Z" fill="#253C71"/>
<path d="M32.2019 309.085C32.2019 309.085 31.6492 312.914 31.5794 313.49C31.5123 314.066 25.438 313.152 25.438 313.152L24.9473 308.592C24.9473 308.592 31.4426 308.545 32.2019 309.085Z" fill="#313131"/>
<path d="M31.6429 313.005C31.6429 313.005 33.567 315.313 35.429 316.321C37.2885 317.325 40.2146 317.725 41.3148 318.766C42.1103 319.517 44.2074 322.756 36.4802 322.691C28.7504 322.627 25.0262 323.148 24.1972 321.906C23.3682 320.664 25.3955 312.747 25.3955 312.747C25.3955 312.747 27.2266 313.402 31.6455 313.005H31.6429Z" fill="#1D3774"/>
<path d="M62.5886 309.085C62.5886 309.085 62.0359 312.914 61.9688 313.49C61.899 314.066 55.8273 313.152 55.8273 313.152L55.334 308.592C55.334 308.592 61.8293 308.545 62.5886 309.085Z" fill="#313131"/>
<path d="M62.0342 313.005C62.0342 313.005 63.9582 315.313 65.8177 316.321C67.6772 317.325 74.5263 318.154 75.6265 319.195C76.422 319.946 77.7417 322.973 66.8688 322.691C59.1442 322.49 55.4149 323.148 54.5859 321.906C53.7568 320.664 55.7842 312.747 55.7842 312.747C55.7842 312.747 57.5094 313.449 62.0342 313.005Z" fill="#1D3774"/>
<path d="M34.3778 210.636C34.3778 210.636 28.6727 219.7 29.0989 227.894C29.525 236.087 28.5901 244.839 27.7327 253.399C26.7771 262.941 24.1738 282.797 24.0318 287.902C23.8897 293.005 24.2177 312.21 24.2177 312.21L34.1143 312.135C34.1143 312.135 37.6267 273.338 39.3287 269.309C41.0306 265.281 48.0218 236.131 48.3033 232.909C48.5874 229.686 34.3778 210.639 34.3778 210.639V210.636Z" fill="#1D3774"/>
<path d="M64.4124 211.865C64.4124 211.865 66.667 234.138 67.2326 239.153C67.8008 244.168 67.4108 265.895 67.6949 269.03C67.979 272.165 65.7966 305.312 65.2595 311.626L54.3814 311.556C54.3814 311.556 53.6299 284.741 53.6299 271.713C53.6299 258.685 50.2854 243.519 46.4554 234.923C42.6253 226.326 33.8573 226.122 31.502 210.174C31.502 210.174 61.2202 206.809 64.4072 211.865H64.4124Z" fill="#1D3774"/>
<path d="M40.4062 134.217C40.4062 134.217 47.2037 129.677 51.979 134.54C56.7543 139.402 59.0993 150.839 55.6721 153.122C52.2424 155.405 46.4289 156.004 43.6681 152.905C40.9073 149.809 37.9631 145.086 37.2373 141.636C36.5116 138.186 38.6862 135.666 40.4088 134.214L40.4062 134.217Z" fill="#F6A071"/>
<path d="M53.3574 153.892C53.3574 153.892 53.267 158.669 53.7964 159.686C54.3233 160.704 43.874 160.73 43.874 160.73C43.874 160.73 43.0269 155.191 41.4179 150.511C39.8089 145.832 53.3574 153.892 53.3574 153.892Z" fill="#F6A071"/>
<path d="M41.4581 150.625C41.4581 150.625 42.6538 151.428 45.4147 150.305C48.1729 149.181 50.771 144.546 51.8686 143.844C52.9663 143.144 52.8139 142.436 52.8139 142.436L53.8185 143.353L55.1098 143.134C55.1098 143.134 53.147 139.999 54.5675 138.196C55.9879 136.394 50.1538 127.588 41.7215 132.964C41.7215 132.964 35.1229 136.572 36.3238 140.525C37.5273 144.479 39.4075 148.996 41.4581 150.622V150.625Z" fill="#444444"/>
<path d="M54.4145 159.565C54.4145 159.565 54.3809 157.621 53.5003 157.432C52.617 157.246 43.7638 156.394 42.6816 156.82V159.087C42.6816 159.087 44.7684 160.371 54.4171 159.565H54.4145Z" fill="#E1E7F5"/>
<path d="M52.2753 141.024C51.955 140.389 49.7908 138.87 49.6203 141.083C49.4499 143.296 51.7484 145.68 52.611 145.225C53.4736 144.773 53.0836 142.635 52.2753 141.024Z" fill="#F6A071"/>
<path d="M38.4415 135.387C38.4415 135.387 28.7179 137.995 41.285 150.06L38.4415 135.387Z" fill="#444444"/>
<path d="M67.3479 162.264C61.0463 161.156 54.4141 159.565 54.4141 159.565L42.6786 159.087C42.6786 159.087 31.9091 161.458 27.6684 163.374C27.2655 163.555 27.2655 172.98 26.1602 175.452L29.6751 182.871C29.6751 182.871 31.7051 197.564 32.1286 204.1C32.3223 207.098 27.9396 232.229 27.9396 232.229C27.9396 232.229 32.6348 233.614 40.6435 234.494C48.6523 235.377 68.6624 234.174 68.789 233.229C68.9155 232.284 64.915 198.011 64.7368 196.237C64.4657 193.513 65.5245 180.924 65.5245 180.924C67.0328 182.951 75.7569 190.556 80.0157 192.968C83.0451 194.687 90.4779 193.636 92.6654 193.414C97.4045 192.931 110.491 191.994 110.749 191.529C110.953 191.25 109.997 186.481 109.45 186.297C108.969 186.137 92.0739 185.303 87.8359 185.523C86.1158 185.613 80.5064 179.348 80.5064 179.348C80.5064 179.348 70.8215 163.826 67.3453 162.266L67.3479 162.264Z" fill="#253C71"/>
<path d="M55.0813 138.865C55.0813 138.865 43.2967 143.614 37.4238 145.794C37.4238 145.794 37.8009 147.139 38.8494 147.537C38.8494 147.537 47.9739 144.34 55.7811 140.652C55.7811 140.652 55.6443 139.428 55.0813 138.865Z" fill="url(#paint25_linear_25_10811)"/>
<path d="M54.5826 138.235C54.5826 138.235 56.3156 137.52 56.579 138.129C56.845 138.736 59.1642 142.783 56.6642 143.797C56.6642 143.797 54.7066 139.867 54.5801 138.235H54.5826Z" fill="url(#paint26_linear_25_10811)"/>
<path d="M252.058 143.609C252.058 143.609 263.409 148.817 269.15 151.314C269.15 151.314 269.073 152.91 268.004 153.414C268.004 153.414 258.848 149.468 251.258 145.354C251.258 145.354 251.459 144.138 252.056 143.606L252.058 143.609Z" fill="url(#paint27_linear_25_10811)"/>
<path d="M252.588 143.005C252.588 143.005 250.899 142.196 250.599 142.788C250.302 143.379 247.531 147.232 249.971 148.384C249.971 148.384 252.373 144.626 252.588 143.002V143.005Z" fill="url(#paint28_linear_25_10811)"/>
<defs>
<linearGradient id="paint0_linear_25_10811" x1="26.5859" y1="107.255" x2="239.554" y2="107.255" gradientUnits="userSpaceOnUse">
<stop stop-color="#1C6EF6"/>
<stop offset="1" stop-color="#CBDCF8"/>
</linearGradient>
<linearGradient id="paint1_linear_25_10811" x1="42.0313" y1="47.2748" x2="93.3868" y2="47.2748" gradientUnits="userSpaceOnUse">
<stop stop-color="#D7E2FD"/>
<stop offset="1" stop-color="#F1FFFD"/>
</linearGradient>
<linearGradient id="paint2_linear_25_10811" x1="61.9043" y1="40.4472" x2="73.6139" y2="40.4472" gradientUnits="userSpaceOnUse">
<stop stop-color="#1C6EF6"/>
<stop offset="1" stop-color="#CBDCF8"/>
</linearGradient>
<linearGradient id="paint3_linear_25_10811" x1="57.0957" y1="60.9353" x2="78.3197" y2="60.9353" gradientUnits="userSpaceOnUse">
<stop stop-color="#1C6EF6"/>
<stop offset="1" stop-color="#CBDCF8"/>
</linearGradient>
<linearGradient id="paint4_linear_25_10811" x1="108.045" y1="28.0907" x2="176.531" y2="28.0907" gradientUnits="userSpaceOnUse">
<stop stop-color="#D7E2FD"/>
<stop offset="1" stop-color="#F1FFFD"/>
</linearGradient>
<linearGradient id="paint5_linear_25_10811" x1="108.045" y1="42.5673" x2="167.456" y2="42.5673" gradientUnits="userSpaceOnUse">
<stop stop-color="#D7E2FD"/>
<stop offset="1" stop-color="#F1FFFD"/>
</linearGradient>
<linearGradient id="paint6_linear_25_10811" x1="108.045" y1="57.0438" x2="203.548" y2="57.0438" gradientUnits="userSpaceOnUse">
<stop stop-color="#D7E2FD"/>
<stop offset="1" stop-color="#F1FFFD"/>
</linearGradient>
<linearGradient id="paint7_linear_25_10811" x1="47.2734" y1="104.091" x2="223.651" y2="104.091" gradientUnits="userSpaceOnUse">
<stop stop-color="#D7E2FD"/>
<stop offset="1" stop-color="#F1FFFD"/>
</linearGradient>
<linearGradient id="paint8_linear_25_10811" x1="78.7324" y1="104.693" x2="223.579" y2="104.693" gradientUnits="userSpaceOnUse">
<stop stop-color="#D7E2FD"/>
<stop offset="1" stop-color="#F1FFFD"/>
</linearGradient>
<linearGradient id="paint9_linear_25_10811" x1="278.391" y1="133.211" x2="335.436" y2="133.211" gradientUnits="userSpaceOnUse">
<stop stop-color="#1C6EF6"/>
<stop offset="1" stop-color="#CBDCF8"/>
</linearGradient>
<linearGradient id="paint10_linear_25_10811" x1="293.945" y1="138.403" x2="321.333" y2="138.403" gradientUnits="userSpaceOnUse">
<stop stop-color="#D7E2FD"/>
<stop offset="1" stop-color="#F1FFFD"/>
</linearGradient>
<linearGradient id="paint11_linear_25_10811" x1="293.945" y1="152.076" x2="321.333" y2="152.076" gradientUnits="userSpaceOnUse">
<stop stop-color="#D7E2FD"/>
<stop offset="1" stop-color="#F1FFFD"/>
</linearGradient>
<linearGradient id="paint12_linear_25_10811" x1="293.945" y1="165.747" x2="321.333" y2="165.747" gradientUnits="userSpaceOnUse">
<stop stop-color="#D7E2FD"/>
<stop offset="1" stop-color="#F1FFFD"/>
</linearGradient>
<linearGradient id="paint13_linear_25_10811" x1="292.809" y1="106.095" x2="322.47" y2="106.095" gradientUnits="userSpaceOnUse">
<stop stop-color="#D7E2FD"/>
<stop offset="1" stop-color="#F1FFFD"/>
</linearGradient>
<linearGradient id="paint14_linear_25_10811" x1="48.1419" y1="97.7827" x2="75.3293" y2="97.7827" gradientUnits="userSpaceOnUse">
<stop stop-color="#D7E2FD"/>
<stop offset="1" stop-color="#F1FFFD"/>
</linearGradient>
<linearGradient id="paint15_linear_25_10811" x1="94.4524" y1="83.4714" x2="121.637" y2="83.4714" gradientUnits="userSpaceOnUse">
<stop stop-color="#D7E2FD"/>
<stop offset="1" stop-color="#F1FFFD"/>
</linearGradient>
<linearGradient id="paint16_linear_25_10811" x1="143.619" y1="85.5554" x2="170.804" y2="85.5554" gradientUnits="userSpaceOnUse">
<stop stop-color="#D7E2FD"/>
<stop offset="1" stop-color="#F1FFFD"/>
</linearGradient>
<linearGradient id="paint17_linear_25_10811" x1="54.1867" y1="172.2" x2="96.4668" y2="172.2" gradientUnits="userSpaceOnUse">
<stop stop-color="#D7E2FD"/>
<stop offset="1" stop-color="#F1FFFD"/>
</linearGradient>
<linearGradient id="paint18_linear_25_10811" x1="227.283" y1="115.1" x2="273.887" y2="115.1" gradientUnits="userSpaceOnUse">
<stop stop-color="#1C6EF6"/>
<stop offset="1" stop-color="#CBDCF8"/>
</linearGradient>
<linearGradient id="paint19_linear_25_10811" x1="136.441" y1="185.302" x2="210.25" y2="185.302" gradientUnits="userSpaceOnUse">
<stop stop-color="#1C6EF6"/>
<stop offset="1" stop-color="#CBDCF8"/>
</linearGradient>
<linearGradient id="paint20_linear_25_10811" x1="144.393" y1="188.766" x2="201.9" y2="188.766" gradientUnits="userSpaceOnUse">
<stop stop-color="#D7E2FD"/>
<stop offset="1" stop-color="#F1FFFD"/>
</linearGradient>
<linearGradient id="paint21_linear_25_10811" x1="144.543" y1="213.298" x2="173.001" y2="213.298" gradientUnits="userSpaceOnUse">
<stop stop-color="#1C6EF6"/>
<stop offset="1" stop-color="#CBDCF8"/>
</linearGradient>
<linearGradient id="paint22_linear_25_10811" x1="105.369" y1="184.407" x2="127.538" y2="184.407" gradientUnits="userSpaceOnUse">
<stop stop-color="#D7E2FD"/>
<stop offset="1" stop-color="#F1FFFD"/>
</linearGradient>
<linearGradient id="paint23_linear_25_10811" x1="105.369" y1="177.592" x2="127.538" y2="177.592" gradientUnits="userSpaceOnUse">
<stop stop-color="#D7E2FD"/>
<stop offset="1" stop-color="#F1FFFD"/>
</linearGradient>
<linearGradient id="paint24_linear_25_10811" x1="105.369" y1="170.778" x2="127.538" y2="170.778" gradientUnits="userSpaceOnUse">
<stop stop-color="#D7E2FD"/>
<stop offset="1" stop-color="#F1FFFD"/>
</linearGradient>
<linearGradient id="paint25_linear_25_10811" x1="-549.195" y1="403.351" x2="-541.218" y2="399.865" gradientUnits="userSpaceOnUse">
<stop stop-color="#343556"/>
<stop offset="1" stop-color="#373D7A"/>
</linearGradient>
<linearGradient id="paint26_linear_25_10811" x1="-548.556" y1="404.771" x2="-540.578" y2="401.285" gradientUnits="userSpaceOnUse">
<stop stop-color="#343556"/>
<stop offset="1" stop-color="#373D7A"/>
</linearGradient>
<linearGradient id="paint27_linear_25_10811" x1="841.624" y1="441.531" x2="833.842" y2="437.606" gradientUnits="userSpaceOnUse">
<stop stop-color="#343556"/>
<stop offset="1" stop-color="#373D7A"/>
</linearGradient>
<linearGradient id="paint28_linear_25_10811" x1="828.424" y1="436.7" x2="820.806" y2="432.858" gradientUnits="userSpaceOnUse">
<stop stop-color="#343556"/>
<stop offset="1" stop-color="#373D7A"/>
</linearGradient>
</defs>
</svg>
