<svg width="371" height="271" viewBox="0 0 371 271" fill="none" xmlns="http://www.w3.org/2000/svg">
<path d="M367.327 256.595C362.001 252.706 351.12 255.332 343.087 258.14C341.887 256.456 340.432 254.719 338.671 253.023C355.975 241.887 379.872 218.14 367.206 216.129C356.195 214.383 341.336 235.758 333.394 248.769C325.147 243.227 312.511 239.152 293.219 240.566C243.149 244.233 204.034 211.968 175.2 222.729C152.276 231.284 131.266 236.079 111.004 234.441C111.877 219.653 112.066 190.619 100.442 187.608C88.6415 184.55 100.216 217.523 106.65 233.987C105.14 233.793 103.634 233.564 102.132 233.297C97.9666 225.092 91.1025 214.354 83.564 213.985C76.4657 213.64 85.2255 223.293 93.8481 231.472C69.0706 226.274 39.678 246.397 39.1895 270.189H348.532C348.532 270.189 347.984 266.716 345.556 262.137C357.511 261.903 373.111 260.818 367.325 256.595H367.327Z" fill="#A8D29F"/>
<path d="M106.671 251.801H25.1389V270.193H106.671V251.801Z" fill="#4A75CB"/>
<path d="M81.5297 251.801H0V270.195H81.5297V251.801Z" fill="#699DEE"/>
<path d="M138.741 270.189H199.45V185.415H138.741V270.189Z" fill="#2B478B"/>
<path d="M120.024 270.189H180.734V185.415H120.024V270.189Z" fill="#245FC0"/>
<path d="M180.734 185.416L199.453 198.144V185.416H180.734Z" fill="#35488B"/>
<path d="M234.9 65.7335C233.961 65.5903 231.133 68.2042 231.133 68.2042C225.095 68.9021 216.264 70.5035 213.086 71.1146C210.833 71.5483 204.775 69.485 198.855 67.1151C191.816 64.2954 184.976 61.0441 184.976 61.0441C181.069 60.8445 176.634 67.9642 184.556 72.4922C185.765 73.184 190.31 74.3619 195.54 75.4389C202.758 76.9234 211.284 78.2142 214.187 77.7604C217.558 77.234 227.101 73.7467 232.778 71.0743C232.778 71.0743 232.784 71.0723 232.792 71.0682C232.815 71.0582 232.835 71.0481 232.855 71.038C233.196 70.8787 234.585 70.2615 235.512 70.3159C236.576 70.3785 238.944 68.4342 239.017 67.9158C239.089 67.3975 235.837 65.8787 234.898 65.7355L234.9 65.7335Z" fill="#ED975D"/>
<path d="M227.527 155.422L224.202 156.098C224.202 156.098 208.986 139.018 206.638 131.83C205.382 127.99 197.349 126.33 188.953 124.162C181.647 122.274 174.066 120.001 170.444 115.564C162.661 106.032 175.332 94.3174 175.332 94.3174C175.332 94.3174 188.801 102.316 200.424 110.578C208.546 116.352 215.765 122.256 216.853 125.648C219.494 133.899 225.099 149.583 227.527 155.422Z" fill="#2B478B"/>
<path d="M223.078 161.057H224.947C225.573 160.958 226.035 160.777 226.679 160.694C227.654 160.567 228.105 160.967 228.194 161.057C228.206 161.069 228.212 161.075 228.212 161.075H236.156C236.356 160.791 236.164 160.13 235.976 159.643C235.849 159.313 235.574 159.063 235.233 158.964C234.391 158.72 232.73 158.502 231.21 157.126C230.354 156.354 227.077 154.287 227.077 154.287L227.059 154.282C226.986 154.282 226.645 154.389 225.153 155.646C224.382 156.295 223.07 154.73 223.07 154.73C223.07 154.73 222.823 154.934 222.64 155.313C222.492 155.614 222.383 156.025 222.468 156.531C222.587 157.247 222.204 158.576 221.899 159.474C221.713 160.019 221.558 160.406 221.558 160.406C221.558 160.406 221.469 160.854 223.078 161.055V161.057Z" fill="#233862"/>
<path d="M200.424 110.578L188.953 124.162C181.647 122.274 174.066 120.001 170.444 115.564C162.661 106.032 175.332 94.3174 175.332 94.3174C175.332 94.3174 188.801 102.316 200.424 110.578Z" fill="#1E3D70"/>
<path d="M190.001 103.484C190.001 103.484 189.076 106.397 187.57 110.779C185.666 116.322 182.832 124.212 179.755 131.53C179.079 133.137 178.392 134.718 177.7 136.241C175.142 141.872 172.523 146.699 170.22 149.153C166.077 153.564 156.009 181.914 156.009 181.914L153.5 181.22C153.5 181.22 150.001 157.011 162.393 143.236C162.526 143.089 162.629 142.919 162.643 142.721C162.643 142.721 162.643 142.717 162.643 142.715C162.809 140.676 163.398 131.544 164.68 122.292C164.995 120.021 165.352 117.746 165.754 115.566C165.778 115.426 165.807 115.287 165.831 115.15C167.716 105.065 169.521 100.58 171.851 98.325L188.983 103.198L189.997 103.486L190.001 103.484Z" fill="#2B478B"/>
<path d="M153.221 185.395H155.09C155.716 185.297 156.179 185.115 156.823 185.032C157.798 184.905 158.248 185.305 158.337 185.395C158.349 185.408 158.355 185.414 158.355 185.414H166.299C166.499 185.129 166.307 184.468 166.119 183.982C165.992 183.651 165.718 183.401 165.377 183.302C164.535 183.058 162.873 182.842 161.353 181.466C160.497 180.694 157.22 178.625 157.22 178.625L157.202 178.621C157.129 178.621 156.788 178.728 155.296 179.984C154.525 180.633 153.213 179.068 153.213 179.068C153.213 179.068 152.967 179.272 152.783 179.651C152.635 179.95 152.526 180.363 152.613 180.869C152.732 181.585 152.349 182.915 152.044 183.812C151.858 184.357 151.703 184.744 151.703 184.744C151.703 184.744 151.614 185.194 153.223 185.393L153.221 185.395Z" fill="#233862"/>
<path d="M156.895 70.558C156.895 70.558 154.029 77.5648 150.724 84.384C147.944 90.1181 144.855 95.7191 142.897 96.9131C140.135 98.5993 132.528 103.353 127.592 106.899C127.592 106.899 123.74 106.871 123.142 107.607C122.544 108.343 121.164 111.653 121.565 111.988C121.969 112.322 125.03 112.167 125.775 111.405C126.423 110.741 127.868 110.263 128.228 110.152C128.25 110.146 128.272 110.138 128.294 110.132C128.304 110.13 128.31 110.128 128.31 110.128C134.308 108.285 143.714 104.444 146.561 102.567C149.012 100.949 154.448 94.2609 158.783 88.309C161.926 83.9927 164.49 80.0658 164.918 78.7407C167.725 70.0659 159.647 67.7848 156.893 70.5601L156.895 70.558Z" fill="#FFB27D"/>
<path d="M171.887 43.0856C171.546 42.5894 171.203 42.1517 170.86 41.7605C171.284 41.7685 171.744 41.7282 172.126 41.5709C173.131 41.1554 173.591 37.9646 173.44 37.0167C173.289 36.0707 171.891 33.3338 170.167 33.0595C168.443 32.7872 166.663 34.6992 166.663 34.6992C166.982 33.3196 169.897 32.5229 169.897 32.5229C163.891 33.6302 164.196 37.6318 164.238 38.0009C158.739 36.0445 155.512 46.3893 155.512 46.3893L169.756 54.7736C169.756 54.7736 169.792 52.4885 171.153 52.6357C173.272 52.8656 175.035 47.666 171.889 43.0856H171.887Z" fill="#444444"/>
<path d="M172.794 64.7916C169.525 66.3305 165.189 64.1139 165.213 64.0897C165.494 63.8093 165.395 62.9723 165.138 61.8751C164.882 60.7315 164.274 59.1704 163.154 57.3048C162.92 56.9074 162.687 56.5121 162.407 56.0926L162.78 55.9534L169.13 53.4121C169.13 53.4121 170.157 55.2536 171.231 56.9337C172.142 58.3334 173.099 59.592 173.519 59.5456C173.543 59.5214 177.744 62.4136 172.796 64.7936L172.794 64.7916Z" fill="#FFB27D"/>
<path d="M169.13 54.0396C168.966 56.3005 168.197 60.3828 165.138 61.8753C164.882 60.7317 164.274 59.1706 163.154 57.3049L169.13 54.0396Z" fill="#ED975D"/>
<path d="M162.782 59.8806C162.782 59.8806 171.048 56.6252 168.94 51.5144C166.832 46.4035 166.479 42.5411 161.113 44.4027C155.747 46.2643 155.531 48.6342 155.819 50.5119C156.108 52.3897 160.578 60.5966 162.782 59.8806Z" fill="#FFB27D"/>
<path d="M165.865 50.3486C169.681 49.8101 170.795 48.2692 170.795 48.2692C170.795 48.2692 167.28 47.2607 165.215 43.8219C165.215 43.8219 160.925 42.3757 157.745 44.792C157.552 45.0441 157.412 45.3386 157.344 45.6875C156.615 45.4495 155.519 45.51 154.887 47.5693C153.936 50.6592 157.315 54.0355 157.315 54.0355C158.135 53.8036 157.21 51.0505 157.081 49.5802C156.986 48.4991 157.57 47.1135 157.885 46.456C158.288 46.9804 162.316 52.0348 167.232 52.2364C167.232 52.2364 164.636 51.3369 162.272 49.5761C163.447 50.153 164.696 50.514 165.863 50.3486H165.865Z" fill="#444444"/>
<path d="M188.531 75.322C188.46 75.0759 188.386 74.8197 188.307 74.5575C189.534 72.2139 190.138 70.1002 190.392 68.3132C190.954 64.5355 189.997 62.2039 189.997 62.2039C189.997 62.2039 184.263 59.1664 181.731 58.7792C181.721 58.7751 181.709 58.7711 181.699 58.7691C181.669 58.7651 181.635 58.761 181.598 58.759C179.042 58.406 173.511 59.5355 173.511 59.5355C173.511 59.5355 174.579 62.3733 171.566 64.2672C168.556 66.1591 165.34 63.7831 165.34 63.7831C165.243 63.8477 165.14 63.9203 165.033 63.9949C165.033 63.9949 157.111 69.2167 156.399 70.4108C155.688 71.6048 152.64 77.5123 152.64 77.5123C152.64 77.5123 153.607 82.474 164.309 82.8874C165.189 85.0193 165.861 87.0988 166.081 88.8333C166.931 95.5678 165.944 100.878 166.935 104.809C167.926 108.74 185.783 106.5 189.018 105.743C192.252 104.987 191.523 101.538 191.773 98.1858C192.086 93.9744 189.585 79.0391 188.531 75.324V75.322Z" fill="#699DEE"/>
<path d="M190.394 68.3133C190.138 70.1084 189.53 72.2302 188.293 74.5859C188.012 73.3496 186.869 68.8256 185.024 66.7744C185.024 66.7744 188.129 67.0548 190.392 68.3133H190.394Z" fill="#4A82D3"/>
<path d="M117.685 112.445C117.685 112.445 121.012 108.418 121.729 107.942C122.445 107.466 125.587 106.631 125.766 106.798C125.946 106.965 125.954 107.209 125.564 107.552C125.175 107.895 123.689 108.762 123.901 108.859C124.113 108.956 128.597 106.727 129.243 107.478C129.889 108.228 128.877 111.324 127.149 112.808C125.421 114.293 120.265 114.926 119.94 115.132C117.19 116.889 117.685 112.443 117.685 112.443V112.445Z" fill="#ED975D"/>
<path d="M59.1116 103.143C59.1116 103.143 63.8902 108.809 69.9771 106.439C69.9771 106.439 71.2873 103.274 71.3055 100.943C71.3055 100.656 71.3116 100.378 71.3156 100.114C71.3479 97.4877 71.4367 96.0134 71.4367 96.0134C71.4367 96.0134 71.4367 96.0134 71.4307 96.0134C71.1541 95.8984 62.1257 92.1953 62.1338 92.5019C62.2893 99.6055 59.1116 103.143 59.1116 103.143Z" fill="#FFB27D"/>
<path d="M63.0383 94.1961C63.9084 95.8076 66.8964 98.9621 71.3136 100.114C71.3459 97.4877 71.4348 96.0133 71.4348 96.0133C71.4348 96.0133 71.4348 96.0133 71.4287 96.0133C71.1784 95.9468 62.7799 93.7221 63.0383 94.1961Z" fill="#ED975D"/>
<path d="M73.3264 95.741C73.3264 95.741 63.1735 98.125 61.7845 91.7859C60.3956 85.4467 58.1506 81.4854 64.5726 79.6944C70.9966 77.9034 72.7893 80.0474 73.7685 82.0502C74.7476 84.053 75.9307 94.9565 73.3264 95.741Z" fill="#FFB27D"/>
<path d="M62.1318 93.5145C61.9925 93.6032 59.8081 94.2728 55.6714 86.0398C55.0214 84.7469 54.5792 81.9515 56.0934 79.4807C57.6075 77.01 62.9757 75.0677 67.4353 74.2226C71.895 73.3775 72.965 75.8846 74.0168 78.4037C75.1191 81.0479 78.3029 83.2262 78.3029 83.2262C74.4569 85.3722 69.8257 82.3024 68.2207 82.8066C66.6157 83.3109 66.0484 85.8381 65.9293 86.6489C65.8081 87.4577 65.6244 88.1313 63.6055 87.4072C61.5867 86.6832 62.693 90.2652 63.016 90.9489C63.016 90.9489 63.2906 92.7723 62.1338 93.5125L62.1318 93.5145Z" fill="#444444"/>
<path d="M35.9795 251.801H29.8321C28.544 251.801 27.1107 250.494 26.7533 248.104C26.394 245.71 23.7452 244.407 23.1719 242.448C22.5985 240.49 25.5359 237.735 25.5359 237.735L26.0265 237.095L26.5373 236.43L31.4068 237.589C31.4068 237.589 31.5259 238.763 31.6026 240.258C31.6551 241.337 31.6834 242.585 31.6228 243.681C31.4795 246.292 32.3456 249.102 34.635 249.61C36.9264 250.119 35.9795 251.803 35.9795 251.803V251.801Z" fill="#2C3A64"/>
<path d="M78.7752 251.859H62.481C62.3255 251.827 62.2064 251.792 62.1358 251.756C61.0476 251.195 61.3888 246.911 61.52 245.588C61.5442 245.344 61.5624 245.199 61.5624 245.199C61.5624 245.199 67.2919 240.486 68.0813 244.094C68.1055 244.207 68.1358 244.318 68.1661 244.427C69.1614 247.805 73.607 249.34 76.1749 249.767C78.1373 250.096 78.646 251.272 78.7773 251.859H78.7752Z" fill="#2C3A64"/>
<path d="M75.4905 157.719C75.4905 157.719 74.6204 168.566 73.5968 181.604C72.2058 199.316 70.5342 221.071 70.3687 225.191C70.082 232.347 68.9353 243.795 68.9353 243.795C68.9353 243.795 66.2159 246.514 60.771 245.369C60.771 245.369 55.9197 229.027 54.5327 211.736C54.5105 211.452 54.4903 211.168 54.4681 210.881C53.1801 193.28 51.1733 156.215 51.1733 156.215L75.4865 157.717L75.4905 157.719Z" fill="#4A82D3"/>
<path d="M75.4907 157.719C75.4907 157.719 74.6206 168.566 73.597 181.604L54.5349 211.738C54.5127 211.454 54.4925 211.17 54.4703 210.883C53.1823 193.282 51.1755 156.217 51.1755 156.217L75.4887 157.719H75.4907Z" fill="#3173D1"/>
<path d="M71.5175 159.008C71.5175 159.008 55.833 198.29 45.5186 216.751C35.2042 235.211 31.9821 240.363 31.9821 240.363C31.9821 240.363 26.0729 238.001 25.5359 236.391C25.5359 236.391 29.4807 200.752 36.3873 192.063C40.2897 187.154 44.8746 172.423 45.0886 167.271C45.3026 162.12 46.4856 151.923 46.4856 151.923L71.5175 159.006V159.008Z" fill="#4A82D3"/>
<path d="M35.604 152.465C35.604 152.465 35.1982 157.37 34.8994 158.125C34.6026 158.877 32.6181 161.212 32.39 161.18C32.1618 161.148 32.0225 160.962 32.1396 160.488C32.2567 160.012 32.9391 158.544 32.7231 158.582C32.5071 158.621 30.2358 162.757 29.3334 162.523C28.429 162.289 27.5447 159.349 28.0837 157.271C28.6228 155.194 32.2729 151.933 32.4122 151.598C33.5952 148.76 35.606 152.465 35.606 152.465H35.604Z" fill="#ED975D"/>
<path d="M33.9224 153.709C35.6586 154.266 35.9372 154.141 35.9372 154.141C35.9372 154.141 44.3862 138.772 45.2421 137.364C46.0981 135.956 63.1838 120.13 63.1838 120.13L58.7927 103.772C58.7927 103.772 39.3612 128.911 37.2616 132.52C33.7932 138.48 31.7622 152.326 31.7622 152.326C31.7622 152.326 32.5576 153.274 33.9224 153.711V153.709Z" fill="#1E3D70"/>
<path d="M78.8015 126.55C78.7409 129.91 78.5451 133.686 78.2826 137.52C78.2665 137.748 78.2503 137.976 78.2342 138.201C78.0646 140.577 77.8829 142.959 77.6729 145.281C77.5881 146.213 77.4993 147.132 77.4064 148.036L77.3923 148.157C77.3842 148.496 77.3439 148.863 77.3055 149.198C76.4495 157.897 75.5511 164.768 75.3835 164.873C75.1837 165.006 74.9596 165.073 74.7153 165.043C72.432 164.756 65.6203 165.275 60.0422 164.06C55.3363 163.068 51.2844 161.188 46.9883 158.653C46.4189 158.316 45.1188 157.425 45.2238 156.759C45.3267 156.027 45.5185 154.968 45.7628 153.639C46.6087 149.012 48.0683 141.053 48.567 131.739C48.6639 130.005 48.8052 128.29 48.989 126.606C49.4674 122.217 50.2346 118.048 51.2642 114.345C53.1761 107.466 55.9863 102.199 59.5113 100.138C59.9716 99.8799 62.4507 101.455 64.726 102.915C66.8276 104.263 69.0423 104.634 71.1944 104.446L73.0881 106.54C75.3815 109.204 77.8243 112.752 78.4926 117.792C78.5431 118.165 78.5855 118.561 78.6218 118.98C78.8075 121.033 78.8519 123.633 78.7995 126.546L78.8015 126.55Z" fill="#2A4E96"/>
<path d="M78.8015 126.55C78.7409 129.91 78.5451 133.686 78.2827 137.52C78.2665 137.748 78.2504 137.976 78.2342 138.201C65.1924 130.045 63.1836 115.122 63.1836 115.122C69.5995 115.402 74.6972 116.877 78.6259 118.984C78.8116 121.037 78.856 123.637 78.8035 126.55H78.8015Z" fill="#1E3D70"/>
<path d="M119.663 112.847C118.991 111.029 117.945 111.148 117.945 111.148C117.945 111.148 98.5541 115.977 96.8138 116.183C95.0735 116.39 75.9327 108.716 75.9327 108.716C75.9327 108.716 68.3983 105.338 64.8694 108.422C61.8027 111.102 61.6634 114.496 62.3801 117.348C63.2361 120.747 66.113 123.256 69.5915 123.7C77.4004 124.694 92.982 126.564 96.2465 126.11C103.514 125.099 119.984 115.602 119.984 115.602C119.984 115.602 120.19 114.273 119.663 112.847Z" fill="#2A4E96"/>
<path d="M310.877 148.357C310.877 148.357 313.57 150.852 313.045 152.625C312.52 154.397 310.087 155.579 309.76 157.745C309.431 159.912 308.117 161.094 306.934 161.094H301.295C301.295 161.094 300.425 159.569 302.526 159.109C304.63 158.649 305.422 156.104 305.29 153.74C305.159 151.376 305.488 148.226 305.488 148.226L309.956 147.175L310.877 148.357Z" fill="#2C3A64"/>
<path d="M277.299 160.797C277.026 160.934 276.065 161.029 274.747 161.091H261.996C262.038 160.712 262.335 159.361 264.421 159.026C266.777 158.643 270.857 157.275 271.767 154.266C271.797 154.169 271.824 154.071 271.846 153.972C272.569 150.755 277.824 154.956 277.824 154.956C277.824 154.956 277.84 155.085 277.862 155.305C277.985 156.487 278.296 160.303 277.299 160.799V160.797Z" fill="#2C3A64"/>
<path d="M265.044 74.7611C265.044 74.7611 265.842 84.7126 266.781 96.675C268.057 112.925 269.591 132.885 269.742 136.666C270.005 143.232 271.057 153.736 271.057 153.736C271.057 153.736 273.552 156.231 278.549 155.18C278.549 155.18 283 140.186 284.272 124.323C284.292 124.063 284.312 123.801 284.331 123.538C285.514 107.389 287.353 73.3835 287.353 73.3835L265.046 74.7611H265.044Z" fill="#35488B"/>
<path d="M265.044 74.7612C265.044 74.7612 265.842 84.7127 266.781 96.675L284.27 124.321C284.29 124.061 284.31 123.799 284.329 123.536C285.512 107.387 287.351 73.3816 287.351 73.3816L265.044 74.7592V74.7612Z" fill="#2C3A64"/>
<path d="M268.69 75.9431C268.69 75.9431 283.081 111.983 292.543 128.92C302.006 145.856 304.963 150.583 304.963 150.583C304.963 150.583 310.384 148.417 310.877 146.941C310.877 146.941 307.259 114.242 300.922 106.274C297.34 101.77 293.135 88.2544 292.939 83.5267C292.741 78.8011 291.657 69.4446 291.657 69.4446L268.692 75.9431H268.69Z" fill="#35488B"/>
<path d="M224.306 56.3951C224.306 56.3951 220.403 55.5036 219.745 55.548C219.089 55.5924 216.789 56.5544 216.759 56.74C216.729 56.9255 216.838 57.0768 217.234 57.1051C217.631 57.1313 218.938 56.9639 218.855 57.1232C218.772 57.2805 215.007 58.0207 214.966 58.7771C214.924 59.5334 216.987 60.9412 218.73 61.036C220.472 61.1308 223.898 59.1079 224.193 59.0816C226.684 58.8638 224.304 56.3971 224.304 56.3971L224.306 56.3951Z" fill="#FFB27D"/>
<path d="M222.634 57.3855C222.075 55.6045 222.206 55.3202 222.206 55.3202C222.206 55.3202 238.028 46.7725 239.477 45.9052C240.927 45.0379 257.278 27.6541 257.278 27.6541L274.026 32.2587C274.026 32.2587 248.108 51.9822 244.393 54.108C238.256 57.6174 224.041 59.6041 224.041 59.6041C224.041 59.6041 223.074 58.7832 222.634 57.3835V57.3855Z" fill="#3572D6"/>
<path d="M262.351 19.2051C262.351 19.2051 256.48 29.5257 250.741 30.873C250.741 30.873 250.979 27.4059 252.378 25.034C251.807 24.3604 251.304 23.7412 250.868 23.1865C249.422 21.337 248.736 20.2055 248.736 20.2055L250.684 14.9736L252.006 11.4238C252.642 12.5755 253.341 13.5577 254.072 14.3968C257.833 18.717 262.353 19.2051 262.353 19.2051H262.351Z" fill="#FFB27D"/>
<path d="M254.07 14.3967C254.07 14.3967 254.77 19.5681 250.866 23.1864C249.42 21.3369 248.734 20.2054 248.734 20.2054L250.682 14.9735C252.77 14.3382 254.07 14.3967 254.07 14.3967Z" fill="#ED975D"/>
<path d="M247.19 20.9679C247.19 20.9679 255.964 17.5513 253.749 12.1257C251.534 6.70023 251.177 2.60588 245.482 4.55826C239.786 6.51064 239.55 9.02171 239.849 11.0124C240.148 13.0031 244.852 21.7182 247.192 20.97L247.19 20.9679Z" fill="#FFB27D"/>
<path d="M292.507 72.1674C288.968 77.25 262.509 84.043 262.821 80.5235C262.941 79.1762 263.102 76.8023 262.817 73.5833C262.751 72.8289 262.658 72.0302 262.537 71.1851C261.865 66.5624 260.268 60.6165 256.706 53.7367C256.44 53.2204 256.161 52.7021 255.873 52.1757C254.407 49.5113 253.157 46.6957 252.204 43.9406C250.371 38.6482 249.632 33.5837 250.557 30.2739C250.561 30.2578 250.567 30.2436 250.571 30.2275C256.103 27.6721 258.245 17.7629 258.245 17.7629C258.245 17.7629 277.115 21.1473 287.684 46.2762C287.684 46.2762 295.584 67.7423 292.505 72.1674H292.507Z" fill="#245FC0"/>
<path d="M262.82 73.5834C262.753 72.8291 262.66 72.0304 262.539 71.1853C261.867 66.5625 260.27 60.6166 256.708 53.7369C257.32 50.0338 258.164 46.954 259.091 45.5684C262.854 39.9331 265.046 39.0537 265.046 39.0537C265.046 39.0537 270.691 62.8312 262.82 73.5834Z" fill="#3572D6"/>
<path d="M233.074 67.926C233.074 67.926 227.853 68.2003 227.045 68.4908C226.236 68.7812 223.694 70.8082 223.722 71.0523C223.75 71.2963 223.942 71.4476 224.449 71.3407C224.958 71.2318 226.538 70.5561 226.49 70.784C226.442 71.0119 221.98 73.285 222.198 74.2491C222.416 75.2152 225.509 76.2438 227.732 75.7416C229.954 75.2374 233.532 71.4738 233.891 71.3366C236.942 70.1749 233.072 67.926 233.072 67.926H233.074Z" fill="#FFB27D"/>
<path d="M232.09 69.9045C231.045 68.2164 231.798 67.4459 231.798 67.4459C231.798 67.4459 247.922 54.8321 249.186 53.5574C250.45 52.2827 256.305 31.9925 256.305 31.9925C256.305 31.9925 258.319 23.7816 263.04 22.876C267.14 22.0894 269.974 24.1164 271.83 26.4923C274.04 29.3241 274.256 33.2288 272.423 36.3167C268.307 43.2469 260.001 57.0063 257.575 59.356C252.176 64.5879 234.115 71.8973 234.115 71.8973C234.115 71.8973 232.91 71.2276 232.088 69.9025L232.09 69.9045Z" fill="#245FC0"/>
<path d="M255.006 2.04718C255.067 1.92616 255.247 1.79708 255.683 1.66396C255.683 1.66396 255.275 1.52681 254.798 1.63169C254.552 1.03065 253.955 0.00806769 252.83 0C252.83 0 253.474 0.167404 253.712 0.810802C252.174 -0.163371 249.321 -0.44574 242.201 1.92213C232.817 5.04432 237.505 10.488 238.926 10.9236C240.349 11.3593 242.968 8.55981 245.322 8.1766C247.676 7.79338 248.952 11.0709 249.848 11.3432C250.747 11.6155 250.236 10.8692 251.177 10.1229C252.117 9.37667 252.656 11.1334 252.636 12.3678C252.616 13.6021 254.449 14.7719 254.449 14.7719L255.525 12.8014C256.601 10.8309 256.309 3.67886 255.281 2.39005C255.19 2.2771 255.099 2.16012 255.006 2.04516V2.04718Z" fill="#444444"/>
<path d="M321.816 161.092H238.675V270.189H321.816V161.092Z" fill="#4A75CB"/>
<path d="M296.183 161.092H213.04V270.189H296.183V161.092Z" fill="#699DEE"/>
</svg>
