<svg width="192" height="19" viewBox="0 0 192 19" fill="none" xmlns="http://www.w3.org/2000/svg">
<g clip-path="url(#clip0_3001_291)">
<path d="M8.37064 16.8358C8.20353 16.4281 8.03643 16.0983 7.83824 15.7055L2.21896 4.26548L2.17232 4.16913H0V18.6183H1.69045V6.82994C1.71765 6.89294 1.74874 6.94853 1.77594 7.00412L7.43797 18.522L7.48461 18.6183H9.17506L14.8177 6.90777C14.8565 6.82994 14.8915 6.75583 14.9265 6.68171V18.6183H16.5975V4.16913H14.464L8.37064 16.8358Z" fill="black"/>
<path d="M27.7894 11.8218H39.5526V10.2875H27.7894V5.66259H40.5163V4.16913H25.994V18.6183H41.1264V17.1063H27.7894V11.8218Z" fill="black"/>
<path d="M48.0049 5.66259H54.6501V18.6183H56.4027V5.66259H62.7565V4.16913H48.0049V5.66259Z" fill="black"/>
<path d="M84.6118 11.3882C85.9875 10.4098 86.1896 8.97934 86.1896 8.21593C86.1896 7.60075 86.073 6.69652 85.5134 5.88493C84.7711 4.81023 83.582 4.23953 81.9809 4.19135C81.6195 4.17282 81.2542 4.17282 80.9006 4.17282H70.4937V18.622H72.2657V12.3257H78.7866L84.5846 18.5664L84.639 18.622H87.1028L81.1338 12.3072C82.3423 12.2479 83.5665 12.1293 84.6157 11.3919L84.6118 11.3882ZM83.9745 9.42033C83.4266 10.4469 82.3967 10.7026 81.0133 10.7693C80.6869 10.7915 80.3721 10.7915 80.0418 10.7915H72.2696V5.66258H80.9433C81.7672 5.66258 82.5483 5.66258 83.2361 6.09617C84.2388 6.74099 84.2893 7.90834 84.2893 8.1381C84.2893 8.74957 84.0678 9.23875 83.9745 9.42404V9.42033Z" fill="black"/>
<path d="M134.397 5.04001C133.27 4.23583 131.987 4.16913 130.666 4.16913H120.659V18.6183H122.474V12.2998H130.328C131.653 12.2998 133.168 12.2257 134.358 11.3474C135.729 10.3505 135.935 8.946 135.935 8.19741C135.935 6.90777 135.368 6.05912 135.131 5.76636C135.038 5.62924 134.75 5.31795 134.4 5.04371L134.397 5.04001ZM134.055 8.1937C134.055 8.93117 133.802 9.53152 133.308 9.97252C132.395 10.8063 131.027 10.8063 129.823 10.8063H122.47V5.65889H130.81C131.715 5.65889 132.446 5.74412 133.056 6.14806C134.023 6.79659 134.055 8.04918 134.055 8.19V8.1937Z" fill="black"/>
<path d="M152.109 3.72812C152.086 3.72812 152.063 3.72812 152.039 3.72812C148.2 3.72812 145.037 5.51805 143.77 8.41234C143.358 9.32769 143.148 10.3283 143.148 11.377C143.148 12.726 143.478 13.9786 144.135 15.0977C146.195 18.622 150.326 19.0037 152.004 19.0037C153.683 19.0037 157.002 18.6183 159.248 16.0464C160.814 14.2417 160.985 12.1664 160.985 11.3585C160.985 10.5506 160.826 8.96081 159.765 7.34875C157.604 4.08388 153.695 3.73182 152.113 3.73182L152.109 3.72812ZM156.656 16.1391C155.436 17.0063 153.858 17.4658 152.082 17.4658C150.901 17.4658 146.933 17.199 145.515 13.7896C145.107 12.826 145.044 11.8996 145.044 11.4326C145.044 8.50499 146.949 6.95223 147.531 6.54829C149.051 5.47358 150.916 5.30682 151.647 5.28088C151.771 5.28088 151.892 5.27347 152.012 5.27347C153.928 5.27347 155.335 5.83305 156.023 6.18141C157.966 7.18199 158.63 8.87187 158.852 9.79092C159.019 10.432 159.019 10.8693 159.015 11.188V11.2733C159.015 12.7186 158.603 14.7346 156.652 16.1391H156.656Z" fill="black"/>
<path d="M171.353 4.16913H169.538V18.6183H182.133V17.1063H171.353V4.16913Z" fill="black"/>
<path d="M192 4.16913H190.247V18.6183H192V4.16913Z" fill="black"/>
<path d="M103.203 3.61694C98.7494 3.61694 95.1392 7.0597 95.1392 11.3066C95.1392 15.5536 98.7494 18.9963 103.203 18.9963C107.656 18.9963 111.266 15.5536 111.266 11.3066C111.266 7.0597 107.656 3.61694 103.203 3.61694ZM103.203 17.6437C99.581 17.6437 96.647 14.8457 96.647 11.3919C96.647 7.93799 99.581 5.14006 103.203 5.14006C106.825 5.14006 109.759 7.93799 109.759 11.3919C109.759 14.8457 106.825 17.6437 103.203 17.6437Z" fill="url(#paint0_linear_3001_291)"/>
<path d="M103.203 1.58611C103.662 1.58611 104.034 1.23105 104.034 0.793056C104.034 0.355063 103.662 0 103.203 0C102.744 0 102.371 0.355063 102.371 0.793056C102.371 1.23105 102.744 1.58611 103.203 1.58611Z" fill="url(#paint1_linear_3001_291)"/>
</g>
<defs>
<linearGradient id="paint0_linear_3001_291" x1="95.1353" y1="11.3066" x2="111.266" y2="11.3066" gradientUnits="userSpaceOnUse">
<stop stop-color="#0F1C36"/>
<stop offset="0.11" stop-color="#11203F"/>
<stop offset="0.29" stop-color="#162B58"/>
<stop offset="0.53" stop-color="#1F3D82"/>
<stop offset="0.8" stop-color="#2B56BB"/>
<stop offset="0.99" stop-color="#356AE8"/>
</linearGradient>
<linearGradient id="paint1_linear_3001_291" x1="102.371" y1="0.793056" x2="104.031" y2="0.793056" gradientUnits="userSpaceOnUse">
<stop stop-color="#0F1C36"/>
<stop offset="0.11" stop-color="#11203F"/>
<stop offset="0.29" stop-color="#162B58"/>
<stop offset="0.53" stop-color="#1F3D82"/>
<stop offset="0.8" stop-color="#2B56BB"/>
<stop offset="0.99" stop-color="#356AE8"/>
</linearGradient>
<clipPath id="clip0_3001_291">
<rect width="192" height="19" fill="white"/>
</clipPath>
</defs>
</svg>
