<svg width="288" height="231" viewBox="0 0 288 231" fill="none" xmlns="http://www.w3.org/2000/svg">
<g clip-path="url(#clip0_511_437)">
<path d="M267.53 141.214C238.461 150.948 146.136 181.438 124.37 183.282C98.442 185.479 94.8027 164.088 94.8027 164.088C94.8027 164.088 123.805 122.352 127.477 123.085C131.148 123.818 141.164 140.215 145.02 137.469C148.875 134.724 165.014 78.8975 171.176 78.3112C176.957 77.7615 185.422 91.0166 187.821 88.8194C189.156 87.5989 195.171 75.0612 201.375 64.1739C206.326 55.4809 211.399 47.838 214.301 47.8521C217.214 47.8648 221.187 54.1576 225.376 62.1374C232.445 75.6038 255.053 125.509 258.869 131.044C261.415 134.742 264.389 138.05 267.531 141.214H267.53Z" fill="#D9E9FC"/>
<path opacity="0.4" d="M124.37 164.867C124.37 164.867 134.833 145.98 136.485 149.001C138.137 152.021 142.818 153.522 145.02 150.3C147.222 147.078 173.99 118.159 174.648 125.343C175.305 132.527 164.293 150.394 168.698 151.208C173.103 152.021 197.332 127.859 205.868 132.801C214.403 137.744 224.04 128.683 233.125 128.958C242.211 129.233 241.939 150.128 241.939 150.128L168.423 172.613L133.732 174.261L117.212 172.338L124.37 164.867Z" fill="#8CB7EA"/>
<path d="M273.738 147.211C273.738 147.211 154.256 172.041 141.788 171.359C141.788 171.359 150.604 162.623 161.618 162.257C172.631 161.891 177.404 151.523 190.252 150.3C203.102 149.077 210.812 151.824 216.134 149.077C221.456 146.331 227.515 132.969 239.996 133.334C250.703 133.648 254.79 133.424 258.866 131.042C262.127 135.777 266.087 139.872 270.208 143.848C271.375 144.974 272.556 146.09 273.736 147.209L273.738 147.211Z" fill="#B4D5EF"/>
<path d="M67.5149 63.6031C67.5149 63.6031 72.8925 53.7263 85.7535 54.8242C85.7535 54.8242 104.424 38.3628 124.336 52.6298C124.336 52.6298 145.502 49.0951 161.175 55.6909C171.627 60.0881 175.078 64.701 175.078 64.701L67.5149 63.6031Z" fill="white"/>
<path d="M-2.43462 94.857C-2.43462 94.857 2.12042 87.9102 13.0141 88.6812C13.0141 88.6812 28.8303 77.1019 45.6951 87.1379C45.6951 87.1379 63.6227 84.6518 76.8992 89.2914C85.7506 92.385 88.6748 95.6293 88.6748 95.6293L-2.43604 94.857H-2.43462Z" fill="white"/>
<path d="M155.898 30.0899C155.898 30.0899 160.453 23.1432 171.347 23.9141C171.347 23.9141 187.163 12.3348 204.028 22.3708C204.028 22.3708 221.955 19.8847 235.232 24.5243C244.083 27.6179 247.007 30.8622 247.007 30.8622L155.897 30.0899H155.898Z" fill="white"/>
<path d="M-10 16.6813C-10 16.6813 -5.4181 6.86934 5.54057 7.96019C5.54057 7.96019 21.4486 -8.39264 38.4138 5.7799C38.4138 5.7799 56.4474 2.26777 69.8016 8.8199C78.7054 13.1889 81.6464 17.7708 81.6464 17.7708L-10 16.6813Z" fill="white"/>
<path d="M123.072 156.033C123.072 156.033 132.984 179.829 134.085 180.562C135.186 181.295 139.238 182.222 139.514 183.32C139.789 184.418 146.121 198.969 146.121 198.969L121.893 203.637L102.62 192.381L123.072 156.033Z" fill="#446D3B"/>
<path d="M225.374 62.1373C225.374 62.1373 219.012 57.1876 217.543 55.6951C216.075 54.2054 214.239 57.7965 213.138 59.3341C212.037 60.8703 211.914 56.0883 211.914 54.624C211.914 53.1597 201.372 64.1767 201.372 64.1767V64.1724C206.324 55.4795 211.398 47.8365 214.3 47.8506C217.212 47.8633 221.185 54.1561 225.374 62.1359V62.1373Z" fill="white"/>
<path d="M161.683 95.3588C161.683 95.3588 169.206 75.4924 173.122 76.1026C177.038 76.7129 182.39 85.7244 182.39 85.7244C182.39 85.7244 176.946 81.0763 175.937 82.6322C174.928 84.1882 174.744 87.262 173 85.7244C171.256 84.1882 170.155 83.9669 169.237 85.7244C168.319 87.4818 161.683 95.3602 161.683 95.3602V95.3588Z" fill="white"/>
<path d="M265.205 231L192.101 230.968C192.47 227.494 199.087 225.738 198.473 222.31C197.686 217.917 165.118 216.269 178.188 210.664C191.025 205.161 218.254 206.153 219.229 206.188C219.247 206.19 219.256 206.19 219.256 206.19C224.029 206.556 260.74 203.993 265.146 210.583C269.551 217.173 265.205 231 265.205 231Z" fill="#F5C0AC"/>
<path d="M48.4792 191.081C48.4792 191.081 48.9287 198.07 50.2854 198.166C50.4663 198.179 57.1625 198.165 57.1625 198.165L65.7115 198.097C65.7115 198.097 65.6508 196.044 63.1507 195.614C60.6505 195.185 56.4644 193.443 54.9437 190.152C53.3438 186.691 48.4792 191.081 48.4792 191.081Z" fill="#444444"/>
<path d="M91.9846 185.158C91.9846 185.158 93.2891 192.038 94.6473 191.969C94.8282 191.961 101.472 191.128 101.472 191.128L109.949 190.016C109.949 190.016 109.637 187.985 107.103 187.864C104.569 187.744 100.2 186.526 98.2865 183.445C96.2726 180.205 91.9846 185.156 91.9846 185.156V185.158Z" fill="#444444"/>
<path d="M76.8242 115.905C76.8242 115.905 74.6195 130.17 66.3333 155.502C58.0472 180.835 56.9349 191.799 56.9349 191.799L47.986 191.568C47.986 191.568 47.8489 163.902 51.6662 151.164C55.4821 138.426 52.3954 105.27 52.3954 105.27L76.8242 115.903V115.905Z" fill="#233862"/>
<path d="M79.2522 102.955C79.2522 102.955 91.4348 127.488 94.5328 146.909C97.6321 166.33 100.071 184.099 100.071 184.099C100.071 184.099 97.0767 185.197 91.4673 185.681C91.4673 185.681 81.9742 157.483 80.968 150.461C79.9603 143.438 51.6704 115.363 53.8794 108.433C56.0883 101.504 79.2522 102.954 79.2522 102.954V102.955Z" fill="#2B478B"/>
<path d="M61.6016 55.6318C61.6016 55.6318 49.0204 67.6762 48.4184 72.6344C47.8163 77.5925 54.5224 85.3341 54.5224 85.3341L61.6016 55.6318Z" fill="#ED7D2B"/>
<path d="M63.7611 55.7389L68.5253 58.8395L75.3982 57.5471C75.3021 56.9932 74.8428 54.7002 74.4244 52.6228C74.399 52.5002 74.3735 52.3776 74.3509 52.2578C73.9934 50.4904 73.6839 48.9725 73.6839 48.9725L67.2548 46.1609L64.8578 45.1123C64.8635 45.1489 65.0472 47.0741 65.0727 47.3546C65.5334 52.3437 63.7583 55.7389 63.7583 55.7389H63.7611Z" fill="#F5C0AC"/>
<path d="M73.6302 54.1477C73.4959 54.0913 65.344 51.7123 64.4607 52.0055C63.576 52.2986 63.0559 54.0082 63.0559 54.0082L76.3875 56.9833C76.3875 56.9833 75.3346 54.8594 73.6302 54.1477Z" fill="#4A82D3"/>
<path d="M51.8103 108.707C53.2052 114.986 76.1896 115.682 82.1 109.965C82.7727 109.314 82.7996 106.29 82.5367 102.213C82.0223 94.2468 80.3998 82.2672 80.3249 76.145C80.2881 73.1881 79.874 70.165 79.3257 67.421C78.1583 61.5708 76.3875 56.9819 76.3875 56.9819C76.3875 56.9819 65.1546 53.3866 63.0559 54.0067C52.9423 56.9931 50.4168 102.425 51.8117 108.705L51.8103 108.707Z" fill="#739AF0"/>
<path d="M82.5367 102.214C82.0223 94.2483 81.7438 81.0962 81.6689 74.9739C81.6322 72.017 79.874 70.1666 79.3257 67.4225L72.5701 66.2485C72.5701 66.2485 66.0266 93.1547 82.5367 102.214Z" fill="#4A82D3"/>
<path d="M70.415 92.791C70.415 92.791 78.0666 86.1247 80.9285 81.9065L83.0894 83.3638C83.0894 83.3638 77.0575 93.4309 71.2912 96.0861C65.525 98.7399 70.415 92.791 70.415 92.791Z" fill="#444444"/>
<path d="M65.556 47.442C66.9721 49.821 72.231 51.8703 74.4244 52.6229C74.399 52.5002 74.3735 52.3776 74.3509 52.2578C73.9934 50.4905 73.6838 48.9726 73.6838 48.9726L67.2548 46.1609C65.8358 46.1454 64.9723 46.4639 65.556 47.442Z" fill="#D6826F"/>
<path d="M75.8675 48.2832C75.8675 48.2832 66.1101 52.9849 63.2679 46.8795C60.4258 40.7756 57.2516 37.2705 63.3612 34.0106C69.4709 30.7508 71.7746 32.5153 73.2204 34.3235C74.6662 36.1303 78.3322 46.9035 75.8675 48.2832Z" fill="#F5C0AC"/>
<path d="M72.7257 33.7683C72.7257 33.7683 73.1822 41.2957 71.5923 41.2013C70.0037 41.1069 68.5706 41.0759 69.1303 43.2815C69.69 45.4872 72.2127 47.7576 67.5234 48.8584C62.8341 49.9591 54.1847 38.7603 55.1443 36.253C57.913 29.023 76.9515 24.8217 72.7257 33.7683Z" fill="#444444"/>
<path d="M57.0155 81.9657C57.0155 81.9657 55.8481 82.1053 55.7421 83.2003C55.6347 84.2954 54.8984 97.6237 55.5669 97.9761C56.2354 98.3284 59.0139 98.1861 59.175 97.9761C59.3361 97.7661 59.9382 83.1397 59.534 82.2575C59.534 82.2575 58.1786 81.7332 57.0169 81.9657H57.0155Z" fill="#444444"/>
<path d="M82.6046 97.1699C82.6046 97.1699 84.2158 98.3623 84.5549 99.6547C85.1033 101.749 84.7542 103.708 82.6936 104.496C81.9333 104.786 81.8301 102.986 81.2662 102.214C80.7037 101.44 78.694 101.013 79.1533 99.8365C79.6127 98.6596 80.5115 96.3582 80.5115 96.3582L82.6046 97.1714V97.1699Z" fill="#F5C0AC"/>
<path d="M79.9222 97.8647C79.9222 97.8647 78.6474 99.2614 78.516 100.161C78.3845 101.06 78.3322 102.451 78.3026 103.044C78.2729 103.637 78.5725 104.128 79.1237 103.161C79.6749 102.194 80.1469 100.91 80.5228 100.912C80.8974 100.913 79.9222 97.8647 79.9222 97.8647Z" fill="#F5C0AC"/>
<path d="M71.0933 55.3936C71.0933 55.3936 79.0939 56.8043 85.2672 65.8341C91.4404 74.8639 93.7271 80.638 92.6007 83.9007C91.4744 87.162 85.8523 97.2741 84.716 98.6426C83.7436 99.8138 80.9284 99.7307 79.0854 98.9386C79.0854 98.9386 82.6554 83.8937 81.2195 82.2673C80.6061 81.5724 72.6875 74.9033 71.4339 78.1364C69.3591 83.4849 71.0947 55.3936 71.0947 55.3936H71.0933Z" fill="#739AF0"/>
<path d="M77.928 58.4673C77.928 58.4673 76.6165 56.1573 73.5101 55.6965C70.4037 55.2356 68.5254 58.8393 68.5254 58.8393L70.8488 59.7188C70.8488 59.7188 72.3427 56.9832 73.6938 56.9832C75.3997 56.9832 76.7776 57.5611 77.928 58.4673Z" fill="#444444"/>
<path d="M72.8939 69.5378C72.8939 69.5378 69.6575 69.4941 65.5123 69.3983C58.2211 69.232 48.1132 68.905 47.8532 68.3779C47.4476 67.5478 47.9874 58.3221 50.4791 57.6555C50.6953 57.5977 51.0062 57.5484 51.3935 57.5118C55.4185 57.127 67.7227 57.8542 70.5606 58.7661C73.6684 59.7653 72.8939 69.5378 72.8939 69.5378Z" fill="#294573"/>
<path d="M65.5108 69.3983C58.2196 69.232 48.1117 68.905 47.8517 68.3779C47.4461 67.5478 47.986 58.3221 50.4776 57.6555C50.6938 57.5977 51.0048 57.5484 51.392 57.5117C56.152 57.7189 61.432 58.2079 63.1676 58.766C66.0592 59.6948 65.5928 68.2017 65.5108 69.3983Z" fill="#1E355B"/>
<path d="M72.8924 69.5378C72.8924 69.5378 47.9181 67.0629 43.5934 68.5019C39.2688 69.9409 39.2688 99.326 40.6199 101.347C41.971 103.37 66.5072 105.247 69.9853 104.173C73.4648 103.099 72.8924 69.5364 72.8924 69.5364V69.5378Z" fill="#1E355B"/>
<path d="M65.5165 68.8896C65.5165 68.8896 62.0963 69.201 61.7826 71.6265C61.4688 74.052 59.3107 103.592 61.2681 104.373C63.2255 105.154 71.3704 104.838 71.8424 104.373C72.3159 103.908 74.0782 71.4912 72.8925 69.5365C72.8925 69.5365 68.9211 68.3751 65.5165 68.8881V68.8896Z" fill="#294573"/>
<path d="M50.0282 60.8379C50.0282 60.8379 49.2311 64.9363 50.26 65.5607C51.2888 66.185 53.7861 66.3626 54.4066 65.6311C55.027 64.8997 54.8927 60.921 54.8927 60.921L50.0282 60.8379Z" fill="#294573"/>
<path d="M50.0282 60.8379C50.0282 60.8379 50.3773 62.4953 52.3248 62.5291C54.2737 62.563 54.8928 60.9211 54.8928 60.9211C54.8928 60.9211 52.2485 59.7273 50.0282 60.8379Z" fill="#325590"/>
<path d="M51.9743 61.8822C51.9771 61.6821 52.1425 61.5229 52.3431 61.5257C52.5438 61.5285 52.7035 61.6934 52.7007 61.8935C52.6979 62.0936 52.5325 62.2529 52.3318 62.2501C52.1312 62.2473 51.9715 62.0824 51.9743 61.8822Z" fill="#325590"/>
<path d="M57.3843 61.3369C57.3843 61.3369 56.3257 65.3761 57.3122 66.0639C58.2987 66.7531 60.7804 67.0885 61.4461 66.3993C62.1132 65.7102 62.2347 61.7301 62.2347 61.7301L57.3843 61.3369Z" fill="#294573"/>
<path d="M57.3843 61.3368C57.3843 61.3368 57.626 63.0125 59.5679 63.1704C61.5097 63.3282 62.2334 61.73 62.2334 61.73C62.2334 61.73 59.6711 60.37 57.3829 61.3368H57.3843Z" fill="#325590"/>
<path d="M59.2583 62.5024C59.2752 62.3023 59.4505 62.1543 59.6498 62.1712C59.849 62.1882 59.9988 62.3629 59.9819 62.5616C59.9649 62.7604 59.7897 62.9097 59.5904 62.8928C59.3911 62.8759 59.2413 62.7012 59.2583 62.5024Z" fill="#325590"/>
<path d="M43.12 71.9634C43.12 71.9634 42.0388 75.7715 42.6465 76.7651C43.2543 77.7587 56.9745 78.4338 57.8522 77.6248C58.7312 76.8158 58.8655 72.4355 58.8655 72.4355L43.1186 71.9634H43.12Z" fill="#294573"/>
<path d="M43.12 71.9634C43.12 71.9634 44.9954 74.3226 49.7342 74.3889C54.473 74.4565 58.8669 72.4341 58.8669 72.4341C58.8669 72.4341 47.7839 70.4793 43.12 71.962V71.9634Z" fill="#325590"/>
<path d="M48.9993 73.4968C48.9993 73.2741 49.1802 73.0923 49.4049 73.0923C49.6296 73.0923 49.8105 73.2727 49.8105 73.4968C49.8105 73.7209 49.6296 73.9013 49.4049 73.9013C49.1802 73.9013 48.9993 73.7209 48.9993 73.4968Z" fill="#325590"/>
<path d="M55.1104 81.8092C55.1104 81.8092 43.7786 81.3272 43.12 81.8092C42.4614 82.2912 42.2071 97.8604 42.7144 98.6187C43.2218 99.3769 54.6765 99.7306 54.6765 99.7306L55.1104 81.8092Z" fill="#325590"/>
<path opacity="0.4" d="M0.914917 154.441L35.265 160.287C35.1661 160.261 33.5267 159.786 31.6583 157.132C29.7291 154.393 23.2139 151.275 11.4666 151.458C8.03509 151.512 4.44674 150.528 0.914917 148.974V154.442V154.441Z" fill="#051430"/>
<path d="M48.5457 122.719C38.2668 116.495 32.0257 126.745 19.911 133.937C12.6255 138.263 7.06416 137.562 0.914917 132.232V176.258L48.9132 183.438L80.9285 164.453C80.9285 164.453 58.826 128.941 48.5471 122.717L48.5457 122.719Z" fill="#D9E9FC"/>
<path d="M273.738 147.211C245.215 146.984 196.858 158.862 157.922 168.454C116.459 178.67 61.3445 168.712 0.914917 150.968V230.88L10.6737 230.885H12.8799L15.5694 230.886L33.5733 230.894L37.4641 230.899L59.5383 230.907H62.2476L78.0906 230.916H80.2332L96.8337 230.921H99.1614L176.706 230.958L261.995 230.999C277.361 231.006 304.992 198.699 273.738 147.209V147.211Z" fill="#AFD295"/>
<path d="M265.146 210.583C260.74 203.992 224.029 206.556 219.256 206.19C219.256 206.19 219.248 206.19 219.229 206.188C214.492 205.798 216.285 199.227 199.066 195.939C181.811 192.644 135.921 198.502 116.83 197.77C97.7397 197.037 132.617 169.215 123.072 156.035C113.526 142.856 80.4862 153.839 22.4804 174.339C15.5029 176.806 8.25839 179.499 0.914917 182.328V230.88L10.6737 230.884H12.8799L15.5694 230.886L33.5733 230.894L37.4641 230.899L59.5383 230.907H62.2476L78.0906 230.915H80.2332L96.8337 230.921H99.1614L176.706 230.958L192.1 230.965L265.204 230.997C265.204 230.997 269.551 217.17 265.144 210.58L265.146 210.583Z" fill="#82B378"/>
</g>
<defs>
<clipPath id="clip0_511_437">
<rect width="298" height="231" fill="white" transform="translate(-10)"/>
</clipPath>
</defs>
</svg>
