<svg width="65" height="65" viewBox="0 0 65 65" fill="none" xmlns="http://www.w3.org/2000/svg">
<g clip-path="url(#clip0_525_7308)">
<path d="M65 32.5C65 14.5488 50.4512 0 32.5 0C14.5488 0 0 14.5488 0 32.5C0 50.4512 14.5488 65 32.5 65C32.6904 65 32.8809 65 33.0713 64.9873V39.6982H26.0889V31.5605H33.0713V25.5684C33.0713 18.624 37.3115 14.8408 43.5068 14.8408C46.4775 14.8408 49.0293 15.0566 49.7656 15.1582V22.4199H45.5C42.1357 22.4199 41.4756 24.0195 41.4756 26.3682V31.5479H49.5371L48.4834 39.6855H41.4756V63.7432C55.0596 59.8457 65 47.3408 65 32.5Z" fill="url(#paint0_angular_525_7308)"/>
</g>
<defs>
<radialGradient id="paint0_angular_525_7308" cx="0" cy="0" r="1" gradientUnits="userSpaceOnUse" gradientTransform="translate(32.5 32.5) rotate(90) scale(32.5)">
<stop stop-color="#1C6EF6"/>
<stop offset="0.21" stop-color="#1F58BB"/>
<stop offset="0.45" stop-color="#233862"/>
<stop offset="0.665" stop-color="#244C91"/>
<stop offset="0.88" stop-color="#245FC0"/>
</radialGradient>
<clipPath id="clip0_525_7308">
<rect width="65" height="65" fill="white"/>
</clipPath>
</defs>
</svg>
