<svg width="68" height="68" viewBox="0 0 68 68" fill="none" xmlns="http://www.w3.org/2000/svg">
<g clip-path="url(#clip0_525_7297)">
<path d="M34 40.9727C37.8509 40.9727 40.9727 37.8509 40.9727 34C40.9727 30.1491 37.8509 27.0273 34 27.0273C30.1491 27.0273 27.0273 30.1491 27.0273 34C27.0273 37.8509 30.1491 40.9727 34 40.9727Z" fill="url(#paint0_linear_525_7297)"/>
<path d="M34 0.796875C15.6624 0.796875 0.796875 15.6624 0.796875 34C0.796875 52.3376 15.6624 67.2031 34 67.2031C52.3376 67.2031 67.2031 52.3376 67.2031 34C67.2031 15.6624 52.3376 0.796875 34 0.796875ZM54.514 42.4389C54.3546 45.5956 53.4675 48.7085 51.1671 50.9845C48.8443 53.2821 45.7167 54.1382 42.5296 54.296H25.4705C22.283 54.1382 19.1558 53.2826 16.8331 50.9845C14.5325 48.7085 13.6456 45.5956 13.4862 42.4389V25.5611C13.6456 22.4044 14.5326 19.2915 16.8331 17.0154C19.1558 14.7177 22.2834 13.8616 25.4705 13.704H42.5295C45.717 13.8616 48.8442 14.7174 51.1669 17.0154C53.4675 19.2915 54.3544 22.4044 54.5138 25.5611L54.514 42.4389Z" fill="url(#paint1_angular_525_7297)"/>
<path d="M42.3143 17.5496C38.1591 17.4356 29.8424 17.4356 25.6872 17.5496C23.5249 17.6089 21.0736 18.1472 19.5329 19.7928C17.932 21.5033 17.3271 23.5698 17.2657 25.8817C17.1579 29.9394 17.2657 42.1183 17.2657 42.1183C17.336 44.4299 17.932 46.4967 19.5329 48.2072C21.0736 49.8533 23.5249 50.3911 25.6872 50.4504C29.8424 50.5644 38.1591 50.5644 42.3143 50.4504C44.4766 50.3911 46.9279 49.8528 48.4685 48.2072C50.0695 46.4967 50.6744 44.4302 50.7358 42.1183V25.8817C50.6744 23.5698 50.0695 21.5033 48.4685 19.7928C46.9274 18.1467 44.4761 17.6089 42.3143 17.5496ZM34.0002 44.8076C31.8627 44.8076 29.7731 44.1738 27.9958 42.9862C26.2185 41.7986 24.8333 40.1107 24.0153 38.1359C23.1973 36.1611 22.9832 33.988 23.4003 31.8915C23.8173 29.7951 24.8466 27.8693 26.3581 26.3579C27.8695 24.8464 29.7953 23.8171 31.8918 23.4C33.9882 22.983 36.1613 23.1971 38.1361 24.0151C40.1109 24.8331 41.7989 26.2183 42.9864 27.9956C44.174 29.7729 44.8078 31.8625 44.8078 34C44.8078 36.8664 43.6692 39.6153 41.6424 41.6421C39.6155 43.669 36.8666 44.8076 34.0002 44.8076ZM44.8538 25.4232C44.4263 25.4231 44.0084 25.2963 43.6531 25.0587C43.2977 24.8211 43.0207 24.4835 42.8572 24.0885C42.6937 23.6935 42.6509 23.259 42.7344 22.8397C42.8179 22.4204 43.0238 22.0353 43.3261 21.7331C43.6284 21.4309 44.0135 21.225 44.4328 21.1417C44.8521 21.0583 45.2867 21.1012 45.6816 21.2648C46.0766 21.4284 46.4141 21.7054 46.6516 22.0609C46.8891 22.4163 47.0158 22.8342 47.0158 23.2617C47.0158 23.5456 46.9599 23.8267 46.8513 24.089C46.7426 24.3513 46.5833 24.5896 46.3826 24.7903C46.1818 24.991 45.9434 25.1503 45.6811 25.2588C45.4188 25.3674 45.1377 25.4233 44.8538 25.4232Z" fill="url(#paint2_linear_525_7297)"/>
</g>
<defs>
<linearGradient id="paint0_linear_525_7297" x1="27.0273" y1="34" x2="40.9727" y2="34" gradientUnits="userSpaceOnUse">
<stop stop-color="#091934"/>
<stop offset="0.5" stop-color="#134495"/>
<stop offset="1" stop-color="#1C6EF6"/>
</linearGradient>
<radialGradient id="paint1_angular_525_7297" cx="0" cy="0" r="1" gradientUnits="userSpaceOnUse" gradientTransform="translate(34 34) rotate(90) scale(33.2031)">
<stop stop-color="#1C6EF6"/>
<stop offset="0.21" stop-color="#1F58BB"/>
<stop offset="0.45" stop-color="#233862"/>
<stop offset="0.665" stop-color="#244C91"/>
<stop offset="0.88" stop-color="#245FC0"/>
</radialGradient>
<linearGradient id="paint2_linear_525_7297" x1="17.2178" y1="34" x2="50.7358" y2="34" gradientUnits="userSpaceOnUse">
<stop stop-color="#091934"/>
<stop offset="0.5" stop-color="#134495"/>
<stop offset="1" stop-color="#1C6EF6"/>
</linearGradient>
<clipPath id="clip0_525_7297">
<rect width="68" height="68" fill="white"/>
</clipPath>
</defs>
</svg>
