<svg width="66" height="67" viewBox="0 0 66 67" fill="none" xmlns="http://www.w3.org/2000/svg">
<g clip-path="url(#clip0_525_7302)">
<path d="M33 0C14.7774 0 0 15.0013 0 33.5C0 51.9987 14.7774 67 33 67C51.2226 67 66 51.9987 66 33.5C66 15.0013 51.2226 0 33 0ZM23.4106 50.6426H15.3736V26.0967H23.4106V50.6426ZM19.3923 22.745H19.34C16.643 22.745 14.8987 20.8603 14.8987 18.5048C14.8987 16.0962 16.6964 14.2637 19.4457 14.2637C22.195 14.2637 23.8869 16.0962 23.9393 18.5048C23.9393 20.8603 22.195 22.745 19.3923 22.745ZM52.3903 50.6426H44.3543V37.5111C44.3543 34.211 43.1906 31.9604 40.2827 31.9604C38.0626 31.9604 36.7403 33.4785 36.1592 34.9441C35.9467 35.4685 35.8949 36.2015 35.8949 36.9351V50.6426H27.8584C27.8584 50.6426 27.9636 28.3996 27.8584 26.0967H35.8949V29.5722C36.9629 27.8996 38.8738 25.5206 43.1378 25.5206C48.4254 25.5206 52.3903 29.0288 52.3903 36.568V50.6426Z" fill="url(#paint0_angular_525_7302)"/>
</g>
<defs>
<radialGradient id="paint0_angular_525_7302" cx="0" cy="0" r="1" gradientUnits="userSpaceOnUse" gradientTransform="translate(33 33.5) rotate(90) scale(33.5 33)">
<stop stop-color="#1C6EF6"/>
<stop offset="0.21" stop-color="#1F58BB"/>
<stop offset="0.45" stop-color="#233862"/>
<stop offset="0.665" stop-color="#244C91"/>
<stop offset="0.88" stop-color="#245FC0"/>
</radialGradient>
<clipPath id="clip0_525_7302">
<rect width="66" height="67" fill="white"/>
</clipPath>
</defs>
</svg>
