<svg width="509" height="276" viewBox="0 0 509 276" fill="none" xmlns="http://www.w3.org/2000/svg">
<g clip-path="url(#clip0_16_10167)">
<path d="M491.606 276L362.339 275.602L282.209 275.357L279.771 275.349L274.129 275.332C222.606 246.718 206.904 216.715 206.904 216.715C208.748 216.255 340.603 189.057 429.554 195.122C436.687 199.634 445.699 203.507 454.688 208.05C459.65 210.559 464.601 213.269 469.225 216.404C485.708 227.576 498.009 244.126 491.606 276Z" fill="#E1EFFF"/>
<path d="M491.606 276L17.8336 274.544C17.8336 274.544 -7.576 232.469 2.2688 186.765C8.10275 190.734 14.7177 193.608 18.9213 190.336C24.2248 186.208 39.4126 174.148 50.9148 165.004L50.9189 165C58.8308 158.709 64.9962 153.797 64.9962 153.797C64.9962 153.797 71.4579 147.576 75.6863 149.318C77.642 150.125 79.5459 152.051 81.2219 153.813C81.2343 153.824 81.2385 153.828 81.2385 153.828C83.1776 155.866 84.8143 157.681 85.8791 157.28C86.8446 156.92 93.936 149.66 102.184 141.599C110.951 133.023 121.024 123.53 126.406 120.453C126.406 120.453 131.411 115.319 136.848 121.2C139.63 124.21 143.912 131.907 148.696 141.161C159.732 162.508 173.44 192.15 177.602 191.756C183.569 191.19 192.852 177.92 198.487 176.593C204.122 175.266 229.783 221.693 240.725 223.684C251.664 225.674 272.551 208.753 289.46 213.729C306.37 218.707 333.723 246.579 359.085 241.603C379.383 237.62 425.278 215.16 454.692 208.052C477.338 219.497 499.812 235.185 491.61 276.002L491.606 276Z" fill="#D9E9FC"/>
<path d="M491.917 274.379L423.886 275.021L362.337 275.602L17.8315 274.544C17.8315 274.544 5.74922 254.539 1.47527 227.136C0.474628 220.731 -0.0950942 213.92 0.0105634 206.866C43.6658 210.196 126.702 234.215 149.75 238.304C175.939 242.949 265.447 247.595 292.63 254.894C319.813 262.193 348.654 259.87 363.24 257.548C377.827 255.226 423.648 255.566 438.651 246.762C448.069 241.236 470.286 237.066 471.397 239.386C473.729 244.253 475.436 249.246 476.626 253.443C477.593 252.997 478.561 252.586 479.522 252.209C478.94 249.25 478.13 243.583 479.934 241.435C482.42 238.472 483.974 242.959 483.58 246.934C483.419 248.576 482.768 250.075 482.06 251.274C483.58 250.061 486.075 248.234 487.558 248.012C488.965 247.803 490.471 248.132 491.395 248.406C491.14 246.994 490.645 245.256 489.713 243.282C488.358 240.421 482.886 238.621 478.95 237.035C475.428 235.613 473.133 234.362 476.12 232.666C479.288 230.868 483.396 232.575 486.709 234.727C486.918 234.864 487.125 235.001 487.326 235.14C489.561 239.133 491.268 243.62 492.279 248.709C493.719 255.941 493.757 264.393 491.917 274.383V274.379Z" fill="#8CB7EA"/>
<path d="M491.917 274.379L423.886 275.021L362.338 275.602L282.208 275.355L279.769 275.347L274.128 275.33L200.822 275.104L17.8318 274.543C17.8318 274.543 5.74954 254.538 1.47559 227.134C36.2514 230.147 105.134 236.683 187.507 247.073C305.867 262.006 367.55 271.853 431.864 251.927C443.727 248.251 454.009 244.935 463.015 242.055C465.94 241.118 468.73 240.228 471.397 239.384C474.034 238.553 476.547 237.767 478.95 237.031C481.675 236.197 484.258 235.426 486.709 234.723C486.918 234.86 487.125 234.997 487.326 235.136C489.562 239.129 491.269 243.616 492.28 248.705C493.72 255.937 493.757 264.389 491.917 274.379Z" fill="#B4D5EF"/>
<path d="M483.773 274.379L362.34 275.602L282.21 275.357L279.772 275.349L274.13 275.332L200.825 275.106L17.7366 274.379C17.7366 274.379 17.4984 273.987 16.9162 272.931C16.1248 271.492 14.8818 269.124 13.415 265.977C32.9348 259.153 68.1021 245.31 101.475 256.016C151.207 271.963 350.628 274.451 385.937 267.982C421.245 261.511 466.071 251.964 478.866 263.849C482.332 267.07 483.668 269.792 483.773 274.381V274.379Z" fill="#AFD295"/>
<path d="M17.2829 273.593C17.1752 273.4 17.0529 273.18 16.9141 272.931C16.1227 271.492 14.8797 269.124 13.4129 265.977C13.0338 265.162 12.6381 264.295 12.2341 263.377C11.913 262.647 11.5836 261.886 11.2501 261.094C11.1382 260.83 11.0263 260.563 10.9145 260.293C10.7984 260.016 10.6824 259.734 10.5664 259.449C18.99 239.697 37.9379 200.332 55.647 205.242C73.1032 210.082 36.7301 252.507 17.2808 273.595L17.2829 273.593Z" fill="#82B378"/>
<path d="M5.84269 246.129C5.3662 244.558 4.90213 242.934 4.46086 241.265C4.03823 239.671 3.63217 238.037 3.25098 236.363C6.73975 218.658 12.4266 197.048 19.2881 197.84C27.4238 198.777 14.3305 228.546 5.84477 246.129H5.84269Z" fill="#82B378"/>
<path d="M72.0172 256.961C66.1252 260.107 49.1081 267.978 34.6268 274.588L26.9801 274.565L21.6807 274.549C34.0302 263.041 55.632 246.237 74.5923 246.426C76.3988 246.445 77.9837 247.745 78.2696 249.532C78.57 251.419 77.501 254.036 72.0192 256.963L72.0172 256.961Z" fill="#82B378"/>
<path d="M491.917 274.379C491.834 274.827 491.749 275.279 491.658 275.735H423.25C423.25 275.735 423.472 275.471 423.886 275.021C426.459 272.233 436.517 262.313 447.864 264.028C461.042 266.02 464.021 262.037 464.021 262.037C465.871 260.186 467.871 258.577 469.949 257.177C460.821 253.774 444.216 247.04 451.865 245.696C459.024 244.437 467.583 251.396 472.159 255.779C472.741 255.435 473.33 255.106 473.918 254.788C470.28 249.088 466.565 245.147 463.015 242.055C461.048 240.344 459.134 238.895 457.309 237.554C453.781 234.96 450.59 232.764 448.022 229.859C440.621 221.484 447.303 218.934 447.303 218.934C456.192 219.307 462.811 225.204 467.628 232.61C469.035 234.773 470.288 237.064 471.399 239.384C473.731 244.251 475.439 249.244 476.628 253.441C477.595 252.995 478.563 252.584 479.524 252.207C478.942 249.248 478.132 243.581 479.936 241.433C482.422 238.47 483.976 242.957 483.583 246.932C483.421 248.574 482.77 250.073 482.062 251.272C483.583 250.059 486.077 248.232 487.56 248.01C488.967 247.801 490.473 248.13 491.397 248.404C491.142 246.992 490.647 245.254 489.715 243.281C488.36 240.419 482.889 238.619 478.952 237.033C475.43 235.611 473.135 234.36 476.122 232.664C479.29 230.867 483.398 232.573 486.711 234.725C486.92 234.862 487.127 234.999 487.328 235.138C489.564 239.131 491.271 243.618 492.282 248.707C493.721 255.939 493.759 264.391 491.919 274.381L491.917 274.379Z" fill="#82B378"/>
<path d="M148.692 141.159C146.069 142.005 142.416 142.459 141.963 138.932C141.3 133.79 126.547 143.743 118.923 145.899C111.299 148.056 115.608 139.264 115.443 136.776C115.341 135.254 107.929 138.694 102.182 141.597C110.949 133.021 121.022 123.528 126.404 120.451C126.404 120.451 131.409 115.317 136.846 121.198C139.628 124.208 143.91 131.905 148.694 141.159H148.692Z" fill="#F8FBFF"/>
<path d="M81.2201 153.812C81.0523 153.66 79.6332 152.497 77.0415 153.826C74.2799 155.244 70.6336 156.02 68.9763 155.522C67.3189 155.025 50.915 165.002 50.915 165.002L50.9192 164.998C58.8311 158.707 64.9965 153.795 64.9965 153.795C64.9965 153.795 71.4582 147.575 75.6866 149.316C77.6423 150.123 79.5462 152.049 81.2222 153.812H81.2201Z" fill="#F8FBFF"/>
<path d="M321.941 71.7449C318.514 71.7449 315.736 74.5254 315.736 77.957C315.736 81.3887 318.514 84.1671 321.941 84.1671C325.368 84.1671 328.146 81.3866 328.146 77.957C328.146 74.5275 325.368 71.7449 321.941 71.7449Z" fill="#F8FBFF"/>
<path d="M133.973 152.93C133.681 152.826 133.727 152.397 134.036 152.362C136.159 152.121 140.615 151.922 140.936 152.088C141.338 152.298 142.434 152.663 143.193 152.895C153.648 150.268 164.111 150.04 164.111 150.04C167.057 149.48 182.752 146.003 192.798 149.084C197.646 150.571 198 153.874 198 153.874C198 153.874 191.625 156.304 187.695 157.235C185.178 157.83 166.831 157.494 154.15 156.87C148.649 156.6 144.365 155.779 142.652 155.783C142.654 155.792 142.656 155.8 142.652 155.802L139.07 156.074C138.028 156.152 137.22 155.178 137.489 154.168L133.975 152.93H133.973Z" fill="#E8945B"/>
<path d="M189.503 142.984L172.178 147.97L173.023 157.904L183.601 158.305L189.503 142.984Z" fill="#487AE7"/>
<path d="M206.436 151.717C206.436 151.717 216.859 146.969 224.744 151.122C232.628 155.275 227.808 189.558 216.533 192.882C216.533 192.882 195.41 199.642 206.438 151.717H206.436Z" fill="#35488B"/>
<path d="M170.989 265.237C170.989 265.237 169.35 267.19 166.715 267.161C165.087 267.144 163.574 267.636 162.472 268.56C161.496 269.38 161.894 270.97 163.137 271.256L175.578 274.109C176.775 274.385 177.948 273.566 178.103 272.347C178.219 271.432 178.362 270.408 178.501 269.616C178.828 267.752 177.324 265.848 177.324 265.848L170.989 265.235V265.237Z" fill="#2C3A64"/>
<path d="M168.801 265.429C168.801 265.429 172.377 268.237 179.443 268.059C179.443 268.059 186.86 236.299 188.26 234.366C188.594 233.91 189.29 232.728 190.16 231.165C190.235 231.03 190.311 230.891 190.388 230.754C193.23 225.643 197.676 217.071 197.997 215.767C198.433 214.015 193.32 191.501 189.126 192.225C185.992 192.77 183.286 194.184 182.118 194.86C181.724 195.092 181.505 195.238 181.505 195.238C181.505 195.238 181.345 195.878 181.074 196.99C180.825 197.997 180.481 199.393 180.071 201.048C180.021 201.253 179.969 201.462 179.916 201.678C177.591 211.139 173.46 227.995 172.832 230.862C171.956 234.893 168.801 265.427 168.801 265.427V265.429Z" fill="#35488B"/>
<path d="M180.069 201.048L190.389 230.752C193.231 225.641 197.677 217.069 197.998 215.765C198.433 214.013 193.32 191.499 189.127 192.223C185.992 192.768 183.287 194.182 182.118 194.858C181.725 195.091 181.505 195.236 181.505 195.236C181.505 195.236 181.346 195.876 181.074 196.988C180.826 197.995 180.482 199.391 180.071 201.046L180.069 201.048Z" fill="#2C3A64"/>
<path d="M205.601 268.096C205.601 268.096 204.484 270.275 202.011 270.816C200.453 271.156 199.119 271.967 198.29 273.106C197.588 274.068 198.267 275.42 199.456 275.42H212.009C213.078 275.42 213.913 274.497 213.805 273.431C213.712 272.5 213.614 271.416 213.571 270.584C213.478 268.77 211.663 267.308 211.663 267.308L205.601 268.094V268.096Z" fill="#2C3A64"/>
<path d="M211.74 123.113C212.485 119.877 211.566 117.486 210.08 115.184C208.657 112.978 206.656 112.883 204.735 111.013C202.927 109.252 199.554 108.095 196.869 108.095C188.277 108.095 180.84 113.36 182.535 122.284C183.073 125.121 182.618 127.354 184.915 130.669C187.782 134.808 191.267 138.128 196.869 138.128C199.84 138.128 202.444 137.441 204.735 135.275C205.982 134.093 207.772 133.95 208.87 132.664C211.089 130.068 210.923 126.647 211.738 123.111L211.74 123.113Z" fill="#313131"/>
<path d="M188.981 144.079L199.688 149.555L201.834 142.121C201.834 142.121 200.471 139.548 199.854 135.335C199.595 133.562 199.468 131.501 199.632 129.216L190.91 133.686C190.91 133.686 191.117 134.493 191.258 135.685C191.407 136.973 191.474 138.708 191.107 140.357C190.792 141.773 190.158 143.123 188.984 144.079H188.981Z" fill="#FFB27D"/>
<path d="M213.786 197.946C213.786 197.946 215.821 224.949 215.369 267.984C215.369 267.984 212.914 269.276 209.952 269.57C204.422 270.122 203.076 267.928 203.076 267.928C203.076 267.928 197.42 246.926 196.007 237.46C194.704 228.735 186.146 197.251 186.146 197.251L213.788 197.946H213.786Z" fill="#35488B"/>
<path d="M189.607 142.586C189.845 142.54 190.085 142.499 190.326 142.459C190.278 144 190.699 145.422 193.398 145.777C196.992 146.245 200.206 143.79 201.832 142.123C201.832 142.123 204.366 142.395 207.32 143.042C208.797 143.367 210.382 143.784 211.805 144.313C213.531 144.947 215.023 145.742 215.818 146.716C215.818 146.716 215.818 146.716 215.82 146.716C218.584 150.112 223.133 160.341 223.133 160.341C223.133 160.341 215.561 163.151 213.651 164.791L213.608 165.156L212.423 175.005L215.953 194.624C215.984 194.796 216 194.968 216 195.136C216 196.447 215.103 197.626 213.788 197.944C213.788 197.944 213.485 197.993 212.926 198.072C209.185 198.599 193.995 200.411 182.086 197.176C179.41 196.449 177.645 193.89 177.866 191.12L178.668 165.203C178.668 165.203 178.525 159.393 179.165 153.876C179.82 148.232 184.03 143.637 189.611 142.588L189.607 142.586Z" fill="#739AF0"/>
<path d="M208.105 183.261C208.341 190.104 209.011 195.906 212.926 198.072C213.485 197.996 213.788 197.944 213.788 197.944C215.106 197.627 216 196.447 216 195.136C216 194.968 215.984 194.796 215.953 194.624L212.423 175.005L213.608 165.156C213.55 164.984 213.521 164.892 213.521 164.892C213.521 164.892 207.805 174.497 208.105 183.261Z" fill="#487AE7"/>
<path d="M215.69 191.423L214.94 186.255C199.414 163.775 197.707 159.512 204.689 149.418C206.688 146.527 210.326 144.721 211.808 144.311C210.384 143.782 208.801 143.363 207.322 143.04C205.849 143.732 204.494 144.412 203.442 145.325C182.134 163.787 215.69 191.423 215.69 191.423Z" fill="#35488B"/>
<path d="M191.105 140.357C196.065 140.224 199.854 135.335 199.854 135.335L191.257 135.685C191.406 136.973 191.472 138.708 191.105 140.357Z" fill="#E8945B"/>
<path d="M190.632 137.356C190.632 137.356 201.592 138.694 201.826 130.966C202.06 123.238 197.492 118.232 194.442 118.291C188.362 118.405 187.359 120.864 186.655 123.424C185.95 125.985 185.588 136.813 190.632 137.358V137.356Z" fill="#FFB27D"/>
<path d="M193.564 132.903C193.564 132.903 193.326 133.867 190.925 133.688C190.925 133.688 188.909 133.539 188.983 132.477C188.983 132.477 190.947 131.746 193.564 132.9V132.903Z" fill="white"/>
<path d="M191.73 118.361C191.73 118.361 201.097 118.355 198.944 124.791C197.587 128.847 202.097 129.477 202.097 129.477L204.269 122.977L202.909 117.911L191.73 118.361Z" fill="#313131"/>
<path d="M197.194 162.269C199.918 162.458 201.588 163.814 202.605 165.253C202.624 165.218 202.642 165.183 202.667 165.149C202.988 164.722 203.494 165.844 204.001 166.993C204.295 167.66 204.21 168.322 204.086 168.759C204.107 168.865 204.113 168.923 204.113 168.923C204.113 168.923 214.314 169.85 215.82 170.52C215.82 170.52 214.992 168.278 213.521 164.892C214.851 163.584 219.222 161.637 222.116 160.741C224.325 166.377 225.172 171.957 223.933 177.335C223.803 177.903 223.303 178.31 222.721 178.337C219.475 178.488 208.752 178.432 200.896 171.926L200.753 171.886C198.874 171.774 197.107 169.906 196.429 167.449C195.752 164.992 195.696 165.742 195.178 164.013C194.658 162.284 197.189 162.267 197.189 162.267L197.194 162.269Z" fill="#FFB27D"/>
<path d="M233.915 77.1214C235.079 76.2588 238.185 80.2482 239.658 80.101C239.998 80.0678 238.154 78.3095 237.71 77.6937C237.267 77.0758 237.356 76.7316 237.669 76.5491C237.98 76.3667 242.189 78.5791 243.057 79.4914C243.59 80.0513 244.754 82.1268 245.575 83.6446C245.581 83.6322 245.583 83.628 245.585 83.628C245.585 83.628 269.364 85.0214 274.15 84.5362C277.622 84.2086 278.954 59.5838 279.223 59.6295C283.765 60.3075 292.594 62.0264 298.084 65.6322C298.296 65.8043 298.497 65.881 298.745 65.9515C296.11 76.236 291.666 88.9569 284.401 99.372C284.401 99.372 261.519 101.423 243.677 90.4519C243.677 90.4519 239.422 88.5754 236.89 86.4086C233.43 83.4518 232.753 77.9798 233.917 77.1173L233.915 77.1214Z" fill="#E8945B"/>
<path d="M310.409 43.0249C310.409 43.0249 321.159 37.3581 336.565 36.2259C344.827 35.6184 352.459 40.7192 355.051 48.5943C355.2 49.0484 355.343 49.5212 355.479 50.0084C359.099 63.0362 357.124 102.47 344.953 112.756C332.782 123.043 310.411 118.703 310.411 118.703V43.0249H310.409Z" fill="#264272"/>
<path d="M276.852 134.93C276.852 134.93 278.157 151.232 279.692 170.827C281.778 197.444 289.715 263.769 289.715 263.769C289.715 263.769 288.033 266.412 296.199 264.689C296.199 264.689 306.208 242.099 308.288 216.114C308.321 215.689 308.352 215.259 308.385 214.83C310.318 188.377 313.326 132.674 313.326 132.674L276.852 134.932V134.93Z" fill="#2B478B"/>
<path d="M276.406 129.299C276.406 129.299 278.157 151.232 279.692 170.826L308.288 216.113C308.321 215.688 308.352 215.259 308.385 214.83C310.318 188.376 313.326 132.674 313.326 132.674L276.406 129.301V129.299Z" fill="#233862"/>
<path d="M278.09 130.402L344.776 257.44C344.776 257.44 350.983 260.227 351.789 257.807C351.789 257.807 345.872 199.602 335.512 186.546C329.657 179.168 322.779 157.027 322.458 149.285C322.137 141.543 320.469 124.89 320.469 124.89L278.09 130.402Z" fill="#2B478B"/>
<path d="M333.44 275.337C333.44 275.337 343.119 275.475 345.922 272.728C346.251 272.405 347.318 269.158 347.329 269.122C347.414 268.861 347.907 267.669 349.904 267.001C351.217 266.561 352.311 266.576 353.575 266.078C354.507 265.713 356.31 264.832 357.171 264.326C360.169 262.574 359.488 261.649 359.488 261.649C359.488 261.649 358.827 261.05 357.959 260.175C357.724 259.937 357.472 259.678 357.217 259.404C355.918 258.023 354.474 256.281 354.103 255.037C353.792 253.98 353.198 253.285 352.632 252.847C351.922 252.29 351.257 252.128 351.257 252.128C351.257 252.128 350.2 256.374 348.108 255.846C344.062 254.819 343.305 254.94 343.167 255.004L343.135 255.029C343.135 255.029 339.829 261.444 338.907 263.733C337.27 267.812 335.168 269.352 333.848 270.692C333.512 271.032 333.27 271.405 333.102 271.789C332.412 273.34 332.918 275.048 333.442 275.339L333.44 275.337Z" fill="#6F8698"/>
<path d="M333.44 275.336C333.44 275.336 343.119 275.475 345.922 272.728C346.251 272.405 347.318 269.157 347.328 269.122C347.413 268.861 347.906 267.669 349.904 267.001C351.217 266.561 352.311 266.576 353.575 266.078C354.507 265.713 356.309 264.832 357.171 264.326C360.169 262.574 359.487 261.649 359.487 261.649C359.487 261.649 358.827 261.05 357.958 260.175C357.724 259.937 357.472 259.678 357.217 259.404C356.902 260.635 356.028 262.833 353.711 263.731C350.407 265.015 346.858 267.219 345.82 268.994C344.78 270.769 344.107 272.361 342.089 273.035C340.069 273.709 334.809 273.891 334.442 273.709C334.148 273.562 333.858 272.253 333.104 271.787C332.414 273.338 332.92 275.046 333.444 275.336H333.44Z" fill="#6F8698"/>
<path d="M297.37 275.359H293.367C292.027 275.148 291.037 274.76 289.663 274.58C287.575 274.306 286.613 275.162 286.423 275.359C286.398 275.384 286.386 275.399 286.386 275.399H269.385C268.958 274.787 269.368 273.371 269.77 272.33C270.042 271.623 270.632 271.086 271.361 270.874C273.164 270.352 276.719 269.887 279.972 266.937C281.803 265.28 288.814 260.847 288.814 260.847L288.851 260.839C289.004 260.841 289.738 261.067 292.926 263.762C294.575 265.154 297.384 261.799 297.384 261.799C297.384 261.799 297.913 262.236 298.306 263.049C298.623 263.692 298.853 264.573 298.671 265.662C298.418 267.194 299.236 270.043 299.889 271.971C300.285 273.139 300.62 273.966 300.62 273.966C300.62 273.966 300.811 274.928 297.368 275.359H297.37Z" fill="#6F8698"/>
<path d="M297.364 275.417H293.378C292.037 275.206 291.039 274.76 289.663 274.582C287.575 274.308 286.613 275.164 286.423 275.361C286.398 275.386 286.386 275.401 286.386 275.401H269.385C268.958 274.789 269.368 273.373 269.77 272.332C270.286 271.872 270.431 274.327 270.717 274.719C271.003 275.11 284.585 274.862 285.37 274.289C286.156 273.719 288.507 272.72 291.789 273.504C294.643 274.186 298.851 272.436 299.891 271.971C300.287 273.139 300.622 273.966 300.622 273.966C300.622 273.966 300.807 274.986 297.364 275.417Z" fill="#6F8698"/>
<path d="M312.992 40.7545C312.992 40.7545 297.065 48.6006 287.858 45.6935C287.858 45.6935 290.125 42.7969 294.076 40.6218C293.85 39.2802 293.67 38.0548 293.527 36.9641C293.015 33.0141 292.998 30.7665 292.998 30.7665L302.76 22.8914L304.95 21.1248C304.888 22.993 305.002 24.7243 305.248 26.3209C305.267 26.4474 305.286 26.5718 305.306 26.6962C306.893 36.1741 312.995 40.7565 312.995 40.7565L312.992 40.7545Z" fill="#FFB27D"/>
<path d="M322.083 124.214C322.13 125.23 320.04 126.346 319.133 126.752C315.105 128.56 311.242 130.043 307.276 131.094C304.511 131.832 301.695 132.359 298.743 132.643C290.214 133.52 280.135 131.596 276.677 131.644C276.31 131.644 275.987 131.505 275.71 131.277C275.48 131.09 275.295 120.665 275.48 107.515C275.48 107.009 275.48 106.453 275.525 105.945V105.762C275.573 100.639 275.759 95.2415 275.989 89.8919C276.495 78.0813 277.415 66.6834 278.987 60.3634C280.831 52.9361 285.07 48.0448 288.942 44.4473L291.693 41.7061C291.865 41.534 292.111 41.4615 292.352 41.505C295.43 42.0731 298.801 42.0254 302.033 40.4309C305.675 38.6332 309.638 36.6945 310.284 37.1569C317.844 42.8092 321.606 59.5112 321.536 78.5002C321.534 79.0994 321.528 79.7028 321.519 80.3062C321.486 82.2656 321.414 84.25 321.302 86.2447C320.477 100.255 321.323 112.4 321.805 119.462C321.944 121.494 322.054 123.105 322.085 124.216L322.083 124.214Z" fill="#2A55A6"/>
<path d="M322.083 124.214C322.13 125.23 320.04 126.346 319.133 126.752C315.105 128.56 311.241 130.043 307.276 131.094C296.277 95.5297 309.447 61.0559 309.447 61.0559L321.515 80.3041C321.482 82.2636 321.409 84.2479 321.298 86.2426C320.473 100.253 321.318 112.398 321.801 119.46C321.94 121.492 322.05 123.103 322.081 124.214H322.083Z" fill="#3B6ECE"/>
<path d="M305.165 66.6005C309.11 64.2616 317.026 60.0172 323.568 59.3474C325.002 59.2002 325.878 57.6969 325.3 56.3761C323.233 51.6486 317.393 41.7559 310.283 37.159C309.615 36.7277 309.112 37.103 308.418 37.4929C305.793 38.9671 300.144 43.3256 299.795 48.4637C299.487 53.0336 301.053 60.9627 301.998 65.2278C302.313 66.644 303.916 67.3407 305.163 66.6005H305.165Z" fill="#2A55A6"/>
<path d="M305.385 26.5489C305.385 26.5489 305.358 26.5986 305.306 26.694C304.691 27.7992 300.481 34.9216 293.528 36.9619C293.017 33.0119 293 30.7643 293 30.7643L302.762 22.8892C304.048 24.4007 304.927 25.7858 305.25 26.3187C305.339 26.468 305.387 26.5489 305.387 26.5489H305.385Z" fill="#E8945B"/>
<path d="M290.183 30.5446C290.183 30.5446 305.387 33.0722 306.814 23.5715C308.242 14.0707 311.165 7.9975 301.517 5.98207C291.869 3.96664 289.435 7.30703 288.188 10.3634C286.94 13.4176 286.263 29.6427 290.183 30.5467V30.5446Z" fill="#FFB27D"/>
<path d="M285.828 4.8582C288.983 3.40261 304.353 -3.90022 310.945 2.75983C311.07 1.73967 311.045 0.526679 311.045 0.526679C311.523 1.39547 311.735 2.67067 311.832 3.57885C312.42 2.87179 313.51 2.75361 313.51 2.75361C312.731 3.12269 312.404 3.83389 312.265 4.42276C318.793 14.1412 308.878 24.0297 307.517 25.5723C306.11 27.1648 305.304 26.6941 305.304 26.6941C305.304 26.6941 302.822 23.3309 304.028 21.1226C304.028 21.1226 306.046 19.0803 304.883 17.7947C303.721 16.5091 303.048 18.4686 302.13 18.4064C301.212 18.3442 299.561 15.6507 299.439 13.2019C299.317 10.7531 290.487 14.4895 286.938 13.3263C283.389 12.1631 280.28 7.41481 285.826 4.85612L285.828 4.8582Z" fill="#313131"/>
<path d="M321.849 88.8677L322.319 85.9669C315.271 84.8202 309.568 81.4322 305.37 75.8918C302.201 71.7096 299.969 66.2314 299.248 60.8611C297.85 50.4563 300.587 44.5324 307.614 42.7533C313.908 41.1588 321.182 46.0813 321.254 46.131L322.92 43.7092C322.578 43.4749 314.49 37.9801 306.895 39.9023C300.972 41.4014 294.334 46.3218 296.34 61.2509C296.802 64.6929 298.287 71.4048 303.033 77.6667C307.703 83.827 314.034 87.5966 321.851 88.8656L321.849 88.8677Z" fill="#264272"/>
<path d="M251.866 65.3108L271.156 77.1442L288.623 67.4962L286.075 121.032L278.254 122.284L261.512 116.48L245.682 118.863L234.512 70.4095L251.866 65.3108Z" fill="#9CC9EC"/>
<path d="M286.075 121.032L288.623 67.4961L271.156 77.144L278.254 122.284L286.075 121.032Z" fill="#89B7E3"/>
<path d="M251.866 65.3108L234.512 70.4095L245.682 118.863L261.512 116.48L251.866 65.3108Z" fill="#89B7E3"/>
<path d="M281.107 108.84C281.465 107.434 286.39 108.56 287.438 107.513C287.531 107.419 287.206 107.332 286.731 107.249L286.831 105.161C287.993 104.958 289.153 104.821 289.686 104.89C290.452 104.987 292.665 105.858 294.258 106.515C294.256 106.503 294.254 106.497 294.258 106.497C294.258 106.497 313.558 92.5254 316.962 89.1228C319.446 86.6719 304.919 66.7519 305.157 66.6172C309.104 64.2679 317.03 60.011 323.562 59.3309C323.834 59.3309 324.039 59.2625 324.277 59.1609C328.733 68.7964 333.326 81.4633 334.279 94.1303C334.279 94.1303 317.849 110.202 297.096 112.993C297.096 112.993 289.089 114.884 285.758 114.809C281.208 114.708 280.752 110.245 281.111 108.84H281.107Z" fill="#FFB27D"/>
<path d="M236.043 77.8596C236.043 77.8596 238.775 79.4458 238.958 81.2912C239.14 83.1346 240.82 89.693 237.911 87.2111C235.001 84.7291 236.043 77.8617 236.043 77.8617V77.8596Z" fill="#E8945B"/>
<path d="M260.863 113.043C260.863 113.043 256.991 113.248 256.855 111.539C256.718 109.833 255.831 107.84 254.876 108.016C253.921 108.193 252.556 106.758 252.488 105.599C252.419 104.438 249.486 104.985 248.394 103.276C247.302 101.57 246.807 99.6582 248.011 100.272C249.214 100.886 250.851 104.164 251.669 102.321C252.488 100.477 254.058 102.6 251.532 99.5234C249.007 96.4463 246.158 95.3557 247.31 94.4662C248.462 93.5787 249.759 91.8722 251.122 93.3734C252.488 94.8767 255.216 96.4463 254.943 97.1969C254.669 97.9476 258.081 97.1969 258.081 97.1969L260.861 113.038L260.863 113.043Z" fill="#AFD295"/>
<path d="M259.176 94.605C258.811 93.6948 262.178 93.8088 261.722 94.8891C261.266 95.9694 261.54 97.0165 262.132 97.7464C262.723 98.4742 264.361 98.7479 263.86 99.795C263.361 100.842 262.638 100.979 261.567 101.524C260.495 102.07 259.949 101.62 260.404 102.916C260.86 104.212 260.541 104.12 262.269 105.576C263.997 107.034 265.861 108.489 265.271 109.491C264.68 110.492 262.725 111.585 264.179 111.767C265.635 111.95 269.319 113.179 269.319 111.767C269.319 110.355 266.771 111.539 269.045 109.173C271.32 106.805 271.774 106.942 273.002 106.805C274.231 106.669 274.685 106.304 274.14 105.302C273.595 104.301 276.05 106.499 274.685 108.016C273.319 109.536 270.272 108.535 271.728 110.492C273.185 112.449 273.912 114.164 271.956 114.809C270 115.454 269.454 115.804 267.363 114.809C265.271 113.816 262.542 116.045 262.542 116.045C262.542 116.045 263.464 112.995 260.864 113.04L258.084 97.199C258.084 97.199 259.54 95.5153 259.176 94.605Z" fill="#82B378"/>
<path d="M268.135 78.1269C268.135 78.1269 270 78.7635 268.817 80.4036C267.634 82.0417 267.344 80.6317 268.672 83.4081C270 86.1845 269.681 87.4763 268.817 87.7645C267.953 88.0506 267.795 88.0506 267.795 88.0506C267.795 88.0506 266.36 87.7769 265.632 86.6842C264.905 85.5915 262.95 85.5915 262.722 83.7709C262.494 81.9504 262.266 81.8136 262.266 81.8136C262.266 81.8136 260.082 82.9975 259.809 80.584C259.535 78.1705 261.582 76.9429 263.447 77.4427C265.311 77.9424 266.722 75.4853 268.131 78.1248L268.135 78.1269Z" fill="#82B378"/>
<path d="M276.776 84.3621C276.776 84.3621 276.549 82.4959 277.686 81.6769C278.823 80.8579 279.733 81.086 279.414 79.1721C279.095 77.2604 279.913 76.9867 281.78 76.1676C283.644 75.3486 281.871 73.7085 284.1 74.0734C286.329 74.4384 285.645 76.3045 285.146 78.6703C284.645 81.0383 286.375 82.9044 283.099 83.8147C279.824 84.7249 278.187 81.1751 276.776 84.36V84.3621Z" fill="#AFD295"/>
</g>
<defs>
<clipPath id="clip0_16_10167">
<rect width="509" height="276" fill="white"/>
</clipPath>
</defs>
</svg>
